<?xml version="1.0" encoding="UTF-8" standalone="no"?>
<!-- Created with Inkscape (http://www.inkscape.org/) -->

<svg
   xmlns:dc="http://purl.org/dc/elements/1.1/"
   xmlns:cc="http://creativecommons.org/ns#"
   xmlns:rdf="http://www.w3.org/1999/02/22-rdf-syntax-ns#"
   xmlns:svg="http://www.w3.org/2000/svg"
   xmlns="http://www.w3.org/2000/svg"
   xmlns:sodipodi="http://sodipodi.sourceforge.net/DTD/sodipodi-0.dtd"
   xmlns:inkscape="http://www.inkscape.org/namespaces/inkscape"
   width="744.09448"
   height="1052.3622"
   id="svg3636"
   version="1.1"
   inkscape:version="0.48.5 r10040"
   sodipodi:docname="EVE-depth.svg">
  <defs
     id="defs3638" />
  <sodipodi:namedview
     id="base"
     pagecolor="#ffffff"
     bordercolor="#666666"
     borderopacity="1.0"
     inkscape:pageopacity="0.0"
     inkscape:pageshadow="2"
     inkscape:zoom="1"
     inkscape:cx="384.04976"
     inkscape:cy="689.80227"
     inkscape:document-units="px"
     inkscape:current-layer="svg3636"
     showgrid="false"
     inkscape:window-width="1280"
     inkscape:window-height="751"
     inkscape:window-x="0"
     inkscape:window-y="25"
     inkscape:window-maximized="1"
     showguides="true"
     inkscape:guide-bbox="true"
     fit-margin-top="0"
     fit-margin-left="0"
     fit-margin-right="0"
     fit-margin-bottom="0" />
  <metadata
     id="metadata3641">
    <rdf:RDF>
      <cc:Work
         rdf:about="">
        <dc:format>image/svg+xml</dc:format>
        <dc:type
           rdf:resource="http://purl.org/dc/dcmitype/StillImage" />
        <dc:title></dc:title>
      </cc:Work>
    </rdf:RDF>
  </metadata>
  <g
     inkscape:groupmode="layer"
     id="layer5"
     inkscape:label="Base"
     style="display:inline">
    <path
       style="font-size:medium;font-style:normal;font-variant:normal;font-weight:normal;font-stretch:normal;text-indent:0;text-align:start;text-decoration:none;line-height:normal;letter-spacing:normal;word-spacing:normal;text-transform:none;direction:ltr;block-progression:tb;writing-mode:lr-tb;text-anchor:start;baseline-shift:baseline;color:#000000;fill:#000000;fill-opacity:1;stroke:none;stroke-width:1;marker:none;visibility:visible;display:inline;overflow:visible;enable-background:accumulate;font-family:Sans;-inkscape-font-specification:Sans"
       d="M 405.1875,19.53125 C 289.93949,18.115034 179.49041,101.34032 150.09375,212.875 138.728,254.53642 138.01159,299.317 148.71875,341.1875 104.51446,366.00802 75.979864,411.69492 61.051121,459.18642 29.825615,541.84484 6.9690455,630.01074 13.53125,719.09375 c 3.191978,34.53394 10.188342,70.2191 29.582691,99.4456 23.165289,29.4904 67.931209,42.40712 102.042309,24.64815 13.2266,43.34714 34.20175,84.99505 64.10998,119.36982 27.4079,31.53845 63.63634,56.81008 105.08657,65.33968 39.08753,8.8268 81.08851,3.6164 116.58244,-14.6996 47.7823,-22.85974 84.38751,-63.47207 111.85624,-107.90649 18.29452,-26.28212 34.74635,-54.04012 51.11477,-81.35341 57.99104,0.40578 111.5184,-42.43446 127.09955,-97.71974 23.3612,-64.35699 10.85005,-138.7803 -26.6933,-195.15526 -4.23881,-7.01147 -3.1538,-15.25825 -1.40808,-22.80827 2.10023,-20.75221 -1.9155,-42.02804 -11.24817,-60.56673 43.71459,-75.34762 46.6909,-170.81516 15.78534,-251.46334 C 667.91479,115.95044 596.55778,52.884132 513.35064,33.163945 478.22845,23.326342 441.67358,19.052776 405.1875,19.53125 z"
       id="path3329"
       inkscape:connector-curvature="0" />
  </g>
  <g
     inkscape:groupmode="layer"
     id="layer4"
     inkscape:label="Tall Outline"
     style="display:inline">
    <path
       style="font-size:medium;font-style:normal;font-variant:normal;font-weight:normal;font-stretch:normal;text-indent:0;text-align:start;text-decoration:none;line-height:normal;letter-spacing:normal;word-spacing:normal;text-transform:none;direction:ltr;block-progression:tb;writing-mode:lr-tb;text-anchor:start;baseline-shift:baseline;color:#000000;fill:#ffff00;fill-opacity:1;stroke:none;stroke-width:18;marker:none;visibility:visible;display:inline;overflow:visible;enable-background:accumulate;font-family:Sans;-inkscape-font-specification:Sans"
       d="m 408.125,73.59375 c -58.56611,0.251481 -118.12806,23.131485 -157.40625,68.03125 -0.044,0.0503 -0.081,0.10587 -0.125,0.15625 C 208.27399,188.00455 185.07758,254.00881 198.78125,317 l 0,0.0312 c 4.34141,19.81783 11.89157,38.77819 21.875,56.34375 -24.8408,5.33913 -51.66167,13.09846 -70.59375,34.5 l -0.0312,0 c -0.0254,0.0282 -0.0371,0.0655 -0.0625,0.0937 -29.42663,32.6901 -39.70496,75.05143 -53.40625,112.1875 L 96.5,520.3125 96.46875,520.46875 C 72.977595,591.50624 57.921659,668.61386 71.34375,744.625 l 0,0.0312 c 2.765862,15.5268 6.322323,35.95152 23.15625,48.28125 l 0.28125,0.21875 0.3125,0.21875 c 13.18976,8.08722 29.2258,3.42893 38.5,-7.03125 l 0.0312,0.0312 c 0.22572,-0.2185 0.40268,-0.46715 0.625,-0.6875 15.31199,-15.17637 22.66817,-34.65579 30.90625,-50.78125 l 0.0937,-0.1875 0.0937,-0.1875 c 2.56002,-5.69178 4.8359,-11.41933 7.15625,-17.125 9.58241,57.33848 20.97631,115.68507 48.5,168.78125 l 0.0625,0.0937 0.0625,0.0937 c 21.55322,39.21277 55.55354,74.56739 100.40625,88.3125 l 0.1875,0.0625 0.21875,0.0625 c 44.3466,11.3033 90.36575,-6.21956 122.78125,-34.8125 34.7524,-30.71662 56.43419,-71.31736 81.0625,-106.875 l 0.0937,-0.15625 0.0937,-0.15625 c 14.34837,-22.61601 27.22786,-46.42347 38.8125,-70.25 26.62562,13.46969 61.47677,8.54751 81.21875,-15.09375 0.15237,-0.18246 0.3182,-0.34656 0.46875,-0.53125 31.82472,-33.74908 38.7825,-83.80937 27.5,-126.6875 -0.0176,-0.0742 -0.0449,-0.14458 -0.0625,-0.21875 -8.07744,-33.95942 -24.94321,-64.57689 -44.75,-92.0625 12.89492,-15.79458 14.32973,-38.93012 3.5,-56.4375 l 0.0312,-0.0312 c -0.0582,-0.1086 -0.1288,-0.20436 -0.1875,-0.3125 -0.0577,-0.0916 -0.0979,-0.19 -0.15625,-0.28125 l -0.0312,0 c -4.66324,-8.48834 -10.88683,-15.58714 -17.71875,-21.65625 38.00516,-42.90585 53.12623,-102.33776 48.5,-158.25 -8.3e-4,-0.0103 8.4e-4,-0.021 0,-0.0312 -3.69248,-45.49046 -17.99601,-91.0831 -45.125,-128.625 -23.86818,-32.80797 -58.49531,-55.51359 -95.5,-69.3125 -0.0308,-0.01186 -0.063,-0.0194 -0.0937,-0.03125 -36.37179,-13.997647 -75.477,-19.948511 -114.15625,-19.40625 -0.0312,4.38e-4 -0.0625,-4.46e-4 -0.0937,0 z m 0.15625,18 0.0625,0 0.0312,0 c 36.71935,-0.524757 73.61302,5.158172 107.59375,18.25 l 0.0625,0 0.0312,0.0312 c 34.42298,12.8211 66.0211,33.72223 87.34375,63.03125 24.83194,34.36317 38.2866,76.80755 41.75,119.53125 l 0,0.0312 c 4.5246,54.59643 -11.59701,112.55355 -50.0625,151.3125 l -7.28125,7.3125 8.21875,6.21875 c 8.66105,6.53809 16.11808,13.98449 20.78125,22.6875 l 0.15625,0.3125 0.1875,0.28125 c 7.69373,12.03291 5.32244,30.52485 -5.53125,39.6875 l -6.46875,5.46875 5.0625,6.8125 c 20.88806,27.89922 38.38406,58.60157 46.25,91.84375 l 0.0312,0.125 0,0.125 c 10.05097,37.96797 3.42974,82.18413 -23.5,110.375 l -0.25,0.25 -0.21875,0.28125 c -15.13068,18.56147 -46.81996,21.21391 -66.21875,7 l -8.78125,-6.46875 -4.65625,9.875 c -12.33112,26.11971 -26.33694,52.33149 -41.90625,76.90625 -0.0648,0.10224 -0.12267,0.21032 -0.1875,0.3125 -25.31678,36.59728 -46.48838,75.4807 -77.96875,103.3125 -0.006,0.005 -0.0256,-0.005 -0.0312,0 -28.7304,25.33357 -69.24585,40.24651 -106.21875,30.90625 C 287.78152,945.4356 256.85789,913.91385 237,877.875 206.29415,818.64009 196.12808,750.485 185.03125,683.1875 l -5.0625,-30.71875 -12.09375,28.6875 c -6.51905,15.45336 -12.19199,30.92991 -18.75,45.5625 -0.0603,0.13445 -0.12709,0.27195 -0.1875,0.40625 -8.85094,17.38198 -15.90804,34.7581 -27.84375,46.3125 l -0.34375,0.34375 -0.3125,0.34375 c -3.93781,4.70569 -11.11324,6.64954 -15.75,3.9375 -9.415738,-7.26737 -12.929237,-21.61189 -15.59375,-36.5625 -0.0018,-0.0102 0.0018,-0.0211 0,-0.0312 -12.628233,-71.55904 1.420666,-145.64965 24.34375,-215.0625 0.034,-0.10304 0.0597,-0.20949 0.0937,-0.3125 14.12921,-38.35947 24.34093,-77.83675 49.875,-106.15625 l 0.0312,-0.0312 0.0312,-0.0625 c 17.08151,-19.37413 45.406,-25.93665 73.09375,-31.5 L 249.59375,385.75 242.3125,374.59375 c -12.23519,-18.72926 -21.19159,-39.61721 -25.96875,-61.40625 -0.002,-0.01 0.002,-0.0212 0,-0.0312 C 204.10738,256.85363 225.18316,196.13067 264,153.8125 l 0.0625,-0.0937 0.0937,-0.0937 c 35.32537,-40.47245 90.13533,-61.821677 144.125,-62.03125 z"
       id="path4507"
       inkscape:connector-curvature="0" />
  </g>
  <g
     inkscape:label="Medium Features"
     inkscape:groupmode="layer"
     id="layer1"
     transform="translate(-119.22743,100.68078)"
     style="display:inline">
    <path
       style="font-size:medium;font-style:normal;font-variant:normal;font-weight:normal;font-stretch:normal;text-indent:0;text-align:start;text-decoration:none;line-height:normal;letter-spacing:normal;word-spacing:normal;text-transform:none;direction:ltr;block-progression:tb;writing-mode:lr-tb;text-anchor:start;baseline-shift:baseline;color:#000000;fill:#5f5fd3;fill-opacity:1;stroke:none;stroke-width:1;marker:none;visibility:visible;display:inline;overflow:visible;enable-background:accumulate;font-family:Sans;-inkscape-font-specification:Sans"
       d="m 530.75,-10.15625 c 60.21088,-0.180047 121.95998,16.3367431 168.6875,55.40625 40.8883,36.395294 61.0515,91.27312 65.75,144.875 3.82743,38.81461 -3.00318,78.49374 -21.03125,112.9375 -8.83128,17.84406 -20.73097,34.53124 -36.21875,47.1875 16.44799,10.79334 33.89293,26.40498 34.125,47.625 0.21588,11.42755 -7.51413,21.44856 -17.0625,27.0625 26.86573,33.47953 49.16253,72.45247 54.7403,115.6767 4.14881,26.4207 -0.16038,54.5409 -14.1153,77.35455 -10.14674,18.59755 -28.4509,35.23484 -50.78125,34.21875 -14.14153,-0.1541 -27.78884,-6.07388 -37.59375,-16.21875 -18.91746,43.0326 -42.67333,83.80263 -69.83805,122.23689 -22.73444,34.31687 -46.9439,70.4287 -85.04455,88.78254 -27.48956,14.09126 -61.87231,19.40168 -90.71115,5.73057 -29.10556,-13.43737 -52.57626,-37.05496 -69.84375,-63.84375 -23.7247,-38.52724 -35.00624,-83.06516 -44.57881,-126.90607 -7.3023,-35.05327 -12.41482,-70.50918 -18.32744,-105.81268 -17.99367,37.18528 -28.60713,78.38013 -52.94938,112.11471 -5.04462,6.38867 -13.71939,14.95662 -22.36312,10.13529 -9.31571,-6.22367 -11.88153,-18.48645 -14.61819,-28.72728 -14.16595,-68.27113 -3.31201,-139.18341 16.69636,-205.06233 9.83586,-31.07454 20.10748,-62.26309 33.67183,-91.86664 11.31609,-23.3823 27.66873,-46.00095 53.21875,-54.5625 17.64027,-6.95855 36.40104,-9.96971 54.9375,-13.90625 C 340.32457,247.50215 325.31758,200.71766 332.89268,154.86622 341.927,95.485258 380.23705,41.45086 432.90625,12.75 462.91697,-2.9646854 496.84725,-9.8329269 530.75,-10.15625 z"
       id="path3731"
       inkscape:connector-curvature="0" />
    <path
       style="fill:#ffffff;stroke:none;display:inline"
       d="m 375.71875,382.40625 c -12.4996,60.34573 -39.84024,116.19816 -65.75,171.75 -1.13782,9.71052 3.14943,18.74425 3.68157,28.41708 10.88568,63.99985 21.92445,129.146 50.38093,187.95792 16.99936,32.77557 44.20968,61.34141 79.03125,75.0625 21.37781,8.03682 45.32168,5.48751 65.87659,-3.42744 23.29938,-9.29901 41.35232,-27.2941 56.73187,-46.47088 40.35958,-48.57478 70.80168,-104.4813 99.76654,-160.32043 2.84383,-3.9124 -4.13631,-6.37739 -5.375,-9.875 -23.62516,-30.28087 -36.36808,-67.85287 -46.625,-104.6875 -5.65288,-23.57426 -8.66203,-47.53122 -10,-71.71875 -55.95804,-2.1249 -110.09196,-18.75089 -162.74954,-36.63046 -22.49995,-8.26757 -44.36898,-18.21345 -64.87546,-30.55704 l -0.0937,0.5 z"
       id="path3729"
       inkscape:connector-curvature="0" />
    <path
       style="font-size:medium;font-style:normal;font-variant:normal;font-weight:normal;font-stretch:normal;text-indent:0;text-align:start;text-decoration:none;line-height:normal;letter-spacing:normal;word-spacing:normal;text-transform:none;direction:ltr;block-progression:tb;writing-mode:lr-tb;text-anchor:start;baseline-shift:baseline;color:#000000;fill:#ffffff;fill-opacity:1;stroke:none;stroke-width:1;marker:none;visibility:visible;display:inline;overflow:visible;enable-background:accumulate;font-family:Sans;-inkscape-font-specification:Sans"
       d="m 315.0312,310.25 c 0.0105,-3.8e-4 0.0207,3.7e-4 0.0312,0 8.94435,-0.31078 17.59486,3.32795 24.96875,8.3125 l 0.0312,0.0312 c 15.12233,8.43636 22.12317,26.26206 21.84375,43.03125 -1.7e-4,0.0103 1.8e-4,0.0209 0,0.0312 -1.43096,32.29431 -13.26767,63.05656 -25.59375,92.75 -0.004,0.009 0.004,0.0224 0,0.0312 -21.43626,48.58281 -44.40321,96.66677 -65.1875,145.625 -0.004,0.009 0.004,0.0225 0,0.0312 -9.8348,21.18032 -17.39555,43.72426 -31.78125,62.125 l 0.0312,0.0312 c -1.64217,1.43721 -3.15202,3.86322 -4.84375,5.53125 -0.85872,0.84669 -1.76725,1.45345 -2.6875,1.6875 -0.90957,0.23133 -1.86317,0.1493 -3.03125,-0.59375 -6.37146,-7.43121 -8.87179,-17.81608 -11.25,-27.28125 -0.002,-0.0101 0.002,-0.0211 0,-0.0312 -6.55608,-37.74907 -5.8805,-76.83315 0.5,-114.59375 12.47898,-63.52973 30.22676,-126.83412 61.34375,-183.875 l -0.0312,0 c 4.13228,-6.99973 8.72066,-14.67839 14.4375,-20.875 5.70999,-6.18919 12.53431,-10.88518 21.21875,-11.96875 z"
       id="path3727"
       inkscape:connector-curvature="0" />
    <path
       style="fill:#ffffff;stroke:none;display:inline"
       d="m 643.78125,369.25 c -13.37977,2.19826 -19.26766,17.09289 -20.39075,29.14135 -8.48066,50.20943 -1.78096,102.20984 15.65424,149.77277 9.59484,26.57937 20.14475,53.78129 38.73651,75.39838 11.76037,13.37369 30.9021,24.45131 48.78125,17.125 22.49756,-7.90964 37.00556,-30.42455 41.96875,-53.03125 9.65523,-40.28377 -3.10053,-82.23362 -23.97939,-116.78836 -19.41265,-32.50595 -44.29746,-61.46944 -71.75038,-87.20412 -8.23271,-7.03199 -17.54953,-14.83034 -29.02023,-14.41377 z"
       id="path3725"
       inkscape:connector-curvature="0" />
    <path
       style="fill:#ffffff;stroke:none;display:inline"
       d="m 366.9252,292.17956 c 0,0 -19.40273,4.74088 -26.6127,6.32044 19.56391,8.65454 34.81199,28.00456 35.34375,49.875 0.52231,5.14898 0.6391,10.32837 0.71875,15.5 47.95442,29.10827 101.2119,48.54536 155.94878,60.38722 23.76282,5.37898 47.85325,9.21284 72.20747,10.17528 -0.7108,-9.86806 0.80391,-19.85729 1.8125,-29.53125 -54.35686,1.13929 -108.48846,-14.45815 -155.94269,-39.41211 -32.77777,-17.2363 -61.43379,-45.8682 -83.47586,-73.31458 z"
       id="path3723"
       inkscape:connector-curvature="0" />
    <path
       style="fill:#ffffff;stroke:none;display:inline"
       d="m 702.59375,358.90625 c -5.31551,4.49209 -10.86743,8.57975 -16.53125,12.625 12.22247,12.65548 24.0156,26.64324 34.4375,40.3125 9.14651,-4.90955 13.39034,-16.9975 7.9375,-26.0625 C 723.64706,374.0622 714.51588,363.8243 703.125,358.4375 l -0.53125,0.46875 z"
       id="path3719"
       inkscape:connector-curvature="0" />
    <path
       style="fill:#ffffff;stroke:none;display:inline"
       d="m 527.625,3.625 c -38.54596,0.2132879 -78.00556,9.006091 -109.25,32.5 -41.41863,28.922294 -69.95722,76.00145 -74.28125,126.53125 -4.21718,38.53176 11.6216,76.14703 30.49162,108.7094 17.03018,29.38752 42.31886,55.17733 71.4414,72.65677 48.01997,28.82171 83.78264,48.19116 161.12948,47.61052 0.62102,-2.90262 1.28508,-8.72894 2.28125,-11.53919 -47.28233,3.0796 -95.8292,-8.86993 -135.15625,-35.21875 -25.92322,-18.20767 -46.30662,-48.18592 -44.21875,-81 2.41624,-25.97777 21.10935,-46.54612 40.125,-62.625 38.35736,-31.21888 89.42307,-41.59165 137.99994,-41.35962 41.22746,-0.48898 85.49186,4.4641 119.21881,29.89087 11.68358,9.20766 21.32319,21.62796 25.59375,36.0625 2.69272,-39.26566 -5.40566,-78.77485 -19.98495,-115.05289 C 721.19624,82.410962 701.11179,57.896986 674.83214,41.990016 631.52405,13.778565 578.93111,3.0764453 527.625,3.625 z"
       id="path3717"
       inkscape:connector-curvature="0" />
    <path
       style="fill:#ffffff;stroke:none;display:inline"
       d="m 481.96875,274.78125 c -48.97041,1.04486 -100.56318,14.78546 -135.6875,50.34375 -15.38669,15.9428 -26.77165,39.41843 -20,61.84375 9.52819,31.47358 38.61142,51.92532 67.5,64.375 33.9361,14.61069 72.58335,21.31889 108.96875,12.4375 7.27952,-5.86456 16.48372,-15.90348 26.625,-10.96875 10.85228,4.53789 23.64363,3.41307 33.375,-3.21875 41.06385,-20.07922 66.65553,-69.55971 56.03125,-114.75 -5.8644,-22.27198 -24.27062,-39.47026 -45.84375,-46.625 -28.75714,-11.47407 -60.29271,-13.04513 -90.96875,-13.4375 z m -66.9375,68.34375 c 3.31501,-0.0735 6.63615,0.20233 9.90625,0.84375 21.69451,4.25532 38.18155,21.91414 45.25,48.46875 -3.61202,-2.89306 -7.06068,-5.9592 -11,-8.53125 -26.1206,-17.46915 -61.44999,-18.28107 -92.34375,-13.125 12.2861,-16.77481 30.28646,-27.25957 48.1875,-27.65625 z m 127.125,17.34375 c 5.00421,-0.0998 10.10822,0.53542 15.34375,1.78125 10.25907,2.44122 21.47052,17.54227 19.25,25.09375 -15.3399,-9.92629 -61.73817,-9.37378 -85.75,6.96875 16.67481,-23.8453 33.28407,-33.4873 51.15625,-33.84375 z"
       transform="translate(119.22743,-100.68078)"
       id="path3715"
       inkscape:connector-curvature="0" />
  </g>
</svg>
