  0
SECTION
  2
HEADER
  9
$ACADVER
  1
AC1014
  9
$HANDSEED
  5
FFFF
  9
$MEASUREMENT
 70
     1
  0
ENDSEC
  0
SECTION
  2
TABLES
  0
TABLE
  2
VPORT
  5
8
330
0
100
AcDbSymbolTable
 70
     4
  0
VPORT
  5
2E
330
8
100
AcDbSymbolTableRecord
100
AcDbViewportTableRecord
  2
*ACTIVE
 70
     0
 10
0.0
 20
0.0
 11
1.0
 21
1.0
 12
210.0
 22
148.5
 13
0.0
 23
0.0
 14
10.0
 24
10.0
 15
10.0
 25
10.0
 16
0.0
 26
0.0
 36
1.0
 17
0.0
 27
0.0
 37
0.0
 40
341.0
 41
1.24
 42
50.0
 43
0.0
 44
0.0
 50
0.0
 51
0.0
 71
     0
 72
   100
 73
     1
 74
     3
 75
     0
 76
     0
 77
     0
 78
     0
  0
ENDTAB
  0
TABLE
  2
LTYPE
  5
5
330
0
100
AcDbSymbolTable
 70
     1
  0
LTYPE
  5
14
330
5
100
AcDbSymbolTableRecord
100
AcDbLinetypeTableRecord
  2
BYBLOCK
 70
     0
  3

 72
    65
 73
     0
 40
0.0
  0
LTYPE
  5
15
330
5
100
AcDbSymbolTableRecord
100
AcDbLinetypeTableRecord
  2
BYLAYER
 70
     0
  3

 72
    65
 73
     0
 40
0.0
  0
LTYPE
  5
16
330
5
100
AcDbSymbolTableRecord
100
AcDbLinetypeTableRecord
  2
CONTINUOUS
 70
     0
  3
Solid line
 72
    65
 73
     0
 40
0.0
  0
ENDTAB
  0
TABLE
  2
LAYER
  5
2
100
AcDbSymbolTable
 70
3
  0
LAYER
  5
50
100
AcDbSymbolTableRecord
100
AcDbLayerTableRecord
  2
0
 70
0
  6
CONTINUOUS
  0
LAYER
  5
51
100
AcDbSymbolTableRecord
100
AcDbLayerTableRecord
  2
Base
 70
0
  6
CONTINUOUS
  0
LAYER
  5
52
100
AcDbSymbolTableRecord
100
AcDbLayerTableRecord
  2
Medium_Features
 70
0
  6
CONTINUOUS
  0
ENDTAB
  0
TABLE
  2
STYLE
  5
3
330
0
100
AcDbSymbolTable
 70
     1
  0
STYLE
  5
11
330
3
100
AcDbSymbolTableRecord
100
AcDbTextStyleTableRecord
  2
STANDARD
 70
     0
 40
0.0
 41
1.0
 50
0.0
 71
     0
 42
2.5
  3
txt
  4

  0
ENDTAB
  0
TABLE
  2
VIEW
  5
6
330
0
100
AcDbSymbolTable
 70
     0
  0
ENDTAB
  0
TABLE
  2
UCS
  5
7
330
0
100
AcDbSymbolTable
 70
     0
  0
ENDTAB
  0
TABLE
  2
APPID
  5
9
330
0
100
AcDbSymbolTable
 70
     2
  0
APPID
  5
12
330
9
100
AcDbSymbolTableRecord
100
AcDbRegAppTableRecord
  2
ACAD
 70
     0
  0
ENDTAB
  0
TABLE
  2
DIMSTYLE
  5
A
330
0
100
AcDbSymbolTable
 70
     1
  0
DIMSTYLE
105
27
330
A
100
AcDbSymbolTableRecord
100
AcDbDimStyleTableRecord
  2
ISO-25
 70
     0
  3

  4

  5

  6

  7

 40
1.0
 41
2.5
 42
0.625
 43
3.75
 44
1.25
 45
0.0
 46
0.0
 47
0.0
 48
0.0
140
2.5
141
2.5
142
0.0
143
0.03937007874016
144
1.0
145
0.0
146
1.0
147
0.625
 71
     0
 72
     0
 73
     0
 74
     0
 75
     0
 76
     0
 77
     1
 78
     8
170
     0
171
     3
172
     1
173
     0
174
     0
175
     0
176
     0
177
     0
178
     0
270
     2
271
     2
272
     2
273
     2
274
     3
340
11
275
     0
280
     0
281
     0
282
     0
283
     0
284
     8
285
     0
286
     0
287
     3
288
     0
  0
ENDTAB
  0
TABLE
  2
BLOCK_RECORD
  5
1
330
0
100
AcDbSymbolTable
 70
     1
  0
BLOCK_RECORD
  5
1F
330
1
100
AcDbSymbolTableRecord
100
AcDbBlockTableRecord
  2
*MODEL_SPACE
  0
BLOCK_RECORD
  5
1B
330
1
100
AcDbSymbolTableRecord
100
AcDbBlockTableRecord
  2
*PAPER_SPACE
  0
ENDTAB
  0
ENDSEC
  0
SECTION
  2
BLOCKS
  0
BLOCK
  5
20
330
1F
100
AcDbEntity
  8
0
100
AcDbBlockBegin
  2
*MODEL_SPACE
 70
     0
 10
0.0
 20
0.0
 30
0.0
  3
*MODEL_SPACE
  1

  0
ENDBLK
  5
21
330
1F
100
AcDbEntity
  8
0
100
AcDbBlockEnd
  0
BLOCK
  5
1C
330
1B
100
AcDbEntity
 67
     1
  8
0
100
AcDbBlockBegin
  2
*PAPER_SPACE
  1

  0
ENDBLK
  5
1D
330
1B
100
AcDbEntity
 67
     1
  8
0
100
AcDbBlockEnd
  0
ENDSEC
  0
SECTION
  2
ENTITIES
  0
SPLINE
  5
100
100
AcDbEntity
  8
Base
 62
7
100
AcDbSpline
 70
8
 71
3
 72
8
 73
4
 74
0
 40
0
 40
0
 40
0
 40
0
 40
1
 40
1
 40
1
 40
1
 10
324.150000
 20
826.264760
 30
0.0
 10
231.951592
 20
827.397733
 30
0.0
 10
143.592328
 20
760.817504
 30
0.0
 10
120.075000
 20
671.589760
 30
0.0
  0
SPLINE
  5
101
100
AcDbEntity
  8
Base
 62
7
100
AcDbSpline
 70
8
 71
3
 72
8
 73
4
 74
0
 40
0
 40
0
 40
0
 40
0
 40
1
 40
1
 40
1
 40
1
 10
120.075000
 20
671.589760
 30
0.0
 10
110.982400
 20
638.260624
 30
0.0
 10
110.409272
 20
602.436160
 30
0.0
 10
118.975000
 20
568.939760
 30
0.0
  0
SPLINE
  5
102
100
AcDbEntity
  8
Base
 62
7
100
AcDbSpline
 70
8
 71
3
 72
8
 73
4
 74
0
 40
0
 40
0
 40
0
 40
0
 40
1
 40
1
 40
1
 40
1
 10
118.975000
 20
568.939760
 30
0.0
 10
83.611568
 20
549.083344
 30
0.0
 10
60.783891
 20
512.533824
 30
0.0
 10
48.840897
 20
474.540624
 30
0.0
  0
SPLINE
  5
103
100
AcDbEntity
  8
Base
 62
7
100
AcDbSpline
 70
8
 71
3
 72
8
 73
4
 74
0
 40
0
 40
0
 40
0
 40
0
 40
1
 40
1
 40
1
 40
1
 10
48.840897
 20
474.540624
 30
0.0
 10
23.860492
 20
408.413888
 30
0.0
 10
5.575236
 20
337.881168
 30
0.0
 10
10.825000
 20
266.614760
 30
0.0
  0
SPLINE
  5
104
100
AcDbEntity
  8
Base
 62
7
100
AcDbSpline
 70
8
 71
3
 72
8
 73
4
 74
0
 40
0
 40
0
 40
0
 40
0
 40
1
 40
1
 40
1
 40
1
 10
10.825000
 20
266.614760
 30
0.0
 10
13.378582
 20
238.987608
 30
0.0
 10
18.975674
 20
210.439480
 30
0.0
 10
34.491153
 20
187.058280
 30
0.0
  0
SPLINE
  5
105
100
AcDbEntity
  8
Base
 62
7
100
AcDbSpline
 70
8
 71
3
 72
8
 73
4
 74
0
 40
0
 40
0
 40
0
 40
0
 40
1
 40
1
 40
1
 40
1
 10
34.491153
 20
187.058280
 30
0.0
 10
53.023384
 20
163.465960
 30
0.0
 10
88.836120
 20
153.132584
 30
0.0
 10
116.125000
 20
167.339760
 30
0.0
  0
SPLINE
  5
106
100
AcDbEntity
  8
Base
 62
7
100
AcDbSpline
 70
8
 71
3
 72
8
 73
4
 74
0
 40
0
 40
0
 40
0
 40
0
 40
1
 40
1
 40
1
 40
1
 10
116.125000
 20
167.339760
 30
0.0
 10
126.706280
 20
132.662048
 30
0.0
 10
143.486400
 20
99.343720
 30
0.0
 10
167.412984
 20
71.843904
 30
0.0
  0
SPLINE
  5
107
100
AcDbEntity
  8
Base
 62
7
100
AcDbSpline
 70
8
 71
3
 72
8
 73
4
 74
0
 40
0
 40
0
 40
0
 40
0
 40
1
 40
1
 40
1
 40
1
 10
167.412984
 20
71.843904
 30
0.0
 10
189.339304
 20
46.613144
 30
0.0
 10
218.322056
 20
26.395840
 30
0.0
 10
251.482240
 20
19.572160
 30
0.0
  0
SPLINE
  5
108
100
AcDbEntity
  8
Base
 62
7
100
AcDbSpline
 70
8
 71
3
 72
8
 73
4
 74
0
 40
0
 40
0
 40
0
 40
0
 40
1
 40
1
 40
1
 40
1
 10
251.482240
 20
19.572160
 30
0.0
 10
282.752264
 20
12.510720
 30
0.0
 10
316.353048
 20
16.679040
 30
0.0
 10
344.748192
 20
31.331840
 30
0.0
  0
SPLINE
  5
109
100
AcDbEntity
  8
Base
 62
7
100
AcDbSpline
 70
8
 71
3
 72
8
 73
4
 74
0
 40
0
 40
0
 40
0
 40
0
 40
1
 40
1
 40
1
 40
1
 10
344.748192
 20
31.331840
 30
0.0
 10
382.974032
 20
49.619632
 30
0.0
 10
412.258200
 20
82.109496
 30
0.0
 10
434.233184
 20
117.657032
 30
0.0
  0
SPLINE
  5
10a
100
AcDbEntity
  8
Base
 62
7
100
AcDbSpline
 70
8
 71
3
 72
8
 73
4
 74
0
 40
0
 40
0
 40
0
 40
0
 40
1
 40
1
 40
1
 40
1
 10
434.233184
 20
117.657032
 30
0.0
 10
448.868800
 20
138.682728
 30
0.0
 10
462.030264
 20
160.889128
 30
0.0
 10
475.125000
 20
182.739760
 30
0.0
  0
SPLINE
  5
10b
100
AcDbEntity
  8
Base
 62
7
100
AcDbSpline
 70
8
 71
3
 72
8
 73
4
 74
0
 40
0
 40
0
 40
0
 40
0
 40
1
 40
1
 40
1
 40
1
 10
475.125000
 20
182.739760
 30
0.0
 10
521.517832
 20
182.415136
 30
0.0
 10
564.339720
 20
216.687328
 30
0.0
 10
576.804640
 20
260.915552
 30
0.0
  0
SPLINE
  5
10c
100
AcDbEntity
  8
Base
 62
7
100
AcDbSpline
 70
8
 71
3
 72
8
 73
4
 74
0
 40
0
 40
0
 40
0
 40
0
 40
1
 40
1
 40
1
 40
1
 10
576.804640
 20
260.915552
 30
0.0
 10
595.493600
 20
312.401144
 30
0.0
 10
585.484680
 20
371.939792
 30
0.0
 10
555.450000
 20
417.039760
 30
0.0
  0
SPLINE
  5
10d
100
AcDbEntity
  8
Base
 62
7
100
AcDbSpline
 70
8
 71
3
 72
8
 73
4
 74
0
 40
0
 40
0
 40
0
 40
0
 40
1
 40
1
 40
1
 40
1
 10
555.450000
 20
417.039760
 30
0.0
 10
552.058952
 20
422.648936
 30
0.0
 10
552.926960
 20
429.246360
 30
0.0
 10
554.323536
 20
435.286376
 30
0.0
  0
SPLINE
  5
10e
100
AcDbEntity
  8
Base
 62
7
100
AcDbSpline
 70
8
 71
3
 72
8
 73
4
 74
0
 40
0
 40
0
 40
0
 40
0
 40
1
 40
1
 40
1
 40
1
 10
554.323536
 20
435.286376
 30
0.0
 10
556.003720
 20
451.888144
 30
0.0
 10
552.791136
 20
468.908808
 30
0.0
 10
545.325000
 20
483.739760
 30
0.0
  0
SPLINE
  5
10f
100
AcDbEntity
  8
Base
 62
7
100
AcDbSpline
 70
8
 71
3
 72
8
 73
4
 74
0
 40
0
 40
0
 40
0
 40
0
 40
1
 40
1
 40
1
 40
1
 10
545.325000
 20
483.739760
 30
0.0
 10
580.296672
 20
544.017856
 30
0.0
 10
582.677720
 20
620.391888
 30
0.0
 10
557.953272
 20
684.910432
 30
0.0
  0
SPLINE
  5
110
100
AcDbEntity
  8
Base
 62
7
100
AcDbSpline
 70
8
 71
3
 72
8
 73
4
 74
0
 40
0
 40
0
 40
0
 40
0
 40
1
 40
1
 40
1
 40
1
 10
557.953272
 20
684.910432
 30
0.0
 10
534.331832
 20
749.129408
 30
0.0
 10
477.246224
 20
799.582454
 30
0.0
 10
410.680512
 20
815.358604
 30
0.0
  0
SPLINE
  5
111
100
AcDbEntity
  8
Base
 62
7
100
AcDbSpline
 70
8
 71
3
 72
8
 73
4
 74
0
 40
0
 40
0
 40
0
 40
0
 40
1
 40
1
 40
1
 40
1
 10
410.680512
 20
815.358604
 30
0.0
 10
382.582760
 20
823.228686
 30
0.0
 10
353.338864
 20
826.647539
 30
0.0
 10
324.150000
 20
826.264760
 30
0.0
  0
LWPOLYLINE
  5
112
100
AcDbEntity
  8
Base
 62
7
100
AcDbPolyline
 90
2
 70
1
 10
324.150000
 20
826.264760
 30
0.0
 10
324.150000
 20
826.264760
 30
0.0
  0
LWPOLYLINE
  5
113
100
AcDbEntity
  8
Medium_Features
 62
7
100
AcDbPolyline
 90
162
 70
0
 10
329.218056
 20
769.470136
 30
0.0
 10
347.313129
 20
768.888869
 30
0.0
 10
365.368319
 20
767.000440
 30
0.0
 10
383.228381
 20
763.749951
 30
0.0
 10
400.738064
 20
759.082502
 30
0.0
 10
417.742121
 20
752.943195
 30
0.0
 10
434.085305
 20
745.277131
 30
0.0
 10
449.612365
 20
736.029411
 30
0.0
 10
464.168056
 20
725.145136
 30
0.0
 10
475.665574
 20
713.564325
 30
0.0
 10
485.658026
 20
700.782561
 30
0.0
 10
494.194728
 20
686.985078
 30
0.0
 10
501.324996
 20
672.357112
 30
0.0
 10
507.098147
 20
657.083899
 30
0.0
 10
511.563496
 20
641.350675
 30
0.0
 10
514.770360
 20
625.342675
 30
0.0
 10
516.768056
 20
609.245136
 30
0.0
 10
517.515766
 20
597.577865
 30
0.0
 10
517.459065
 20
585.902941
 30
0.0
 10
516.592898
 20
574.277551
 30
0.0
 10
514.912206
 20
562.758881
 30
0.0
 10
512.411933
 20
551.404118
 30
0.0
 10
509.087022
 20
540.270449
 30
0.0
 10
504.932415
 20
529.415059
 30
0.0
 10
499.943056
 20
518.895136
 30
0.0
 10
494.177531
 20
508.398158
 30
0.0
 10
487.452506
 20
498.463796
 30
0.0
 10
479.729007
 20
489.307605
 30
0.0
 10
470.968056
 20
481.145136
 30
0.0
 10
480.758770
 20
473.936511
 30
0.0
 10
485.339491
 20
469.771622
 30
0.0
 10
489.482832
 20
465.223140
 30
0.0
 10
493.018076
 20
460.283657
 30
0.0
 10
495.774506
 20
454.945767
 30
0.0
 10
497.581405
 20
449.202062
 30
0.0
 10
498.268056
 20
443.045136
 30
0.0
 10
497.282295
 20
436.437094
 30
0.0
 10
494.372331
 20
430.476053
 30
0.0
 10
489.997730
 20
425.387054
 30
0.0
 10
484.618056
 20
421.395136
 30
0.0
 10
492.487456
 20
411.147215
 30
0.0
 10
499.900278
 20
400.498933
 30
0.0
 10
506.742617
 20
389.461935
 30
0.0
 10
512.900564
 20
378.047866
 30
0.0
 10
518.260213
 20
366.268371
 30
0.0
 10
522.707656
 20
354.135094
 30
0.0
 10
526.128986
 20
341.659681
 30
0.0
 10
528.410296
 20
328.853776
 30
0.0
 10
529.335908
 20
320.874782
 30
0.0
 10
529.616035
 20
312.834007
 30
0.0
 10
529.239543
 20
304.797132
 30
0.0
 10
528.195295
 20
296.829841
 30
0.0
 10
526.472157
 20
288.997814
 30
0.0
 10
524.058995
 20
281.366733
 30
0.0
 10
520.944673
 20
274.002280
 30
0.0
 10
517.118056
 20
266.970136
 30
0.0
 10
513.774586
 20
261.488901
 30
0.0
 10
509.858039
 20
256.301809
 30
0.0
 10
505.407147
 20
251.555982
 30
0.0
 10
500.460639
 20
247.398544
 30
0.0
 10
495.057246
 20
243.976617
 30
0.0
 10
489.235697
 20
241.437325
 30
0.0
 10
483.034724
 20
239.927790
 30
0.0
 10
476.493056
 20
239.595136
 30
0.0
 10
468.124123
 20
240.533191
 30
0.0
 10
460.154570
 20
243.085405
 30
0.0
 10
452.835510
 20
247.136235
 30
0.0
 10
446.418056
 20
252.570136
 30
0.0
 10
434.359688
 20
227.090877
 30
0.0
 10
420.957014
 20
202.295878
 30
0.0
 10
406.317251
 20
178.190630
 30
0.0
 10
390.547616
 20
154.780624
 30
0.0
 10
376.530497
 20
134.165670
 30
0.0
 10
369.064994
 20
124.114532
 30
0.0
 10
361.139659
 20
114.478699
 30
0.0
 10
352.638092
 20
105.441480
 30
0.0
 10
343.443890
 20
97.186183
 30
0.0
 10
333.440652
 20
89.896117
 30
0.0
 10
322.511976
 20
83.754592
 30
0.0
 10
314.026046
 20
79.872434
 30
0.0
 10
305.139725
 20
76.744471
 30
0.0
 10
295.969611
 20
74.466333
 30
0.0
 10
286.632300
 20
73.133653
 30
0.0
 10
277.244391
 20
72.842062
 30
0.0
 10
267.922483
 20
73.687191
 30
0.0
 10
258.783172
 20
75.764672
 30
0.0
 10
249.943056
 20
79.170136
 30
0.0
 10
241.423583
 20
83.572154
 30
0.0
 10
233.332053
 20
88.671978
 30
0.0
 10
225.673795
 20
94.403900
 30
0.0
 10
218.454135
 20
100.702210
 30
0.0
 10
211.678403
 20
107.501198
 30
0.0
 10
205.351927
 20
114.735155
 30
0.0
 10
194.068056
 20
130.245136
 30
0.0
 10
187.400492
 20
142.018228
 30
0.0
 10
181.565533
 20
154.179236
 30
0.0
 10
176.462544
 20
166.665276
 30
0.0
 10
171.990893
 20
179.413463
 30
0.0
 10
164.539073
 20
205.444741
 30
0.0
 10
158.405008
 20
231.769992
 30
0.0
 10
150.657128
 20
274.019995
 30
0.0
 10
143.743056
 20
316.420136
 30
0.0
 10
133.790023
 20
293.650906
 30
0.0
 10
124.467878
 20
270.539042
 30
0.0
 10
114.193446
 20
247.944783
 30
0.0
 10
108.204380
 20
237.110580
 30
0.0
 10
101.383552
 20
226.728368
 30
0.0
 10
97.858022
 20
222.762881
 30
0.0
 10
93.518037
 20
219.311252
 30
0.0
 10
91.128433
 20
218.143022
 30
0.0
 10
88.638185
 20
217.541123
 30
0.0
 10
86.081618
 20
217.651509
 30
0.0
 10
83.493056
 20
218.620136
 30
0.0
 10
80.940650
 20
220.701108
 30
0.0
 10
78.829604
 20
223.159441
 30
0.0
 10
75.672065
 20
228.905900
 30
0.0
 10
73.501383
 20
235.254933
 30
0.0
 10
71.798504
 20
241.601960
 30
0.0
 10
68.462175
 20
262.170351
 30
0.0
 10
66.853599
 20
282.864879
 30
0.0
 10
66.824038
 20
303.613597
 30
0.0
 10
68.224752
 20
324.344555
 30
0.0
 10
70.907003
 20
344.985805
 30
0.0
 10
74.722053
 20
365.465399
 30
0.0
 10
79.521162
 20
385.711388
 30
0.0
 10
85.155592
 20
405.651824
 30
0.0
 10
97.505777
 20
442.839777
 30
0.0
 10
104.412643
 20
461.166494
 30
0.0
 10
112.093056
 20
479.145136
 30
0.0
 10
119.690203
 20
492.893800
 30
0.0
 10
124.152908
 20
499.370657
 30
0.0
 10
129.110377
 20
505.416361
 30
0.0
 10
134.601619
 20
510.906287
 30
0.0
 10
140.665641
 20
515.715809
 30
0.0
 10
147.341450
 20
519.720301
 30
0.0
 10
154.668056
 20
522.795136
 30
0.0
 10
165.403483
 20
526.439067
 30
0.0
 10
176.374199
 20
529.264239
 30
0.0
 10
198.618056
 20
533.920136
 30
0.0
 10
190.938015
 20
545.311977
 30
0.0
 10
184.268235
 20
557.351674
 30
0.0
 10
178.706343
 20
569.936680
 30
0.0
 10
174.349969
 20
582.964446
 30
0.0
 10
171.296740
 20
596.332425
 30
0.0
 10
169.644283
 20
609.938069
 30
0.0
 10
169.490227
 20
623.678830
 30
0.0
 10
170.932200
 20
637.452160
 30
0.0
 10
174.717029
 20
655.034723
 30
0.0
 10
180.557694
 20
672.028915
 30
0.0
 10
188.314354
 20
688.247360
 30
0.0
 10
197.847164
 20
703.502679
 30
0.0
 10
209.016282
 20
717.607493
 30
0.0
 10
221.681866
 20
730.374426
 30
0.0
 10
235.704071
 20
741.616100
 30
0.0
 10
250.943056
 20
751.145136
 30
0.0
 10
260.087088
 20
755.531396
 30
0.0
 10
269.488083
 20
759.275750
 30
0.0
 10
279.109038
 20
762.399774
 30
0.0
 10
288.912947
 20
764.925045
 30
0.0
 10
308.921615
 20
768.265635
 30
0.0
 10
329.218056
 20
769.470136
 30
0.0
 10
329.218056
 20
769.470136
 30
0.0
  0
LWPOLYLINE
  5
114
100
AcDbEntity
  8
Medium_Features
 62
7
100
AcDbPolyline
 90
70
 70
0
 10
205.193056
 20
455.420136
 30
0.0
 10
200.912062
 20
437.478365
 30
0.0
 10
195.670539
 20
419.834284
 30
0.0
 10
189.621037
 20
402.448588
 30
0.0
 10
182.916104
 20
385.281969
 30
0.0
 10
168.150145
 20
351.448737
 30
0.0
 10
152.593056
 20
318.020136
 30
0.0
 10
152.609372
 20
312.278894
 30
0.0
 10
153.564696
 20
306.641997
 30
0.0
 10
154.770514
 20
301.010754
 30
0.0
 10
155.538312
 20
295.286472
 30
0.0
 10
162.308491
 20
256.808124
 30
0.0
 10
170.419444
 20
218.546925
 30
0.0
 10
175.382350
 20
199.673082
 30
0.0
 10
181.166017
 20
181.063916
 30
0.0
 10
187.932300
 20
162.789557
 30
0.0
 10
195.843056
 20
144.920136
 30
0.0
 10
201.321713
 20
135.261947
 30
0.0
 10
207.541820
 20
126.019191
 30
0.0
 10
214.479004
 20
117.291572
 30
0.0
 10
222.108893
 20
109.178792
 30
0.0
 10
230.407115
 20
101.780555
 30
0.0
 10
239.349298
 20
95.196565
 30
0.0
 10
248.911069
 20
89.526524
 30
0.0
 10
259.068056
 20
84.870136
 30
0.0
 10
265.568322
 20
82.849475
 30
0.0
 10
272.205213
 20
81.583207
 30
0.0
 10
278.922903
 20
81.031765
 30
0.0
 10
285.665562
 20
81.155581
 30
0.0
 10
292.377362
 20
81.915088
 30
0.0
 10
299.002476
 20
83.270720
 30
0.0
 10
311.769328
 20
87.612088
 30
0.0
 10
318.566421
 20
90.716153
 30
0.0
 10
324.994153
 20
94.401976
 30
0.0
 10
336.838025
 20
103.237109
 30
0.0
 10
347.493922
 20
113.553907
 30
0.0
 10
357.154824
 20
124.788792
 30
0.0
 10
368.903980
 20
139.624605
 30
0.0
 10
379.988453
 20
154.940932
 30
0.0
 10
390.487369
 20
170.668405
 30
0.0
 10
400.479856
 20
186.737659
 30
0.0
 10
419.262051
 20
219.624039
 30
0.0
 10
436.968056
 20
253.045136
 30
0.0
 10
437.477127
 20
254.168453
 30
0.0
 10
437.395326
 20
255.206465
 30
0.0
 10
436.042812
 20
257.119573
 30
0.0
 10
434.077920
 20
258.970463
 30
0.0
 10
432.668056
 20
260.945136
 30
0.0
 10
425.975473
 20
270.290270
 30
0.0
 10
420.020343
 20
280.106971
 30
0.0
 10
414.723952
 20
290.319973
 30
0.0
 10
410.007584
 20
300.854008
 30
0.0
 10
402.000061
 20
322.584109
 30
0.0
 10
395.368056
 20
344.695136
 30
0.0
 10
392.360731
 20
358.895195
 30
0.0
 10
390.073583
 20
373.198655
 30
0.0
 10
388.433672
 20
387.594105
 30
0.0
 10
387.368056
 20
402.070136
 30
0.0
 10
370.648505
 20
403.230698
 30
0.0
 10
354.062503
 20
405.354646
 30
0.0
 10
337.606789
 20
408.317785
 30
0.0
 10
321.278102
 20
411.995919
 30
0.0
 10
288.988770
 20
421.000393
 30
0.0
 10
257.168424
 20
431.374504
 30
0.0
 10
243.772237
 20
436.595785
 30
0.0
 10
230.620199
 20
442.374514
 30
0.0
 10
217.767181
 20
448.764646
 30
0.0
 10
205.268056
 20
455.820136
 30
0.0
 10
205.193096
 20
455.420136
 30
0.0
 10
205.193056
 20
455.420136
 30
0.0
  0
LWPOLYLINE
  5
115
100
AcDbEntity
  8
Medium_Features
 62
7
100
AcDbPolyline
 90
55
 70
0
 10
156.643016
 20
513.145136
 30
0.0
 10
156.667976
 20
513.145136
 30
0.0
 10
161.978225
 20
512.771724
 30
0.0
 10
167.126614
 20
511.408735
 30
0.0
 10
172.039434
 20
509.251447
 30
0.0
 10
176.642976
 20
506.495136
 30
0.0
 10
176.667936
 20
506.470176
 30
0.0
 10
180.901394
 20
503.603489
 30
0.0
 10
184.533626
 20
500.130532
 30
0.0
 10
187.572520
 20
496.149234
 30
0.0
 10
190.025961
 20
491.757525
 30
0.0
 10
191.901837
 20
487.053335
 30
0.0
 10
193.208034
 20
482.134593
 30
0.0
 10
194.142936
 20
472.045176
 30
0.0
 10
194.142936
 20
472.020216
 30
0.0
 10
193.338927
 20
462.388651
 30
0.0
 10
191.847452
 20
452.867648
 30
0.0
 10
187.173972
 20
434.139955
 30
0.0
 10
180.866224
 20
415.802392
 30
0.0
 10
173.667936
 20
397.820216
 30
0.0
 10
173.667936
 20
397.795256
 30
0.0
 10
147.397345
 20
339.657882
 30
0.0
 10
121.517936
 20
281.295256
 30
0.0
 10
121.517936
 20
281.270296
 30
0.0
 10
110.170706
 20
255.586422
 30
0.0
 10
103.814351
 20
243.163385
 30
0.0
 10
96.092936
 20
231.570296
 30
0.0
 10
96.117896
 20
231.545336
 30
0.0
 10
92.242896
 20
227.120336
 30
0.0
 10
90.092896
 20
225.770336
 30
0.0
 10
88.957949
 20
225.715522
 30
0.0
 10
87.667896
 20
226.245336
 30
0.0
 10
84.378827
 20
231.098694
 30
0.0
 10
81.969921
 20
236.547648
 30
0.0
 10
78.667896
 20
248.070336
 30
0.0
 10
78.667896
 20
248.095296
 30
0.0
 10
75.799913
 20
270.911758
 30
0.0
 10
74.986922
 20
293.929337
 30
0.0
 10
76.114418
 20
316.948645
 30
0.0
 10
79.067896
 20
339.770296
 30
0.0
 10
87.446859
 20
377.778856
 30
0.0
 10
92.418934
 20
396.616265
 30
0.0
 10
98.013993
 20
415.266951
 30
0.0
 10
104.307977
 20
433.674305
 30
0.0
 10
111.376828
 20
451.781719
 30
0.0
 10
119.296487
 20
469.532585
 30
0.0
 10
128.142896
 20
486.870296
 30
0.0
 10
128.117936
 20
486.870296
 30
0.0
 10
133.417568
 20
495.461232
 30
0.0
 10
139.667936
 20
503.570296
 30
0.0
 10
143.270402
 20
507.033340
 30
0.0
 10
147.263101
 20
509.889482
 30
0.0
 10
151.701968
 20
511.979781
 30
0.0
 10
156.642936
 20
513.145296
 30
0.0
 10
156.643016
 20
513.145136
 30
0.0
  0
LWPOLYLINE
  5
116
100
AcDbEntity
  8
Medium_Features
 62
7
100
AcDbPolyline
 90
52
 70
0
 10
419.643056
 20
465.945136
 30
0.0
 10
415.905809
 20
464.833829
 30
0.0
 10
412.704888
 20
462.916006
 30
0.0
 10
410.014724
 20
460.337378
 30
0.0
 10
407.809752
 20
457.243656
 30
0.0
 10
404.753119
 20
450.093776
 30
0.0
 10
403.330456
 20
442.632056
 30
0.0
 10
401.348576
 20
427.511797
 30
0.0
 10
400.463553
 20
412.315607
 30
0.0
 10
400.633716
 20
397.101876
 30
0.0
 10
401.817394
 20
381.928998
 30
0.0
 10
403.972917
 20
366.855363
 30
0.0
 10
407.058614
 20
351.939364
 30
0.0
 10
411.032814
 20
337.239393
 30
0.0
 10
415.853848
 20
322.813840
 30
0.0
 10
421.842597
 20
306.850428
 30
0.0
 10
428.649376
 20
291.165804
 30
0.0
 10
436.805693
 20
276.225522
 30
0.0
 10
441.556024
 20
269.179995
 30
0.0
 10
446.843056
 20
262.495136
 30
0.0
 10
454.898433
 20
255.016681
 30
0.0
 10
459.553932
 20
251.913289
 30
0.0
 10
464.519922
 20
249.435136
 30
0.0
 10
469.715366
 20
247.733233
 30
0.0
 10
475.059228
 20
246.958591
 30
0.0
 10
480.470470
 20
247.262222
 30
0.0
 10
485.868056
 20
248.795136
 30
0.0
 10
492.315285
 20
251.693048
 30
0.0
 10
498.148717
 20
255.550292
 30
0.0
 10
503.353771
 20
260.230803
 30
0.0
 10
507.915867
 20
265.598518
 30
0.0
 10
511.820424
 20
271.517373
 30
0.0
 10
515.052861
 20
277.851303
 30
0.0
 10
517.598599
 20
284.464245
 30
0.0
 10
519.443056
 20
291.220136
 30
0.0
 10
521.521538
 20
303.353587
 30
0.0
 10
522.053144
 20
315.527045
 30
0.0
 10
521.171824
 20
327.655562
 30
0.0
 10
519.011527
 20
339.654189
 30
0.0
 10
515.706201
 20
351.437977
 30
0.0
 10
511.389796
 20
362.921978
 30
0.0
 10
506.196261
 20
374.021243
 30
0.0
 10
500.259544
 20
384.650824
 30
0.0
 10
487.827431
 20
403.626946
 30
0.0
 10
473.971473
 20
421.563853
 30
0.0
 10
458.909475
 20
438.485070
 30
0.0
 10
442.859240
 20
454.414120
 30
0.0
 10
437.743625
 20
458.636002
 30
0.0
 10
432.222545
 20
462.414196
 30
0.0
 10
426.215766
 20
465.075106
 30
0.0
 10
419.643056
 20
465.945136
 30
0.0
 10
419.643056
 20
465.945136
 30
0.0
  0
LWPOLYLINE
  5
117
100
AcDbEntity
  8
Medium_Features
 62
7
100
AcDbPolyline
 90
40
 70
0
 10
198.158216
 20
527.601488
 30
0.0
 10
176.868056
 20
522.545136
 30
0.0
 10
182.559135
 20
519.560467
 30
0.0
 10
187.829021
 20
515.850278
 30
0.0
 10
192.580212
 20
511.491211
 30
0.0
 10
196.715201
 20
506.559906
 30
0.0
 10
200.136485
 20
501.133005
 30
0.0
 10
202.746558
 20
495.287149
 30
0.0
 10
204.447917
 20
489.098979
 30
0.0
 10
205.143056
 20
482.645136
 30
0.0
 10
205.718056
 20
470.245136
 30
0.0
 10
220.297272
 20
461.872081
 30
0.0
 10
235.238371
 20
454.204902
 30
0.0
 10
250.505506
 20
447.224137
 30
0.0
 10
266.062830
 20
440.910325
 30
0.0
 10
281.874496
 20
435.244003
 30
0.0
 10
297.904658
 20
430.205710
 30
0.0
 10
314.117468
 20
425.775983
 30
0.0
 10
330.477080
 20
421.935360
 30
0.0
 10
344.783116
 20
418.956319
 30
0.0
 10
359.182648
 20
416.540286
 30
0.0
 10
373.670890
 20
414.786734
 30
0.0
 10
388.243056
 20
413.795136
 30
0.0
 10
388.452239
 20
425.665866
 30
0.0
 10
389.693056
 20
437.420136
 30
0.0
 10
373.404527
 20
437.694445
 30
0.0
 10
357.193380
 20
439.154819
 30
0.0
 10
341.120106
 20
441.732069
 30
0.0
 10
325.245191
 20
445.357005
 30
0.0
 10
309.629125
 20
449.960438
 30
0.0
 10
294.332396
 20
455.473179
 30
0.0
 10
279.415493
 20
461.826037
 30
0.0
 10
264.938904
 20
468.949824
 30
0.0
 10
255.264033
 20
474.528391
 30
0.0
 10
245.921657
 20
480.843680
 30
0.0
 10
236.935141
 20
487.777743
 30
0.0
 10
228.327850
 20
495.212632
 30
0.0
 10
212.344398
 20
511.113096
 30
0.0
 10
198.158216
 20
527.601488
 30
0.0
 10
198.158216
 20
527.601488
 30
0.0
  0
LWPOLYLINE
  5
118
100
AcDbEntity
  8
Medium_Features
 62
7
100
AcDbPolyline
 90
17
 70
0
 10
466.693056
 20
474.220136
 30
0.0
 10
453.468056
 20
464.120136
 30
0.0
 10
467.783227
 20
448.299270
 30
0.0
 10
481.018056
 20
431.870136
 30
0.0
 10
483.570668
 20
433.596251
 30
0.0
 10
485.710635
 20
435.765109
 30
0.0
 10
488.572861
 20
441.048501
 30
0.0
 10
489.205232
 20
443.971760
 30
0.0
 10
489.245184
 20
446.955210
 30
0.0
 10
488.647773
 20
449.903215
 30
0.0
 10
487.368056
 20
452.720136
 30
0.0
 10
483.868694
 20
459.487269
 30
0.0
 10
479.223188
 20
465.557311
 30
0.0
 10
473.587616
 20
470.677515
 30
0.0
 10
467.118056
 20
474.595136
 30
0.0
 10
466.693056
 20
474.220136
 30
0.0
 10
466.693056
 20
474.220136
 30
0.0
  0
LWPOLYLINE
  5
119
100
AcDbEntity
  8
Medium_Features
 62
7
100
AcDbPolyline
 90
107
 70
0
 10
326.718056
 20
758.445136
 30
0.0
 10
315.134270
 20
758.049853
 30
0.0
 10
303.567544
 20
756.953716
 30
0.0
 10
292.103460
 20
755.099336
 30
0.0
 10
280.827600
 20
752.429322
 30
0.0
 10
269.825547
 20
748.886285
 30
0.0
 10
259.182884
 20
744.412835
 30
0.0
 10
248.985193
 20
738.951582
 30
0.0
 10
239.318056
 20
732.445136
 30
0.0
 10
227.393179
 20
723.110544
 30
0.0
 10
216.540565
 20
712.552058
 30
0.0
 10
206.866478
 20
700.907549
 30
0.0
 10
198.477176
 20
688.314888
 30
0.0
 10
191.478922
 20
674.911945
 30
0.0
 10
185.977976
 20
660.836592
 30
0.0
 10
182.080601
 20
646.226698
 30
0.0
 10
179.893056
 20
631.220136
 30
0.0
 10
179.353399
 20
619.701440
 30
0.0
 10
180.158333
 20
608.290259
 30
0.0
 10
182.148250
 20
597.025372
 30
0.0
 10
185.163544
 20
585.945559
 30
0.0
 10
189.044608
 20
575.089598
 30
0.0
 10
193.631835
 20
564.496268
 30
0.0
 10
204.286352
 20
544.252616
 30
0.0
 10
209.698186
 20
535.578638
 30
0.0
 10
215.687927
 20
527.218669
 30
0.0
 10
222.214093
 20
519.216890
 30
0.0
 10
229.235204
 20
511.617484
 30
0.0
 10
236.709778
 20
504.464631
 30
0.0
 10
244.596335
 20
497.802511
 30
0.0
 10
252.853393
 20
491.675307
 30
0.0
 10
261.439472
 20
486.127200
 30
0.0
 10
275.469942
 20
477.851550
 30
0.0
 10
289.085877
 20
470.383236
 30
0.0
 10
302.792043
 20
463.820676
 30
0.0
 10
317.093203
 20
458.262287
 30
0.0
 10
332.494120
 20
453.806486
 30
0.0
 10
349.499559
 20
450.551691
 30
0.0
 10
368.614283
 20
448.596318
 30
0.0
 10
390.343056
 20
448.038784
 30
0.0
 10
392.168056
 20
457.270136
 30
0.0
 10
377.952319
 20
456.908864
 30
0.0
 10
363.740031
 20
457.668873
 30
0.0
 10
349.629486
 20
459.544256
 30
0.0
 10
335.718972
 20
462.529110
 30
0.0
 10
322.106781
 20
466.617530
 30
0.0
 10
308.891204
 20
471.803611
 30
0.0
 10
296.170532
 20
478.081448
 30
0.0
 10
284.043056
 20
485.445136
 30
0.0
 10
276.500289
 20
491.334873
 30
0.0
 10
269.531740
 20
498.023641
 30
0.0
 10
263.296143
 20
505.427675
 30
0.0
 10
257.952229
 20
513.463213
 30
0.0
 10
253.658731
 20
522.046491
 30
0.0
 10
250.574381
 20
531.093747
 30
0.0
 10
248.857912
 20
540.521216
 30
0.0
 10
248.668056
 20
550.245136
 30
0.0
 10
249.978382
 20
557.837051
 30
0.0
 10
252.359901
 20
565.031884
 30
0.0
 10
255.663042
 20
571.838260
 30
0.0
 10
259.738233
 20
578.264803
 30
0.0
 10
264.435902
 20
584.320137
 30
0.0
 10
269.606476
 20
590.012888
 30
0.0
 10
280.768056
 20
600.345136
 30
0.0
 10
292.728082
 20
608.945073
 30
0.0
 10
305.498760
 20
616.077564
 30
0.0
 10
318.937617
 20
621.838621
 30
0.0
 10
332.902179
 20
626.324257
 30
0.0
 10
347.249973
 20
629.630484
 30
0.0
 10
361.838525
 20
631.853314
 30
0.0
 10
376.525361
 20
633.088759
 30
0.0
 10
391.168008
 20
633.432832
 30
0.0
 10
416.190345
 20
632.722016
 30
0.0
 10
428.725020
 20
631.402072
 30
0.0
 10
441.105685
 20
629.251209
 30
0.0
 10
453.205081
 20
626.128506
 30
0.0
 10
464.895948
 20
621.893040
 30
0.0
 10
476.051027
 20
616.403891
 30
0.0
 10
486.543056
 20
609.520136
 30
0.0
 10
493.205045
 20
603.528624
 30
0.0
 10
499.004462
 20
596.663200
 30
0.0
 10
503.691926
 20
589.013744
 30
0.0
 10
507.018056
 20
580.670136
 30
0.0
 10
507.427940
 20
592.453537
 30
0.0
 10
507.068900
 20
604.222628
 30
0.0
 10
505.981344
 20
615.944833
 30
0.0
 10
504.205679
 20
627.587578
 30
0.0
 10
501.782314
 20
639.118287
 30
0.0
 10
498.751656
 20
650.504385
 30
0.0
 10
491.030096
 20
672.712448
 30
0.0
 10
487.177727
 20
681.074037
 30
0.0
 10
482.724845
 20
689.101235
 30
0.0
 10
477.690860
 20
696.749593
 30
0.0
 10
472.095184
 20
703.974664
 30
0.0
 10
465.957226
 20
710.732000
 30
0.0
 10
459.296398
 20
716.977154
 30
0.0
 10
452.132108
 20
722.665677
 30
0.0
 10
444.483768
 20
727.753123
 30
0.0
 10
431.159677
 20
735.569738
 30
0.0
 10
417.238333
 20
742.131827
 30
0.0
 10
402.818843
 20
747.498067
 30
0.0
 10
388.000318
 20
751.727131
 30
0.0
 10
372.881867
 20
754.877696
 30
0.0
 10
357.562601
 20
757.008434
 30
0.0
 10
342.141627
 20
758.178023
 30
0.0
 10
326.718056
 20
758.445136
 30
0.0
 10
326.718056
 20
758.445136
 30
0.0
  0
LWPOLYLINE
  5
11a
100
AcDbEntity
  8
Medium_Features
 62
7
100
AcDbPolyline
 90
68
 70
0
 10
385.575000
 20
622.064760
 30
0.0
 10
370.815368
 20
621.260959
 30
0.0
 10
356.038035
 20
619.419459
 30
0.0
 10
341.421978
 20
616.454741
 30
0.0
 10
327.146173
 20
612.281289
 30
0.0
 10
313.389596
 20
606.813583
 30
0.0
 10
300.331224
 20
599.966105
 30
0.0
 10
288.150033
 20
591.653337
 30
0.0
 10
277.025000
 20
581.789760
 30
0.0
 10
272.581175
 20
576.737850
 30
0.0
 10
268.570181
 20
571.201445
 30
0.0
 10
265.124722
 20
565.261011
 30
0.0
 10
262.377498
 20
558.997016
 30
0.0
 10
260.461212
 20
552.489926
 30
0.0
 10
259.508565
 20
545.820209
 30
0.0
 10
259.652261
 20
539.068331
 30
0.0
 10
261.025000
 20
532.314760
 30
0.0
 10
264.585912
 20
523.281287
 30
0.0
 10
269.428299
 20
515.046141
 30
0.0
 10
275.367007
 20
507.581012
 30
0.0
 10
282.216883
 20
500.857590
 30
0.0
 10
289.792774
 20
494.847564
 30
0.0
 10
297.909526
 20
489.522624
 30
0.0
 10
306.381986
 20
484.854460
 30
0.0
 10
315.025000
 20
480.814760
 30
0.0
 10
325.371603
 20
476.739907
 30
0.0
 10
336.006170
 20
473.329808
 30
0.0
 10
346.863330
 20
470.656529
 30
0.0
 10
357.877710
 20
468.792136
 30
0.0
 10
368.983939
 20
467.808696
 30
0.0
 10
380.116645
 20
467.778276
 30
0.0
 10
391.210456
 20
468.772942
 30
0.0
 10
402.200000
 20
470.864760
 30
0.0
 10
406.844069
 20
474.770300
 30
0.0
 10
411.991472
 20
478.492047
 30
0.0
 10
414.730777
 20
479.835217
 30
0.0
 10
417.568139
 20
480.593901
 30
0.0
 10
420.494300
 20
480.588586
 30
0.0
 10
423.500000
 20
479.639760
 30
0.0
 10
430.239740
 20
477.764486
 30
0.0
 10
437.186273
 20
477.576347
 30
0.0
 10
443.964669
 20
479.063664
 30
0.0
 10
450.200000
 20
482.214760
 30
0.0
 10
456.210474
 20
485.495700
 30
0.0
 10
461.906536
 20
489.288431
 30
0.0
 10
472.258187
 20
498.251339
 30
0.0
 10
481.060479
 20
508.787628
 30
0.0
 10
488.118939
 20
520.581439
 30
0.0
 10
493.239094
 20
533.316915
 30
0.0
 10
496.226471
 20
546.678199
 30
0.0
 10
496.859595
 20
553.494814
 30
0.0
 10
496.886598
 20
560.349433
 30
0.0
 10
496.283169
 20
567.202576
 30
0.0
 10
495.025000
 20
574.014760
 30
0.0
 10
492.810010
 20
580.498325
 30
0.0
 10
489.742273
 20
586.554770
 30
0.0
 10
485.909680
 20
592.137503
 30
0.0
 10
481.400119
 20
597.199932
 30
0.0
 10
476.301481
 20
601.695464
 30
0.0
 10
470.701655
 20
605.577508
 30
0.0
 10
464.688532
 20
608.799471
 30
0.0
 10
458.350000
 20
611.314760
 30
0.0
 10
449.624351
 20
614.399250
 30
0.0
 10
440.724426
 20
616.822805
 30
0.0
 10
422.538170
 20
620.014270
 30
0.0
 10
404.064079
 20
621.543480
 30
0.0
 10
385.575000
 20
622.064760
 30
0.0
 10
385.575000
 20
622.064760
 30
0.0
  0
LWPOLYLINE
  5
11b
100
AcDbEntity
  8
Medium_Features
 62
7
100
AcDbPolyline
 90
27
 70
0
 10
332.025000
 20
567.389760
 30
0.0
 10
339.950000
 20
566.714760
 30
0.0
 10
346.256493
 20
564.942576
 30
0.0
 10
352.132947
 20
562.207389
 30
0.0
 10
357.539881
 20
558.551460
 30
0.0
 10
362.437818
 20
554.017047
 30
0.0
 10
366.787278
 20
548.646411
 30
0.0
 10
370.548781
 20
542.481811
 30
0.0
 10
373.682848
 20
535.565508
 30
0.0
 10
376.150000
 20
527.939760
 30
0.0
 10
367.350000
 20
534.764760
 30
0.0
 10
359.189810
 20
539.397561
 30
0.0
 10
350.466877
 20
542.881281
 30
0.0
 10
341.309117
 20
545.316132
 30
0.0
 10
331.844448
 20
546.802326
 30
0.0
 10
322.200785
 20
547.440074
 30
0.0
 10
312.506045
 20
547.329588
 30
0.0
 10
293.475000
 20
545.264760
 30
0.0
 10
297.366031
 20
550.055392
 30
0.0
 10
301.631129
 20
554.338663
 30
0.0
 10
306.215792
 20
558.078968
 30
0.0
 10
311.065518
 20
561.240699
 30
0.0
 10
316.125804
 20
563.788250
 30
0.0
 10
321.342148
 20
565.686015
 30
0.0
 10
326.660047
 20
566.898387
 30
0.0
 10
332.025000
 20
567.389760
 30
0.0
 10
332.025000
 20
567.389760
 30
0.0
  0
LWPOLYLINE
  5
11c
100
AcDbEntity
  8
Medium_Features
 62
7
100
AcDbPolyline
 90
26
 70
0
 10
433.725000
 20
553.514760
 30
0.0
 10
439.793104
 20
553.205949
 30
0.0
 10
446.000000
 20
552.089760
 30
0.0
 10
449.090960
 20
550.914228
 30
0.0
 10
452.118495
 20
548.978671
 30
0.0
 10
457.443877
 20
543.585338
 30
0.0
 10
460.897321
 20
537.425466
 30
0.0
 10
461.584933
 20
534.531736
 30
0.0
 10
461.400000
 20
532.014760
 30
0.0
 10
455.716849
 20
534.591393
 30
0.0
 10
448.205365
 20
536.332324
 30
0.0
 10
439.366593
 20
537.187759
 30
0.0
 10
429.701579
 20
537.107906
 30
0.0
 10
419.711368
 20
536.042972
 30
0.0
 10
409.897004
 20
533.943165
 30
0.0
 10
400.759533
 20
530.758692
 30
0.0
 10
392.800000
 20
526.439760
 30
0.0
 10
397.802061
 20
533.068410
 30
0.0
 10
402.811659
 20
538.677917
 30
0.0
 10
407.841251
 20
543.314384
 30
0.0
 10
412.903289
 20
547.023915
 30
0.0
 10
418.010229
 20
549.852614
 30
0.0
 10
423.174524
 20
551.846586
 30
0.0
 10
428.408630
 20
553.051933
 30
0.0
 10
433.725000
 20
553.514760
 30
0.0
 10
433.725000
 20
553.514760
 30
0.0
  0
ENDSEC
  0
SECTION
  2
OBJECTS
  0
DICTIONARY
  5
C
330
0
100
AcDbDictionary
  3
ACAD_GROUP
350
D
  3
ACAD_MLINESTYLE
350
17
  0
DICTIONARY
  5
D
330
C
100
AcDbDictionary
  0
DICTIONARY
  5
1A
330
C
100
AcDbDictionary
  0
DICTIONARY
  5
17
330
C
100
AcDbDictionary
  3
STANDARD
350
18
  0
DICTIONARY
  5
19
330
C
100
AcDbDictionary
  0
ENDSEC
  0
EOF
