  0
SECTION
  2
HEADER
  9
$ACADVER
  1
AC1014
  9
$HANDSEED
  5
FFFF
  9
$MEASUREMENT
 70
     1
  0
ENDSEC
  0
SECTION
  2
TABLES
  0
TABLE
  2
VPORT
  5
8
330
0
100
AcDbSymbolTable
 70
     4
  0
VPORT
  5
2E
330
8
100
AcDbSymbolTableRecord
100
AcDbViewportTableRecord
  2
*ACTIVE
 70
     0
 10
0.0
 20
0.0
 11
1.0
 21
1.0
 12
210.0
 22
148.5
 13
0.0
 23
0.0
 14
10.0
 24
10.0
 15
10.0
 25
10.0
 16
0.0
 26
0.0
 36
1.0
 17
0.0
 27
0.0
 37
0.0
 40
341.0
 41
1.24
 42
50.0
 43
0.0
 44
0.0
 50
0.0
 51
0.0
 71
     0
 72
   100
 73
     1
 74
     3
 75
     0
 76
     0
 77
     0
 78
     0
  0
ENDTAB
  0
TABLE
  2
LTYPE
  5
5
330
0
100
AcDbSymbolTable
 70
     1
  0
LTYPE
  5
14
330
5
100
AcDbSymbolTableRecord
100
AcDbLinetypeTableRecord
  2
BYBLOCK
 70
     0
  3

 72
    65
 73
     0
 40
0.0
  0
LTYPE
  5
15
330
5
100
AcDbSymbolTableRecord
100
AcDbLinetypeTableRecord
  2
BYLAYER
 70
     0
  3

 72
    65
 73
     0
 40
0.0
  0
LTYPE
  5
16
330
5
100
AcDbSymbolTableRecord
100
AcDbLinetypeTableRecord
  2
CONTINUOUS
 70
     0
  3
Solid line
 72
    65
 73
     0
 40
0.0
  0
ENDTAB
  0
TABLE
  2
LAYER
  5
2
100
AcDbSymbolTable
 70
4
  0
LAYER
  5
50
100
AcDbSymbolTableRecord
100
AcDbLayerTableRecord
  2
0
 70
0
  6
CONTINUOUS
  0
LAYER
  5
51
100
AcDbSymbolTableRecord
100
AcDbLayerTableRecord
  2
Base
 70
0
  6
CONTINUOUS
  0
LAYER
  5
52
100
AcDbSymbolTableRecord
100
AcDbLayerTableRecord
  2
Tall_Outline
 70
0
  6
CONTINUOUS
  0
LAYER
  5
53
100
AcDbSymbolTableRecord
100
AcDbLayerTableRecord
  2
Medium_Features
 70
0
  6
CONTINUOUS
  0
ENDTAB
  0
TABLE
  2
STYLE
  5
3
330
0
100
AcDbSymbolTable
 70
     1
  0
STYLE
  5
11
330
3
100
AcDbSymbolTableRecord
100
AcDbTextStyleTableRecord
  2
STANDARD
 70
     0
 40
0.0
 41
1.0
 50
0.0
 71
     0
 42
2.5
  3
txt
  4

  0
ENDTAB
  0
TABLE
  2
VIEW
  5
6
330
0
100
AcDbSymbolTable
 70
     0
  0
ENDTAB
  0
TABLE
  2
UCS
  5
7
330
0
100
AcDbSymbolTable
 70
     0
  0
ENDTAB
  0
TABLE
  2
APPID
  5
9
330
0
100
AcDbSymbolTable
 70
     2
  0
APPID
  5
12
330
9
100
AcDbSymbolTableRecord
100
AcDbRegAppTableRecord
  2
ACAD
 70
     0
  0
ENDTAB
  0
TABLE
  2
DIMSTYLE
  5
A
330
0
100
AcDbSymbolTable
 70
     1
  0
DIMSTYLE
105
27
330
A
100
AcDbSymbolTableRecord
100
AcDbDimStyleTableRecord
  2
ISO-25
 70
     0
  3

  4

  5

  6

  7

 40
1.0
 41
2.5
 42
0.625
 43
3.75
 44
1.25
 45
0.0
 46
0.0
 47
0.0
 48
0.0
140
2.5
141
2.5
142
0.0
143
0.03937007874016
144
1.0
145
0.0
146
1.0
147
0.625
 71
     0
 72
     0
 73
     0
 74
     0
 75
     0
 76
     0
 77
     1
 78
     8
170
     0
171
     3
172
     1
173
     0
174
     0
175
     0
176
     0
177
     0
178
     0
270
     2
271
     2
272
     2
273
     2
274
     3
340
11
275
     0
280
     0
281
     0
282
     0
283
     0
284
     8
285
     0
286
     0
287
     3
288
     0
  0
ENDTAB
  0
TABLE
  2
BLOCK_RECORD
  5
1
330
0
100
AcDbSymbolTable
 70
     1
  0
BLOCK_RECORD
  5
1F
330
1
100
AcDbSymbolTableRecord
100
AcDbBlockTableRecord
  2
*MODEL_SPACE
  0
BLOCK_RECORD
  5
1B
330
1
100
AcDbSymbolTableRecord
100
AcDbBlockTableRecord
  2
*PAPER_SPACE
  0
ENDTAB
  0
ENDSEC
  0
SECTION
  2
BLOCKS
  0
BLOCK
  5
20
330
1F
100
AcDbEntity
  8
0
100
AcDbBlockBegin
  2
*MODEL_SPACE
 70
     0
 10
0.0
 20
0.0
 30
0.0
  3
*MODEL_SPACE
  1

  0
ENDBLK
  5
21
330
1F
100
AcDbEntity
  8
0
100
AcDbBlockEnd
  0
BLOCK
  5
1C
330
1B
100
AcDbEntity
 67
     1
  8
0
100
AcDbBlockBegin
  2
*PAPER_SPACE
  1

  0
ENDBLK
  5
1D
330
1B
100
AcDbEntity
 67
     1
  8
0
100
AcDbBlockEnd
  0
ENDSEC
  0
SECTION
  2
ENTITIES
  0
SPLINE
  5
100
100
AcDbEntity
  8
Base
 62
7
100
AcDbSpline
 70
8
 71
3
 72
8
 73
4
 74
0
 40
0
 40
0
 40
0
 40
0
 40
1
 40
1
 40
1
 40
1
 10
324.150000
 20
826.264760
 30
0.0
 10
231.951592
 20
827.397733
 30
0.0
 10
143.592328
 20
760.817504
 30
0.0
 10
120.075000
 20
671.589760
 30
0.0
  0
SPLINE
  5
101
100
AcDbEntity
  8
Base
 62
7
100
AcDbSpline
 70
8
 71
3
 72
8
 73
4
 74
0
 40
0
 40
0
 40
0
 40
0
 40
1
 40
1
 40
1
 40
1
 10
120.075000
 20
671.589760
 30
0.0
 10
110.982400
 20
638.260624
 30
0.0
 10
110.409272
 20
602.436160
 30
0.0
 10
118.975000
 20
568.939760
 30
0.0
  0
SPLINE
  5
102
100
AcDbEntity
  8
Base
 62
7
100
AcDbSpline
 70
8
 71
3
 72
8
 73
4
 74
0
 40
0
 40
0
 40
0
 40
0
 40
1
 40
1
 40
1
 40
1
 10
118.975000
 20
568.939760
 30
0.0
 10
83.611568
 20
549.083344
 30
0.0
 10
60.783891
 20
512.533824
 30
0.0
 10
48.840897
 20
474.540624
 30
0.0
  0
SPLINE
  5
103
100
AcDbEntity
  8
Base
 62
7
100
AcDbSpline
 70
8
 71
3
 72
8
 73
4
 74
0
 40
0
 40
0
 40
0
 40
0
 40
1
 40
1
 40
1
 40
1
 10
48.840897
 20
474.540624
 30
0.0
 10
23.860492
 20
408.413888
 30
0.0
 10
5.575236
 20
337.881168
 30
0.0
 10
10.825000
 20
266.614760
 30
0.0
  0
SPLINE
  5
104
100
AcDbEntity
  8
Base
 62
7
100
AcDbSpline
 70
8
 71
3
 72
8
 73
4
 74
0
 40
0
 40
0
 40
0
 40
0
 40
1
 40
1
 40
1
 40
1
 10
10.825000
 20
266.614760
 30
0.0
 10
13.378582
 20
238.987608
 30
0.0
 10
18.975674
 20
210.439480
 30
0.0
 10
34.491153
 20
187.058280
 30
0.0
  0
SPLINE
  5
105
100
AcDbEntity
  8
Base
 62
7
100
AcDbSpline
 70
8
 71
3
 72
8
 73
4
 74
0
 40
0
 40
0
 40
0
 40
0
 40
1
 40
1
 40
1
 40
1
 10
34.491153
 20
187.058280
 30
0.0
 10
53.023384
 20
163.465960
 30
0.0
 10
88.836120
 20
153.132584
 30
0.0
 10
116.125000
 20
167.339760
 30
0.0
  0
SPLINE
  5
106
100
AcDbEntity
  8
Base
 62
7
100
AcDbSpline
 70
8
 71
3
 72
8
 73
4
 74
0
 40
0
 40
0
 40
0
 40
0
 40
1
 40
1
 40
1
 40
1
 10
116.125000
 20
167.339760
 30
0.0
 10
126.706280
 20
132.662048
 30
0.0
 10
143.486400
 20
99.343720
 30
0.0
 10
167.412984
 20
71.843904
 30
0.0
  0
SPLINE
  5
107
100
AcDbEntity
  8
Base
 62
7
100
AcDbSpline
 70
8
 71
3
 72
8
 73
4
 74
0
 40
0
 40
0
 40
0
 40
0
 40
1
 40
1
 40
1
 40
1
 10
167.412984
 20
71.843904
 30
0.0
 10
189.339304
 20
46.613144
 30
0.0
 10
218.322056
 20
26.395840
 30
0.0
 10
251.482240
 20
19.572160
 30
0.0
  0
SPLINE
  5
108
100
AcDbEntity
  8
Base
 62
7
100
AcDbSpline
 70
8
 71
3
 72
8
 73
4
 74
0
 40
0
 40
0
 40
0
 40
0
 40
1
 40
1
 40
1
 40
1
 10
251.482240
 20
19.572160
 30
0.0
 10
282.752264
 20
12.510720
 30
0.0
 10
316.353048
 20
16.679040
 30
0.0
 10
344.748192
 20
31.331840
 30
0.0
  0
SPLINE
  5
109
100
AcDbEntity
  8
Base
 62
7
100
AcDbSpline
 70
8
 71
3
 72
8
 73
4
 74
0
 40
0
 40
0
 40
0
 40
0
 40
1
 40
1
 40
1
 40
1
 10
344.748192
 20
31.331840
 30
0.0
 10
382.974032
 20
49.619632
 30
0.0
 10
412.258200
 20
82.109496
 30
0.0
 10
434.233184
 20
117.657032
 30
0.0
  0
SPLINE
  5
10a
100
AcDbEntity
  8
Base
 62
7
100
AcDbSpline
 70
8
 71
3
 72
8
 73
4
 74
0
 40
0
 40
0
 40
0
 40
0
 40
1
 40
1
 40
1
 40
1
 10
434.233184
 20
117.657032
 30
0.0
 10
448.868800
 20
138.682728
 30
0.0
 10
462.030264
 20
160.889128
 30
0.0
 10
475.125000
 20
182.739760
 30
0.0
  0
SPLINE
  5
10b
100
AcDbEntity
  8
Base
 62
7
100
AcDbSpline
 70
8
 71
3
 72
8
 73
4
 74
0
 40
0
 40
0
 40
0
 40
0
 40
1
 40
1
 40
1
 40
1
 10
475.125000
 20
182.739760
 30
0.0
 10
521.517832
 20
182.415136
 30
0.0
 10
564.339720
 20
216.687328
 30
0.0
 10
576.804640
 20
260.915552
 30
0.0
  0
SPLINE
  5
10c
100
AcDbEntity
  8
Base
 62
7
100
AcDbSpline
 70
8
 71
3
 72
8
 73
4
 74
0
 40
0
 40
0
 40
0
 40
0
 40
1
 40
1
 40
1
 40
1
 10
576.804640
 20
260.915552
 30
0.0
 10
595.493600
 20
312.401144
 30
0.0
 10
585.484680
 20
371.939792
 30
0.0
 10
555.450000
 20
417.039760
 30
0.0
  0
SPLINE
  5
10d
100
AcDbEntity
  8
Base
 62
7
100
AcDbSpline
 70
8
 71
3
 72
8
 73
4
 74
0
 40
0
 40
0
 40
0
 40
0
 40
1
 40
1
 40
1
 40
1
 10
555.450000
 20
417.039760
 30
0.0
 10
552.058952
 20
422.648936
 30
0.0
 10
552.926960
 20
429.246360
 30
0.0
 10
554.323536
 20
435.286376
 30
0.0
  0
SPLINE
  5
10e
100
AcDbEntity
  8
Base
 62
7
100
AcDbSpline
 70
8
 71
3
 72
8
 73
4
 74
0
 40
0
 40
0
 40
0
 40
0
 40
1
 40
1
 40
1
 40
1
 10
554.323536
 20
435.286376
 30
0.0
 10
556.003720
 20
451.888144
 30
0.0
 10
552.791136
 20
468.908808
 30
0.0
 10
545.325000
 20
483.739760
 30
0.0
  0
SPLINE
  5
10f
100
AcDbEntity
  8
Base
 62
7
100
AcDbSpline
 70
8
 71
3
 72
8
 73
4
 74
0
 40
0
 40
0
 40
0
 40
0
 40
1
 40
1
 40
1
 40
1
 10
545.325000
 20
483.739760
 30
0.0
 10
580.296672
 20
544.017856
 30
0.0
 10
582.677720
 20
620.391888
 30
0.0
 10
557.953272
 20
684.910432
 30
0.0
  0
SPLINE
  5
110
100
AcDbEntity
  8
Base
 62
7
100
AcDbSpline
 70
8
 71
3
 72
8
 73
4
 74
0
 40
0
 40
0
 40
0
 40
0
 40
1
 40
1
 40
1
 40
1
 10
557.953272
 20
684.910432
 30
0.0
 10
534.331832
 20
749.129408
 30
0.0
 10
477.246224
 20
799.582454
 30
0.0
 10
410.680512
 20
815.358604
 30
0.0
  0
SPLINE
  5
111
100
AcDbEntity
  8
Base
 62
7
100
AcDbSpline
 70
8
 71
3
 72
8
 73
4
 74
0
 40
0
 40
0
 40
0
 40
0
 40
1
 40
1
 40
1
 40
1
 10
410.680512
 20
815.358604
 30
0.0
 10
382.582760
 20
823.228686
 30
0.0
 10
353.338864
 20
826.647539
 30
0.0
 10
324.150000
 20
826.264760
 30
0.0
  0
LWPOLYLINE
  5
112
100
AcDbEntity
  8
Base
 62
7
100
AcDbPolyline
 90
2
 70
1
 10
324.150000
 20
826.264760
 30
0.0
 10
324.150000
 20
826.264760
 30
0.0
  0
LWPOLYLINE
  5
113
100
AcDbEntity
  8
Tall_Outline
 62
7
100
AcDbPolyline
 90
179
 70
0
 10
326.500000
 20
783.014760
 30
0.0
 10
308.926072
 20
782.091697
 30
0.0
 10
291.476953
 20
779.477202
 30
0.0
 10
274.352138
 20
775.176983
 30
0.0
 10
257.751124
 20
769.196745
 30
0.0
 10
241.873407
 20
761.542197
 30
0.0
 10
226.918483
 20
752.219045
 30
0.0
 10
213.085849
 20
741.232997
 30
0.0
 10
200.575000
 20
728.589760
 30
0.0
 10
200.475000
 20
728.464760
 30
0.0
 10
188.523974
 20
713.891600
 30
0.0
 10
178.173856
 20
698.048561
 30
0.0
 10
169.591302
 20
681.149339
 30
0.0
 10
162.942971
 20
663.407627
 30
0.0
 10
158.395518
 20
645.037119
 30
0.0
 10
156.115601
 20
626.251509
 30
0.0
 10
155.878048
 20
616.769820
 30
0.0
 10
156.269876
 20
607.264491
 30
0.0
 10
157.311916
 20
597.762234
 30
0.0
 10
159.025000
 20
588.289760
 30
0.0
 10
159.025000
 20
588.264800
 30
0.0
 10
162.101465
 20
576.509439
 30
0.0
 10
166.082394
 20
565.051619
 30
0.0
 10
170.909626
 20
553.931639
 30
0.0
 10
176.525000
 20
543.189800
 30
0.0
 10
161.446870
 20
539.483017
 30
0.0
 10
146.514884
 20
534.208523
 30
0.0
 10
139.334996
 20
530.720369
 30
0.0
 10
132.469206
 20
526.524668
 30
0.0
 10
126.010034
 20
521.516214
 30
0.0
 10
120.050000
 20
515.589800
 30
0.0
 10
120.025040
 20
515.589800
 30
0.0
 10
119.975040
 20
515.514840
 30
0.0
 10
111.829845
 20
505.368415
 30
0.0
 10
104.909166
 20
494.636302
 30
0.0
 10
99.001399
 20
483.458156
 30
0.0
 10
93.894938
 20
471.973631
 30
0.0
 10
85.239511
 20
448.644065
 30
0.0
 10
77.250040
 20
425.764840
 30
0.0
 10
77.200000
 20
425.639760
 30
0.0
 10
77.175000
 20
425.514760
 30
0.0
 10
70.475291
 20
403.987081
 30
0.0
 10
64.596125
 20
382.071329
 30
0.0
 10
59.725403
 20
359.834691
 30
0.0
 10
56.051026
 20
337.344355
 30
0.0
 10
53.760896
 20
314.667507
 30
0.0
 10
53.042914
 20
291.871333
 30
0.0
 10
54.084982
 20
269.023022
 30
0.0
 10
57.075000
 20
246.189760
 30
0.0
 10
57.075000
 20
246.164800
 30
0.0
 10
59.009193
 20
236.276443
 30
0.0
 10
62.117081
 20
225.893179
 30
0.0
 10
64.403821
 20
220.820478
 30
0.0
 10
67.335178
 20
215.989475
 30
0.0
 10
71.028216
 20
211.521980
 30
0.0
 10
75.600000
 20
207.539800
 30
0.0
 10
75.825000
 20
207.364800
 30
0.0
 10
76.075000
 20
207.189800
 30
0.0
 10
80.123651
 20
205.230741
 30
0.0
 10
84.295697
 20
204.162499
 30
0.0
 10
88.501061
 20
203.919978
 30
0.0
 10
92.649668
 20
204.438080
 30
0.0
 10
96.651442
 20
205.651710
 30
0.0
 10
100.416306
 20
207.495771
 30
0.0
 10
103.854184
 20
209.905166
 30
0.0
 10
106.875000
 20
212.814800
 30
0.0
 10
106.899960
 20
212.789840
 30
0.0
 10
107.399960
 20
213.339840
 30
0.0
 10
115.504254
 20
222.995407
 30
0.0
 10
121.884633
 20
233.367613
 30
0.0
 10
132.124960
 20
253.964840
 30
0.0
 10
132.199920
 20
254.114840
 30
0.0
 10
132.274880
 20
254.264840
 30
0.0
 10
137.999880
 20
267.964840
 30
0.0
 10
144.200028
 20
233.488767
 30
0.0
 10
152.017496
 20
199.179650
 30
0.0
 10
156.868310
 20
182.234384
 30
0.0
 10
162.526156
 20
165.506878
 30
0.0
 10
169.125268
 20
149.055805
 30
0.0
 10
176.799880
 20
132.939840
 30
0.0
 10
176.849880
 20
132.864880
 30
0.0
 10
176.899880
 20
132.789920
 30
0.0
 10
183.830121
 20
121.198506
 30
0.0
 10
191.678943
 20
110.062873
 30
0.0
 10
200.431397
 20
99.549438
 30
0.0
 10
210.072533
 20
89.824622
 30
0.0
 10
220.587399
 20
81.054843
 30
0.0
 10
231.961046
 20
73.406520
 30
0.0
 10
244.178523
 20
67.046073
 30
0.0
 10
257.224880
 20
62.139920
 30
0.0
 10
257.374880
 20
62.089920
 30
0.0
 10
257.549880
 20
62.039920
 30
0.0
 10
270.892712
 20
59.702167
 30
0.0
 10
284.217770
 20
59.359913
 30
0.0
 10
297.381841
 20
60.846694
 30
0.0
 10
310.241710
 20
63.996048
 30
0.0
 10
322.654163
 20
68.641511
 30
0.0
 10
334.475985
 20
74.616619
 30
0.0
 10
345.563962
 20
81.754910
 30
0.0
 10
355.774880
 20
89.889920
 30
0.0
 10
365.735479
 20
99.452237
 30
0.0
 10
374.865943
 20
109.615920
 30
0.0
 10
383.316432
 20
120.241026
 30
0.0
 10
391.237107
 20
131.187614
 30
0.0
 10
420.624880
 20
175.389920
 30
0.0
 10
420.699840
 20
175.514920
 30
0.0
 10
420.774800
 20
175.639920
 30
0.0
 10
437.128919
 20
203.376764
 30
0.0
 10
451.824800
 20
231.839920
 30
0.0
 10
460.084483
 20
228.489219
 30
0.0
 10
468.742318
 20
226.520977
 30
0.0
 10
477.579542
 20
225.938259
 30
0.0
 10
486.377392
 20
226.744135
 30
0.0
 10
494.917106
 20
228.941671
 30
0.0
 10
502.979920
 20
232.533936
 30
0.0
 10
510.347073
 20
237.523996
 30
0.0
 10
516.799800
 20
243.914920
 30
0.0
 10
517.174800
 20
244.339920
 30
0.0
 10
525.800060
 20
255.039606
 30
0.0
 10
532.622424
 20
266.742382
 30
0.0
 10
537.704018
 20
279.227999
 30
0.0
 10
541.106966
 20
292.276205
 30
0.0
 10
542.893393
 20
305.666751
 30
0.0
 10
543.125425
 20
319.179385
 30
0.0
 10
541.865185
 20
332.593858
 30
0.0
 10
539.174800
 20
345.689920
 30
0.0
 10
539.124800
 20
345.864920
 30
0.0
 10
536.381142
 20
355.927751
 30
0.0
 10
533.033178
 20
365.741906
 30
0.0
 10
524.743605
 20
384.632063
 30
0.0
 10
514.694630
 20
402.551149
 30
0.0
 10
503.324800
 20
419.514920
 30
0.0
 10
506.762265
 20
424.508316
 30
0.0
 10
509.332680
 20
429.930698
 30
0.0
 10
511.028504
 20
435.660481
 30
0.0
 10
511.842195
 20
441.576080
 30
0.0
 10
511.766212
 20
447.555909
 30
0.0
 10
510.793012
 20
453.478382
 30
0.0
 10
508.915056
 20
459.221914
 30
0.0
 10
506.124800
 20
464.664920
 30
0.0
 10
506.149760
 20
464.689880
 30
0.0
 10
505.999760
 20
464.939880
 30
0.0
 10
505.874760
 20
465.164880
 30
0.0
 10
505.849800
 20
465.164880
 30
0.0
 10
499.412904
 20
474.553149
 30
0.0
 10
491.674800
 20
482.489880
 30
0.0
 10
502.223096
 20
495.950041
 30
0.0
 10
511.084492
 20
510.461727
 30
0.0
 10
518.288397
 20
525.837011
 30
0.0
 10
523.864217
 20
541.887963
 30
0.0
 10
527.841360
 20
558.426655
 30
0.0
 10
530.249233
 20
575.265157
 30
0.0
 10
531.117244
 20
592.215542
 30
0.0
 10
530.474800
 20
609.089880
 30
0.0
 10
530.474800
 20
609.114840
 30
0.0
 10
528.965682
 20
622.753071
 30
0.0
 10
526.639974
 20
636.322531
 30
0.0
 10
523.476918
 20
649.746788
 30
0.0
 10
519.455753
 20
662.949408
 30
0.0
 10
514.555719
 20
675.853957
 30
0.0
 10
508.756055
 20
688.384000
 30
0.0
 10
502.036002
 20
700.463106
 30
0.0
 10
494.374800
 20
712.014840
 30
0.0
 10
486.823981
 20
721.480261
 30
0.0
 10
478.544817
 20
730.199215
 30
0.0
 10
469.615882
 20
738.182911
 30
0.0
 10
460.115753
 20
745.442558
 30
0.0
 10
450.123005
 20
751.989365
 30
0.0
 10
439.716213
 20
757.834542
 30
0.0
 10
428.973953
 20
762.989297
 30
0.0
 10
417.974800
 20
767.464840
 30
0.0
 10
417.899840
 20
767.489840
 30
0.0
 10
406.890736
 20
771.389807
 30
0.0
 10
395.706245
 20
774.700831
 30
0.0
 10
372.929578
 20
779.614312
 30
0.0
 10
349.806792
 20
782.346807
 30
0.0
 10
326.574840
 20
783.014840
 30
0.0
 10
326.499880
 20
783.014840
 30
0.0
 10
326.500000
 20
783.014760
 30
0.0
  0
SPLINE
  5
114
100
AcDbEntity
  8
Medium_Features
 62
7
100
AcDbSpline
 70
8
 71
3
 72
8
 73
4
 74
0
 40
0
 40
0
 40
0
 40
0
 40
1
 40
1
 40
1
 40
1
 10
329.218056
 20
769.470136
 30
0.0
 10
377.386760
 20
769.614174
 30
0.0
 10
426.786040
 20
756.400742
 30
0.0
 10
464.168056
 20
725.145136
 30
0.0
  0
SPLINE
  5
115
100
AcDbEntity
  8
Medium_Features
 62
7
100
AcDbSpline
 70
8
 71
3
 72
8
 73
4
 74
0
 40
0
 40
0
 40
0
 40
0
 40
1
 40
1
 40
1
 40
1
 10
464.168056
 20
725.145136
 30
0.0
 10
496.878696
 20
696.028901
 30
0.0
 10
513.009256
 20
652.126640
 30
0.0
 10
516.768056
 20
609.245136
 30
0.0
  0
SPLINE
  5
116
100
AcDbEntity
  8
Medium_Features
 62
7
100
AcDbSpline
 70
8
 71
3
 72
8
 73
4
 74
0
 40
0
 40
0
 40
0
 40
0
 40
1
 40
1
 40
1
 40
1
 10
516.768056
 20
609.245136
 30
0.0
 10
519.830000
 20
578.193448
 30
0.0
 10
514.365512
 20
546.450144
 30
0.0
 10
499.943056
 20
518.895136
 30
0.0
  0
SPLINE
  5
117
100
AcDbEntity
  8
Medium_Features
 62
7
100
AcDbSpline
 70
8
 71
3
 72
8
 73
4
 74
0
 40
0
 40
0
 40
0
 40
0
 40
1
 40
1
 40
1
 40
1
 10
499.943056
 20
518.895136
 30
0.0
 10
492.878032
 20
504.619888
 30
0.0
 10
483.358280
 20
491.270144
 30
0.0
 10
470.968056
 20
481.145136
 30
0.0
  0
SPLINE
  5
118
100
AcDbEntity
  8
Medium_Features
 62
7
100
AcDbSpline
 70
8
 71
3
 72
8
 73
4
 74
0
 40
0
 40
0
 40
0
 40
0
 40
1
 40
1
 40
1
 40
1
 10
470.968056
 20
481.145136
 30
0.0
 10
484.126448
 20
472.510464
 30
0.0
 10
498.082400
 20
460.021152
 30
0.0
 10
498.268056
 20
443.045136
 30
0.0
  0
SPLINE
  5
119
100
AcDbEntity
  8
Medium_Features
 62
7
100
AcDbSpline
 70
8
 71
3
 72
8
 73
4
 74
0
 40
0
 40
0
 40
0
 40
0
 40
1
 40
1
 40
1
 40
1
 10
498.268056
 20
443.045136
 30
0.0
 10
498.440760
 20
433.903096
 30
0.0
 10
492.256752
 20
425.886288
 30
0.0
 10
484.618056
 20
421.395136
 30
0.0
  0
SPLINE
  5
11a
100
AcDbEntity
  8
Medium_Features
 62
7
100
AcDbSpline
 70
8
 71
3
 72
8
 73
4
 74
0
 40
0
 40
0
 40
0
 40
0
 40
1
 40
1
 40
1
 40
1
 10
484.618056
 20
421.395136
 30
0.0
 10
506.110640
 20
394.611512
 30
0.0
 10
523.948080
 20
363.433160
 30
0.0
 10
528.410296
 20
328.853776
 30
0.0
  0
SPLINE
  5
11b
100
AcDbEntity
  8
Medium_Features
 62
7
100
AcDbSpline
 70
8
 71
3
 72
8
 73
4
 74
0
 40
0
 40
0
 40
0
 40
0
 40
1
 40
1
 40
1
 40
1
 10
528.410296
 20
328.853776
 30
0.0
 10
531.729344
 20
307.717216
 30
0.0
 10
528.281992
 20
285.221056
 30
0.0
 10
517.118056
 20
266.970136
 30
0.0
  0
SPLINE
  5
11c
100
AcDbEntity
  8
Medium_Features
 62
7
100
AcDbSpline
 70
8
 71
3
 72
8
 73
4
 74
0
 40
0
 40
0
 40
0
 40
0
 40
1
 40
1
 40
1
 40
1
 10
517.118056
 20
266.970136
 30
0.0
 10
509.000664
 20
252.092096
 30
0.0
 10
494.357336
 20
238.782264
 30
0.0
 10
476.493056
 20
239.595136
 30
0.0
  0
SPLINE
  5
11d
100
AcDbEntity
  8
Medium_Features
 62
7
100
AcDbSpline
 70
8
 71
3
 72
8
 73
4
 74
0
 40
0
 40
0
 40
0
 40
0
 40
1
 40
1
 40
1
 40
1
 10
476.493056
 20
239.595136
 30
0.0
 10
465.179832
 20
239.718416
 30
0.0
 10
454.261984
 20
244.454240
 30
0.0
 10
446.418056
 20
252.570136
 30
0.0
  0
SPLINE
  5
11e
100
AcDbEntity
  8
Medium_Features
 62
7
100
AcDbSpline
 70
8
 71
3
 72
8
 73
4
 74
0
 40
0
 40
0
 40
0
 40
0
 40
1
 40
1
 40
1
 40
1
 10
446.418056
 20
252.570136
 30
0.0
 10
431.284088
 20
218.144056
 30
0.0
 10
412.279392
 20
185.528032
 30
0.0
 10
390.547616
 20
154.780624
 30
0.0
  0
SPLINE
  5
11f
100
AcDbEntity
  8
Medium_Features
 62
7
100
AcDbSpline
 70
8
 71
3
 72
8
 73
4
 74
0
 40
0
 40
0
 40
0
 40
0
 40
1
 40
1
 40
1
 40
1
 10
390.547616
 20
154.780624
 30
0.0
 10
372.360064
 20
127.327128
 30
0.0
 10
352.992496
 20
98.437664
 30
0.0
 10
322.511976
 20
83.754592
 30
0.0
  0
SPLINE
  5
120
100
AcDbEntity
  8
Medium_Features
 62
7
100
AcDbSpline
 70
8
 71
3
 72
8
 73
4
 74
0
 40
0
 40
0
 40
0
 40
0
 40
1
 40
1
 40
1
 40
1
 10
322.511976
 20
83.754592
 30
0.0
 10
300.520328
 20
72.481584
 30
0.0
 10
273.014128
 20
68.233248
 30
0.0
 10
249.943056
 20
79.170136
 30
0.0
  0
SPLINE
  5
121
100
AcDbEntity
  8
Medium_Features
 62
7
100
AcDbSpline
 70
8
 71
3
 72
8
 73
4
 74
0
 40
0
 40
0
 40
0
 40
0
 40
1
 40
1
 40
1
 40
1
 10
249.943056
 20
79.170136
 30
0.0
 10
226.658608
 20
89.920032
 30
0.0
 10
207.882048
 20
108.814104
 30
0.0
 10
194.068056
 20
130.245136
 30
0.0
  0
SPLINE
  5
122
100
AcDbEntity
  8
Medium_Features
 62
7
100
AcDbSpline
 70
8
 71
3
 72
8
 73
4
 74
0
 40
0
 40
0
 40
0
 40
0
 40
1
 40
1
 40
1
 40
1
 10
194.068056
 20
130.245136
 30
0.0
 10
175.088296
 20
161.066928
 30
0.0
 10
166.063064
 20
196.697264
 30
0.0
 10
158.405008
 20
231.769992
 30
0.0
  0
SPLINE
  5
123
100
AcDbEntity
  8
Medium_Features
 62
7
100
AcDbSpline
 70
8
 71
3
 72
8
 73
4
 74
0
 40
0
 40
0
 40
0
 40
0
 40
1
 40
1
 40
1
 40
1
 10
158.405008
 20
231.769992
 30
0.0
 10
152.563168
 20
259.812608
 30
0.0
 10
148.473152
 20
288.177336
 30
0.0
 10
143.743056
 20
316.420136
 30
0.0
  0
SPLINE
  5
124
100
AcDbEntity
  8
Medium_Features
 62
7
100
AcDbSpline
 70
8
 71
3
 72
8
 73
4
 74
0
 40
0
 40
0
 40
0
 40
0
 40
1
 40
1
 40
1
 40
1
 10
143.743056
 20
316.420136
 30
0.0
 10
129.348120
 20
286.671912
 30
0.0
 10
120.857352
 20
253.716032
 30
0.0
 10
101.383552
 20
226.728368
 30
0.0
  0
SPLINE
  5
125
100
AcDbEntity
  8
Medium_Features
 62
7
100
AcDbSpline
 70
8
 71
3
 72
8
 73
4
 74
0
 40
0
 40
0
 40
0
 40
0
 40
1
 40
1
 40
1
 40
1
 10
101.383552
 20
226.728368
 30
0.0
 10
97.347856
 20
221.617432
 30
0.0
 10
90.408040
 20
214.763072
 30
0.0
 10
83.493056
 20
218.620136
 30
0.0
  0
SPLINE
  5
126
100
AcDbEntity
  8
Medium_Features
 62
7
100
AcDbSpline
 70
8
 71
3
 72
8
 73
4
 74
0
 40
0
 40
0
 40
0
 40
0
 40
1
 40
1
 40
1
 40
1
 10
83.493056
 20
218.620136
 30
0.0
 10
76.040488
 20
223.599072
 30
0.0
 10
73.987832
 20
233.409296
 30
0.0
 10
71.798504
 20
241.601960
 30
0.0
  0
SPLINE
  5
127
100
AcDbEntity
  8
Medium_Features
 62
7
100
AcDbSpline
 70
8
 71
3
 72
8
 73
4
 74
0
 40
0
 40
0
 40
0
 40
0
 40
1
 40
1
 40
1
 40
1
 10
71.798504
 20
241.601960
 30
0.0
 10
60.465744
 20
296.218864
 30
0.0
 10
69.148896
 20
352.948688
 30
0.0
 10
85.155592
 20
405.651824
 30
0.0
  0
SPLINE
  5
128
100
AcDbEntity
  8
Medium_Features
 62
7
100
AcDbSpline
 70
8
 71
3
 72
8
 73
4
 74
0
 40
0
 40
0
 40
0
 40
0
 40
1
 40
1
 40
1
 40
1
 10
85.155592
 20
405.651824
 30
0.0
 10
93.024280
 20
430.511456
 30
0.0
 10
101.241576
 20
455.462296
 30
0.0
 10
112.093056
 20
479.145136
 30
0.0
  0
SPLINE
  5
129
100
AcDbEntity
  8
Medium_Features
 62
7
100
AcDbSpline
 70
8
 71
3
 72
8
 73
4
 74
0
 40
0
 40
0
 40
0
 40
0
 40
1
 40
1
 40
1
 40
1
 10
112.093056
 20
479.145136
 30
0.0
 10
121.145928
 20
497.850976
 30
0.0
 10
134.228040
 20
515.945896
 30
0.0
 10
154.668056
 20
522.795136
 30
0.0
  0
SPLINE
  5
12a
100
AcDbEntity
  8
Medium_Features
 62
7
100
AcDbSpline
 70
8
 71
3
 72
8
 73
4
 74
0
 40
0
 40
0
 40
0
 40
0
 40
1
 40
1
 40
1
 40
1
 10
154.668056
 20
522.795136
 30
0.0
 10
168.780272
 20
528.361976
 30
0.0
 10
183.788888
 20
530.770904
 30
0.0
 10
198.618056
 20
533.920136
 30
0.0
  0
SPLINE
  5
12b
100
AcDbEntity
  8
Medium_Features
 62
7
100
AcDbSpline
 70
8
 71
3
 72
8
 73
4
 74
0
 40
0
 40
0
 40
0
 40
0
 40
1
 40
1
 40
1
 40
1
 10
198.618056
 20
533.920136
 30
0.0
 10
176.877712
 20
563.343416
 30
0.0
 10
164.872120
 20
600.771008
 30
0.0
 10
170.932200
 20
637.452160
 30
0.0
  0
SPLINE
  5
12c
100
AcDbEntity
  8
Medium_Features
 62
7
100
AcDbSpline
 70
8
 71
3
 72
8
 73
4
 74
0
 40
0
 40
0
 40
0
 40
0
 40
1
 40
1
 40
1
 40
1
 10
170.932200
 20
637.452160
 30
0.0
 10
178.159656
 20
684.956930
 30
0.0
 10
208.807696
 20
728.184448
 30
0.0
 10
250.943056
 20
751.145136
 30
0.0
  0
SPLINE
  5
12d
100
AcDbEntity
  8
Medium_Features
 62
7
100
AcDbSpline
 70
8
 71
3
 72
8
 73
4
 74
0
 40
0
 40
0
 40
0
 40
0
 40
1
 40
1
 40
1
 40
1
 10
250.943056
 20
751.145136
 30
0.0
 10
274.951632
 20
763.716884
 30
0.0
 10
302.095856
 20
769.211478
 30
0.0
 10
329.218056
 20
769.470136
 30
0.0
  0
LWPOLYLINE
  5
12e
100
AcDbEntity
  8
Tall_Outline
 62
7
100
AcDbPolyline
 90
180
 70
0
 10
326.625000
 20
768.614760
 30
0.0
 10
326.675000
 20
768.614760
 30
0.0
 10
326.699960
 20
768.614760
 30
0.0
 10
348.719127
 20
767.983446
 30
0.0
 10
370.559046
 20
765.399736
 30
0.0
 10
391.988172
 20
760.773537
 30
0.0
 10
412.774960
 20
754.014760
 30
0.0
 10
412.824960
 20
754.014760
 30
0.0
 10
412.849920
 20
753.989800
 30
0.0
 10
423.059240
 20
749.839957
 30
0.0
 10
432.986846
 20
745.081037
 30
0.0
 10
442.562889
 20
739.709968
 30
0.0
 10
451.717519
 20
733.723676
 30
0.0
 10
460.380886
 20
727.119087
 30
0.0
 10
468.483142
 20
719.893127
 30
0.0
 10
475.954436
 20
712.042722
 30
0.0
 10
482.724920
 20
703.564800
 30
0.0
 10
489.750020
 20
692.964994
 30
0.0
 10
495.934817
 20
681.832240
 30
0.0
 10
501.292307
 20
670.239681
 30
0.0
 10
505.835482
 20
658.260459
 30
0.0
 10
509.577337
 20
645.967717
 30
0.0
 10
512.530866
 20
633.434598
 30
0.0
 10
514.709062
 20
620.734245
 30
0.0
 10
516.124920
 20
607.939800
 30
0.0
 10
516.124920
 20
607.914840
 30
0.0
 10
516.705415
 20
591.445133
 30
0.0
 10
515.721528
 20
574.934864
 30
0.0
 10
513.157344
 20
558.595522
 30
0.0
 10
508.996947
 20
542.638596
 30
0.0
 10
503.224422
 20
527.275575
 30
0.0
 10
495.823853
 20
512.717950
 30
0.0
 10
486.779324
 20
499.177208
 30
0.0
 10
476.074920
 20
486.864840
 30
0.0
 10
470.249920
 20
481.014840
 30
0.0
 10
476.824920
 20
476.039840
 30
0.0
 10
486.336784
 20
467.614316
 30
0.0
 10
490.252812
 20
462.927508
 30
0.0
 10
493.449920
 20
457.889840
 30
0.0
 10
493.574920
 20
457.639840
 30
0.0
 10
493.724920
 20
457.414840
 30
0.0
 10
495.658074
 20
453.587423
 30
0.0
 10
496.851188
 20
449.423593
 30
0.0
 10
497.319100
 20
445.071368
 30
0.0
 10
497.076646
 20
440.678762
 30
0.0
 10
496.138664
 20
436.393791
 30
0.0
 10
494.519991
 20
432.364470
 30
0.0
 10
492.235464
 20
428.738814
 30
0.0
 10
489.299920
 20
425.664840
 30
0.0
 10
484.124920
 20
421.289840
 30
0.0
 10
488.174920
 20
415.839840
 30
0.0
 10
500.120972
 20
398.683130
 30
0.0
 10
510.581556
 20
380.705228
 30
0.0
 10
519.088822
 20
361.925882
 30
0.0
 10
522.463758
 20
352.241839
 30
0.0
 10
525.174920
 20
342.364840
 30
0.0
 10
525.199880
 20
342.264840
 30
0.0
 10
525.199880
 20
342.164840
 30
0.0
 10
527.584282
 20
330.574944
 30
0.0
 10
528.684178
 20
318.725248
 30
0.0
 10
528.465479
 20
306.824565
 30
0.0
 10
526.894093
 20
295.081710
 30
0.0
 10
523.935931
 20
283.705496
 30
0.0
 10
519.556901
 20
272.904737
 30
0.0
 10
513.722915
 20
262.888247
 30
0.0
 10
506.399880
 20
253.864840
 30
0.0
 10
506.199880
 20
253.664840
 30
0.0
 10
506.024880
 20
253.439840
 30
0.0
 10
500.909805
 20
248.469483
 30
0.0
 10
494.823296
 20
244.701279
 30
0.0
 10
488.035811
 20
242.144202
 30
0.0
 10
480.817813
 20
240.807226
 30
0.0
 10
473.439760
 20
240.699327
 30
0.0
 10
466.172114
 20
241.829480
 30
0.0
 10
459.285334
 20
244.206659
 30
0.0
 10
453.049880
 20
247.839840
 30
0.0
 10
446.024880
 20
253.014840
 30
0.0
 10
442.299880
 20
245.114840
 30
0.0
 10
426.508837
 20
213.888855
 30
0.0
 10
417.880552
 20
198.558635
 30
0.0
 10
408.774880
 20
183.589840
 30
0.0
 10
408.624880
 20
183.339840
 30
0.0
 10
379.286457
 20
139.385196
 30
0.0
 10
371.712779
 20
128.905695
 30
0.0
 10
363.772461
 20
118.879941
 30
0.0
 10
355.329996
 20
109.432975
 30
0.0
 10
346.249880
 20
100.689840
 30
0.0
 10
346.224920
 20
100.689840
 30
0.0
 10
337.187810
 20
93.502156
 30
0.0
 10
327.410518
 20
87.225700
 30
0.0
 10
317.036739
 20
81.990151
 30
0.0
 10
306.210170
 20
77.925191
 30
0.0
 10
295.074507
 20
75.160499
 30
0.0
 10
283.773448
 20
73.825757
 30
0.0
 10
272.450686
 20
74.050644
 30
0.0
 10
261.249920
 20
75.964840
 30
0.0
 10
249.915316
 20
80.265684
 30
0.0
 10
239.200086
 20
85.891924
 30
0.0
 10
229.134308
 20
92.702614
 30
0.0
 10
219.748063
 20
100.556810
 30
0.0
 10
211.071430
 20
109.313567
 30
0.0
 10
203.134489
 20
118.831941
 30
0.0
 10
195.967319
 20
128.970987
 30
0.0
 10
189.600000
 20
139.589760
 30
0.0
 10
181.124939
 20
157.679462
 30
0.0
 10
173.989075
 20
176.346511
 30
0.0
 10
167.991122
 20
195.499240
 30
0.0
 10
162.929794
 20
215.045983
 30
0.0
 10
158.603804
 20
234.895073
 30
0.0
 10
154.811866
 20
254.954844
 30
0.0
 10
148.025000
 20
295.339760
 30
0.0
 10
143.975000
 20
319.914760
 30
0.0
 10
134.300000
 20
296.964760
 30
0.0
 10
119.300000
 20
260.514760
 30
0.0
 10
119.150000
 20
260.189760
 30
0.0
 10
108.937931
 20
239.916486
 30
0.0
 10
103.388040
 20
230.872960
 30
0.0
 10
96.875000
 20
223.139760
 30
0.0
 10
96.600000
 20
222.864760
 30
0.0
 10
96.350000
 20
222.589760
 30
0.0
 10
93.573875
 20
220.204298
 30
0.0
 10
90.259685
 20
218.789441
 30
0.0
 10
86.840653
 20
218.487244
 30
0.0
 10
83.750000
 20
219.439760
 30
0.0
 10
81.138717
 20
221.875253
 30
0.0
 10
78.922727
 20
224.780866
 30
0.0
 10
75.487133
 20
231.759788
 30
0.0
 10
73.064221
 20
239.891196
 30
0.0
 10
71.275000
 20
248.689760
 30
0.0
 10
71.275000
 20
248.714720
 30
0.0
 10
68.459105
 20
270.266101
 30
0.0
 10
67.477093
 20
291.939763
 30
0.0
 10
68.162061
 20
313.668117
 30
0.0
 10
70.347105
 20
335.383577
 30
0.0
 10
73.865324
 20
357.018555
 30
0.0
 10
78.549814
 20
378.505463
 30
0.0
 10
84.233674
 20
399.776714
 30
0.0
 10
90.750000
 20
420.764720
 30
0.0
 10
90.824960
 20
421.014720
 30
0.0
 10
98.955360
 20
444.044629
 30
0.0
 10
107.353502
 20
466.489211
 30
0.0
 10
112.103909
 20
477.204296
 30
0.0
 10
117.462373
 20
487.427798
 30
0.0
 10
123.609265
 20
497.044634
 30
0.0
 10
130.724960
 20
505.939720
 30
0.0
 10
130.749920
 20
505.964680
 30
0.0
 10
130.774880
 20
506.014680
 30
0.0
 10
136.302383
 20
511.364941
 30
0.0
 10
142.561737
 20
515.865072
 30
0.0
 10
149.441569
 20
519.625816
 30
0.0
 10
156.830508
 20
522.757914
 30
0.0
 10
172.690216
 20
527.579139
 30
0.0
 10
189.249880
 20
531.214680
 30
0.0
 10
199.675000
 20
533.289760
 30
0.0
 10
193.850000
 20
542.214760
 30
0.0
 10
187.011960
 20
553.760399
 30
0.0
 10
181.225091
 20
565.859326
 30
0.0
 10
176.556926
 20
578.417219
 30
0.0
 10
173.075000
 20
591.339760
 30
0.0
 10
173.075000
 20
591.364720
 30
0.0
 10
171.548805
 20
599.847103
 30
0.0
 10
170.628965
 20
608.385618
 30
0.0
 10
170.535362
 20
625.524052
 30
0.0
 10
172.648212
 20
642.566038
 30
0.0
 10
176.821537
 20
659.297590
 30
0.0
 10
182.909357
 20
675.504723
 30
0.0
 10
190.765694
 20
690.973453
 30
0.0
 10
200.244568
 20
705.489794
 30
0.0
 10
211.200000
 20
718.839760
 30
0.0
 10
211.250000
 20
718.914720
 30
0.0
 10
211.324960
 20
718.989680
 30
0.0
 10
222.621517
 20
730.411143
 30
0.0
 10
235.189059
 20
740.379461
 30
0.0
 10
248.837230
 20
748.875729
 30
0.0
 10
263.375670
 20
755.881043
 30
0.0
 10
278.614021
 20
761.376499
 30
0.0
 10
294.361926
 20
765.343193
 30
0.0
 10
310.429025
 20
767.762222
 30
0.0
 10
326.624960
 20
768.614680
 30
0.0
 10
326.625000
 20
768.614760
 30
0.0
  0
SPLINE
  5
12f
100
AcDbEntity
  8
Medium_Features
 62
7
100
AcDbSpline
 70
8
 71
3
 72
8
 73
4
 74
0
 40
0
 40
0
 40
0
 40
0
 40
1
 40
1
 40
1
 40
1
 10
205.193056
 20
455.420136
 30
0.0
 10
195.193376
 20
407.143552
 30
0.0
 10
173.320864
 20
362.461608
 30
0.0
 10
152.593056
 20
318.020136
 30
0.0
  0
SPLINE
  5
130
100
AcDbEntity
  8
Medium_Features
 62
7
100
AcDbSpline
 70
8
 71
3
 72
8
 73
4
 74
0
 40
0
 40
0
 40
0
 40
0
 40
1
 40
1
 40
1
 40
1
 10
152.593056
 20
318.020136
 30
0.0
 10
151.682800
 20
310.251720
 30
0.0
 10
155.112600
 20
303.024736
 30
0.0
 10
155.538312
 20
295.286472
 30
0.0
  0
SPLINE
  5
131
100
AcDbEntity
  8
Medium_Features
 62
7
100
AcDbSpline
 70
8
 71
3
 72
8
 73
4
 74
0
 40
0
 40
0
 40
0
 40
0
 40
1
 40
1
 40
1
 40
1
 10
155.538312
 20
295.286472
 30
0.0
 10
164.246856
 20
244.086592
 30
0.0
 10
173.077872
 20
191.969672
 30
0.0
 10
195.843056
 20
144.920136
 30
0.0
  0
SPLINE
  5
132
100
AcDbEntity
  8
Medium_Features
 62
7
100
AcDbSpline
 70
8
 71
3
 72
8
 73
4
 74
0
 40
0
 40
0
 40
0
 40
0
 40
1
 40
1
 40
1
 40
1
 10
195.843056
 20
144.920136
 30
0.0
 10
209.442544
 20
118.699680
 30
0.0
 10
231.210800
 20
95.847008
 30
0.0
 10
259.068056
 20
84.870136
 30
0.0
  0
SPLINE
  5
133
100
AcDbEntity
  8
Medium_Features
 62
7
100
AcDbSpline
 70
8
 71
3
 72
8
 73
4
 74
0
 40
0
 40
0
 40
0
 40
0
 40
1
 40
1
 40
1
 40
1
 10
259.068056
 20
84.870136
 30
0.0
 10
276.170304
 20
78.440680
 30
0.0
 10
295.325400
 20
80.480128
 30
0.0
 10
311.769328
 20
87.612088
 30
0.0
  0
SPLINE
  5
134
100
AcDbEntity
  8
Medium_Features
 62
7
100
AcDbSpline
 70
8
 71
3
 72
8
 73
4
 74
0
 40
0
 40
0
 40
0
 40
0
 40
1
 40
1
 40
1
 40
1
 10
311.769328
 20
87.612088
 30
0.0
 10
330.408832
 20
95.051296
 30
0.0
 10
344.851184
 20
109.447368
 30
0.0
 10
357.154824
 20
124.788792
 30
0.0
  0
SPLINE
  5
135
100
AcDbEntity
  8
Medium_Features
 62
7
100
AcDbSpline
 70
8
 71
3
 72
8
 73
4
 74
0
 40
0
 40
0
 40
0
 40
0
 40
1
 40
1
 40
1
 40
1
 10
357.154824
 20
124.788792
 30
0.0
 10
389.442488
 20
163.648616
 30
0.0
 10
413.796168
 20
208.373832
 30
0.0
 10
436.968056
 20
253.045136
 30
0.0
  0
SPLINE
  5
136
100
AcDbEntity
  8
Medium_Features
 62
7
100
AcDbSpline
 70
8
 71
3
 72
8
 73
4
 74
0
 40
0
 40
0
 40
0
 40
0
 40
1
 40
1
 40
1
 40
1
 10
436.968056
 20
253.045136
 30
0.0
 10
439.243120
 20
256.175056
 30
0.0
 10
433.659008
 20
258.147048
 30
0.0
 10
432.668056
 20
260.945136
 30
0.0
  0
SPLINE
  5
137
100
AcDbEntity
  8
Medium_Features
 62
7
100
AcDbSpline
 70
8
 71
3
 72
8
 73
4
 74
0
 40
0
 40
0
 40
0
 40
0
 40
1
 40
1
 40
1
 40
1
 10
432.668056
 20
260.945136
 30
0.0
 10
413.767928
 20
285.169832
 30
0.0
 10
403.573592
 20
315.227432
 30
0.0
 10
395.368056
 20
344.695136
 30
0.0
  0
SPLINE
  5
138
100
AcDbEntity
  8
Medium_Features
 62
7
100
AcDbSpline
 70
8
 71
3
 72
8
 73
4
 74
0
 40
0
 40
0
 40
0
 40
0
 40
1
 40
1
 40
1
 40
1
 10
395.368056
 20
344.695136
 30
0.0
 10
390.845752
 20
363.554544
 30
0.0
 10
388.438432
 20
382.720112
 30
0.0
 10
387.368056
 20
402.070136
 30
0.0
  0
SPLINE
  5
139
100
AcDbEntity
  8
Medium_Features
 62
7
100
AcDbSpline
 70
8
 71
3
 72
8
 73
4
 74
0
 40
0
 40
0
 40
0
 40
0
 40
1
 40
1
 40
1
 40
1
 10
387.368056
 20
402.070136
 30
0.0
 10
342.601624
 20
403.770056
 30
0.0
 10
299.294488
 20
417.070848
 30
0.0
 10
257.168424
 20
431.374504
 30
0.0
  0
SPLINE
  5
13a
100
AcDbEntity
  8
Medium_Features
 62
7
100
AcDbSpline
 70
8
 71
3
 72
8
 73
4
 74
0
 40
0
 40
0
 40
0
 40
0
 40
1
 40
1
 40
1
 40
1
 10
257.168424
 20
431.374504
 30
0.0
 10
239.168464
 20
437.988560
 30
0.0
 10
221.673240
 20
445.945264
 30
0.0
 10
205.268056
 20
455.820136
 30
0.0
  0
LWPOLYLINE
  5
13b
100
AcDbEntity
  8
Medium_Features
 62
7
100
AcDbPolyline
 90
2
 70
1
 10
329.218056
 20
769.470136
 30
0.0
 10
329.218056
 20
769.470136
 30
0.0
  0
SPLINE
  5
13c
100
AcDbEntity
  8
Medium_Features
 62
7
100
AcDbSpline
 70
8
 71
3
 72
8
 73
4
 74
0
 40
0
 40
0
 40
0
 40
0
 40
1
 40
1
 40
1
 40
1
 10
156.643016
 20
513.145136
 30
0.0
 10
156.651416
 20
513.145440
 30
0.0
 10
156.659576
 20
513.144840
 30
0.0
 10
156.667976
 20
513.145136
 30
0.0
  0
SPLINE
  5
13d
100
AcDbEntity
  8
Medium_Features
 62
7
100
AcDbSpline
 70
8
 71
3
 72
8
 73
4
 74
0
 40
0
 40
0
 40
0
 40
0
 40
1
 40
1
 40
1
 40
1
 10
156.667976
 20
513.145136
 30
0.0
 10
163.823456
 20
513.393760
 30
0.0
 10
170.743864
 20
510.482776
 30
0.0
 10
176.642976
 20
506.495136
 30
0.0
  0
LWPOLYLINE
  5
13e
100
AcDbEntity
  8
Medium_Features
 62
7
100
AcDbPolyline
 90
3
 70
1
 10
205.268056
 20
455.820136
 30
0.0
 10
205.193096
 20
455.420136
 30
0.0
 10
205.193056
 20
455.420136
 30
0.0
  0
SPLINE
  5
13f
100
AcDbEntity
  8
Medium_Features
 62
7
100
AcDbSpline
 70
8
 71
3
 72
8
 73
4
 74
0
 40
0
 40
0
 40
0
 40
0
 40
1
 40
1
 40
1
 40
1
 10
176.667936
 20
506.470176
 30
0.0
 10
188.765800
 20
499.721088
 30
0.0
 10
194.366472
 20
485.460528
 30
0.0
 10
194.142936
 20
472.045176
 30
0.0
  0
SPLINE
  5
140
100
AcDbEntity
  8
Medium_Features
 62
7
100
AcDbSpline
 70
8
 71
3
 72
8
 73
4
 74
0
 40
0
 40
0
 40
0
 40
0
 40
1
 40
1
 40
1
 40
1
 10
194.142936
 20
472.045176
 30
0.0
 10
194.142800
 20
472.036936
 30
0.0
 10
194.143080
 20
472.028456
 30
0.0
 10
194.142936
 20
472.020216
 30
0.0
  0
SPLINE
  5
141
100
AcDbEntity
  8
Medium_Features
 62
7
100
AcDbSpline
 70
8
 71
3
 72
8
 73
4
 74
0
 40
0
 40
0
 40
0
 40
0
 40
1
 40
1
 40
1
 40
1
 10
194.142936
 20
472.020216
 30
0.0
 10
192.998168
 20
446.184768
 30
0.0
 10
183.528800
 20
421.574968
 30
0.0
 10
173.667936
 20
397.820216
 30
0.0
  0
SPLINE
  5
142
100
AcDbEntity
  8
Medium_Features
 62
7
100
AcDbSpline
 70
8
 71
3
 72
8
 73
4
 74
0
 40
0
 40
0
 40
0
 40
0
 40
1
 40
1
 40
1
 40
1
 10
173.667936
 20
397.820216
 30
0.0
 10
173.664736
 20
397.813016
 30
0.0
 10
173.671136
 20
397.802296
 30
0.0
 10
173.667936
 20
397.795256
 30
0.0
  0
SPLINE
  5
143
100
AcDbEntity
  8
Medium_Features
 62
7
100
AcDbSpline
 70
8
 71
3
 72
8
 73
4
 74
0
 40
0
 40
0
 40
0
 40
0
 40
1
 40
1
 40
1
 40
1
 10
173.667936
 20
397.795256
 30
0.0
 10
156.518928
 20
358.929008
 30
0.0
 10
138.145368
 20
320.461840
 30
0.0
 10
121.517936
 20
281.295256
 30
0.0
  0
SPLINE
  5
144
100
AcDbEntity
  8
Medium_Features
 62
7
100
AcDbSpline
 70
8
 71
3
 72
8
 73
4
 74
0
 40
0
 40
0
 40
0
 40
0
 40
1
 40
1
 40
1
 40
1
 10
121.517936
 20
281.295256
 30
0.0
 10
121.514736
 20
281.288056
 30
0.0
 10
121.521136
 20
281.277256
 30
0.0
 10
121.517936
 20
281.270296
 30
0.0
  0
SPLINE
  5
145
100
AcDbEntity
  8
Medium_Features
 62
7
100
AcDbSpline
 70
8
 71
3
 72
8
 73
4
 74
0
 40
0
 40
0
 40
0
 40
0
 40
1
 40
1
 40
1
 40
1
 10
121.517936
 20
281.270296
 30
0.0
 10
113.650096
 20
264.326040
 30
0.0
 10
107.601496
 20
246.290888
 30
0.0
 10
96.092936
 20
231.570296
 30
0.0
  0
LWPOLYLINE
  5
146
100
AcDbEntity
  8
Medium_Features
 62
7
100
AcDbPolyline
 90
2
 70
1
 10
176.642976
 20
506.495136
 30
0.0
 10
176.667936
 20
506.470176
 30
0.0
  0
SPLINE
  5
147
100
AcDbEntity
  8
Medium_Features
 62
7
100
AcDbSpline
 70
8
 71
3
 72
8
 73
4
 74
0
 40
0
 40
0
 40
0
 40
0
 40
1
 40
1
 40
1
 40
1
 10
96.117896
 20
231.545336
 30
0.0
 10
94.804160
 20
230.395568
 30
0.0
 10
93.596280
 20
228.454760
 30
0.0
 10
92.242896
 20
227.120336
 30
0.0
  0
SPLINE
  5
148
100
AcDbEntity
  8
Medium_Features
 62
7
100
AcDbSpline
 70
8
 71
3
 72
8
 73
4
 74
0
 40
0
 40
0
 40
0
 40
0
 40
1
 40
1
 40
1
 40
1
 10
92.242896
 20
227.120336
 30
0.0
 10
91.555920
 20
226.442984
 30
0.0
 10
90.829096
 20
225.957576
 30
0.0
 10
90.092896
 20
225.770336
 30
0.0
  0
SPLINE
  5
149
100
AcDbEntity
  8
Medium_Features
 62
7
100
AcDbSpline
 70
8
 71
3
 72
8
 73
4
 74
0
 40
0
 40
0
 40
0
 40
0
 40
1
 40
1
 40
1
 40
1
 10
90.092896
 20
225.770336
 30
0.0
 10
89.365240
 20
225.585272
 30
0.0
 10
88.602360
 20
225.650896
 30
0.0
 10
87.667896
 20
226.245336
 30
0.0
  0
SPLINE
  5
14a
100
AcDbEntity
  8
Medium_Features
 62
7
100
AcDbSpline
 70
8
 71
3
 72
8
 73
4
 74
0
 40
0
 40
0
 40
0
 40
0
 40
1
 40
1
 40
1
 40
1
 10
87.667896
 20
226.245336
 30
0.0
 10
82.570728
 20
232.190304
 30
0.0
 10
80.570464
 20
240.498200
 30
0.0
 10
78.667896
 20
248.070336
 30
0.0
  0
SPLINE
  5
14b
100
AcDbEntity
  8
Medium_Features
 62
7
100
AcDbSpline
 70
8
 71
3
 72
8
 73
4
 74
0
 40
0
 40
0
 40
0
 40
0
 40
1
 40
1
 40
1
 40
1
 10
78.667896
 20
248.070336
 30
0.0
 10
78.666296
 20
248.078416
 30
0.0
 10
78.669496
 20
248.087216
 30
0.0
 10
78.667896
 20
248.095296
 30
0.0
  0
SPLINE
  5
14c
100
AcDbEntity
  8
Medium_Features
 62
7
100
AcDbSpline
 70
8
 71
3
 72
8
 73
4
 74
0
 40
0
 40
0
 40
0
 40
0
 40
1
 40
1
 40
1
 40
1
 10
78.667896
 20
248.095296
 30
0.0
 10
73.423032
 20
278.294552
 30
0.0
 10
73.963496
 20
309.561816
 30
0.0
 10
79.067896
 20
339.770296
 30
0.0
  0
SPLINE
  5
14d
100
AcDbEntity
  8
Medium_Features
 62
7
100
AcDbSpline
 70
8
 71
3
 72
8
 73
4
 74
0
 40
0
 40
0
 40
0
 40
0
 40
1
 40
1
 40
1
 40
1
 10
79.067896
 20
339.770296
 30
0.0
 10
89.051080
 20
390.594080
 30
0.0
 10
103.249304
 20
441.237592
 30
0.0
 10
128.142896
 20
486.870296
 30
0.0
  0
LWPOLYLINE
  5
14e
100
AcDbEntity
  8
Medium_Features
 62
7
100
AcDbPolyline
 90
2
 70
1
 10
96.092936
 20
231.570296
 30
0.0
 10
96.117896
 20
231.545336
 30
0.0
  0
SPLINE
  5
14f
100
AcDbEntity
  8
Medium_Features
 62
7
100
AcDbSpline
 70
8
 71
3
 72
8
 73
4
 74
0
 40
0
 40
0
 40
0
 40
0
 40
1
 40
1
 40
1
 40
1
 10
128.117936
 20
486.870296
 30
0.0
 10
131.423760
 20
492.470080
 30
0.0
 10
135.094464
 20
498.613008
 30
0.0
 10
139.667936
 20
503.570296
 30
0.0
  0
SPLINE
  5
150
100
AcDbEntity
  8
Medium_Features
 62
7
100
AcDbSpline
 70
8
 71
3
 72
8
 73
4
 74
0
 40
0
 40
0
 40
0
 40
0
 40
1
 40
1
 40
1
 40
1
 10
139.667936
 20
503.570296
 30
0.0
 10
144.235928
 20
508.521648
 30
0.0
 10
149.695384
 20
512.278440
 30
0.0
 10
156.642936
 20
513.145296
 30
0.0
  0
LWPOLYLINE
  5
151
100
AcDbEntity
  8
Medium_Features
 62
7
100
AcDbPolyline
 90
2
 70
1
 10
128.142896
 20
486.870296
 30
0.0
 10
128.117936
 20
486.870296
 30
0.0
  0
SPLINE
  5
152
100
AcDbEntity
  8
Medium_Features
 62
7
100
AcDbSpline
 70
8
 71
3
 72
8
 73
4
 74
0
 40
0
 40
0
 40
0
 40
0
 40
1
 40
1
 40
1
 40
1
 10
419.643056
 20
465.945136
 30
0.0
 10
408.939240
 20
464.186528
 30
0.0
 10
404.228928
 20
452.270824
 30
0.0
 10
403.330456
 20
442.632056
 30
0.0
  0
SPLINE
  5
153
100
AcDbEntity
  8
Medium_Features
 62
7
100
AcDbSpline
 70
8
 71
3
 72
8
 73
4
 74
0
 40
0
 40
0
 40
0
 40
0
 40
1
 40
1
 40
1
 40
1
 10
403.330456
 20
442.632056
 30
0.0
 10
396.545928
 20
402.464512
 30
0.0
 10
401.905688
 20
360.864184
 30
0.0
 10
415.853848
 20
322.813840
 30
0.0
  0
SPLINE
  5
154
100
AcDbEntity
  8
Medium_Features
 62
7
100
AcDbSpline
 70
8
 71
3
 72
8
 73
4
 74
0
 40
0
 40
0
 40
0
 40
0
 40
1
 40
1
 40
1
 40
1
 10
415.853848
 20
322.813840
 30
0.0
 10
423.529720
 20
301.550344
 30
0.0
 10
431.969648
 20
279.788808
 30
0.0
 10
446.843056
 20
262.495136
 30
0.0
  0
SPLINE
  5
155
100
AcDbEntity
  8
Medium_Features
 62
7
100
AcDbSpline
 70
8
 71
3
 72
8
 73
4
 74
0
 40
0
 40
0
 40
0
 40
0
 40
1
 40
1
 40
1
 40
1
 10
446.843056
 20
262.495136
 30
0.0
 10
456.251352
 20
251.796184
 30
0.0
 10
471.564736
 20
242.934088
 30
0.0
 10
485.868056
 20
248.795136
 30
0.0
  0
SPLINE
  5
156
100
AcDbEntity
  8
Medium_Features
 62
7
100
AcDbSpline
 70
8
 71
3
 72
8
 73
4
 74
0
 40
0
 40
0
 40
0
 40
0
 40
1
 40
1
 40
1
 40
1
 10
485.868056
 20
248.795136
 30
0.0
 10
503.866104
 20
255.122848
 30
0.0
 10
515.472504
 20
273.134776
 30
0.0
 10
519.443056
 20
291.220136
 30
0.0
  0
SPLINE
  5
157
100
AcDbEntity
  8
Medium_Features
 62
7
100
AcDbSpline
 70
8
 71
3
 72
8
 73
4
 74
0
 40
0
 40
0
 40
0
 40
0
 40
1
 40
1
 40
1
 40
1
 10
519.443056
 20
291.220136
 30
0.0
 10
527.167240
 20
323.447152
 30
0.0
 10
516.962632
 20
357.007032
 30
0.0
 10
500.259544
 20
384.650824
 30
0.0
  0
SPLINE
  5
158
100
AcDbEntity
  8
Medium_Features
 62
7
100
AcDbSpline
 70
8
 71
3
 72
8
 73
4
 74
0
 40
0
 40
0
 40
0
 40
0
 40
1
 40
1
 40
1
 40
1
 10
500.259544
 20
384.650824
 30
0.0
 10
484.729424
 20
410.655584
 30
0.0
 10
464.821576
 20
433.826376
 30
0.0
 10
442.859240
 20
454.414120
 30
0.0
  0
SPLINE
  5
159
100
AcDbEntity
  8
Medium_Features
 62
7
100
AcDbSpline
 70
8
 71
3
 72
8
 73
4
 74
0
 40
0
 40
0
 40
0
 40
0
 40
1
 40
1
 40
1
 40
1
 10
442.859240
 20
454.414120
 30
0.0
 10
436.273072
 20
460.039712
 30
0.0
 10
428.819616
 20
466.278392
 30
0.0
 10
419.643056
 20
465.945136
 30
0.0
  0
LWPOLYLINE
  5
15a
100
AcDbEntity
  8
Medium_Features
 62
7
100
AcDbPolyline
 90
2
 70
1
 10
156.642936
 20
513.145296
 30
0.0
 10
156.643016
 20
513.145136
 30
0.0
  0
SPLINE
  5
15b
100
AcDbEntity
  8
Medium_Features
 62
7
100
AcDbSpline
 70
8
 71
3
 72
8
 73
4
 74
0
 40
0
 40
0
 40
0
 40
0
 40
1
 40
1
 40
1
 40
1
 10
198.158216
 20
527.601488
 30
0.0
 10
198.158216
 20
527.601488
 30
0.0
 10
182.636032
 20
523.808784
 30
0.0
 10
176.868056
 20
522.545136
 30
0.0
  0
SPLINE
  5
15c
100
AcDbEntity
  8
Medium_Features
 62
7
100
AcDbSpline
 70
8
 71
3
 72
8
 73
4
 74
0
 40
0
 40
0
 40
0
 40
0
 40
1
 40
1
 40
1
 40
1
 10
176.868056
 20
522.545136
 30
0.0
 10
192.519184
 20
515.621504
 30
0.0
 10
204.717648
 20
500.141488
 30
0.0
 10
205.143056
 20
482.645136
 30
0.0
  0
SPLINE
  5
15d
100
AcDbEntity
  8
Medium_Features
 62
7
100
AcDbSpline
 70
8
 71
3
 72
8
 73
4
 74
0
 40
0
 40
0
 40
0
 40
0
 40
1
 40
1
 40
1
 40
1
 10
205.143056
 20
482.645136
 30
0.0
 10
205.560904
 20
478.525952
 30
0.0
 10
205.654336
 20
474.382440
 30
0.0
 10
205.718056
 20
470.245136
 30
0.0
  0
SPLINE
  5
15e
100
AcDbEntity
  8
Medium_Features
 62
7
100
AcDbSpline
 70
8
 71
3
 72
8
 73
4
 74
0
 40
0
 40
0
 40
0
 40
0
 40
1
 40
1
 40
1
 40
1
 10
205.718056
 20
470.245136
 30
0.0
 10
244.081592
 20
446.958520
 30
0.0
 10
286.687576
 20
431.408848
 30
0.0
 10
330.477080
 20
421.935360
 30
0.0
  0
SPLINE
  5
15f
100
AcDbEntity
  8
Medium_Features
 62
7
100
AcDbSpline
 70
8
 71
3
 72
8
 73
4
 74
0
 40
0
 40
0
 40
0
 40
0
 40
1
 40
1
 40
1
 40
1
 10
330.477080
 20
421.935360
 30
0.0
 10
349.487336
 20
417.632176
 30
0.0
 10
368.759680
 20
414.565088
 30
0.0
 10
388.243056
 20
413.795136
 30
0.0
  0
SPLINE
  5
160
100
AcDbEntity
  8
Medium_Features
 62
7
100
AcDbSpline
 70
8
 71
3
 72
8
 73
4
 74
0
 40
0
 40
0
 40
0
 40
0
 40
1
 40
1
 40
1
 40
1
 10
388.243056
 20
413.795136
 30
0.0
 10
387.674416
 20
421.689584
 30
0.0
 10
388.886184
 20
429.680968
 30
0.0
 10
389.693056
 20
437.420136
 30
0.0
  0
SPLINE
  5
161
100
AcDbEntity
  8
Medium_Features
 62
7
100
AcDbSpline
 70
8
 71
3
 72
8
 73
4
 74
0
 40
0
 40
0
 40
0
 40
0
 40
1
 40
1
 40
1
 40
1
 10
389.693056
 20
437.420136
 30
0.0
 10
346.207568
 20
436.508704
 30
0.0
 10
302.902288
 20
448.986656
 30
0.0
 10
264.938904
 20
468.949824
 30
0.0
  0
SPLINE
  5
162
100
AcDbEntity
  8
Medium_Features
 62
7
100
AcDbSpline
 70
8
 71
3
 72
8
 73
4
 74
0
 40
0
 40
0
 40
0
 40
0
 40
1
 40
1
 40
1
 40
1
 10
264.938904
 20
468.949824
 30
0.0
 10
238.716688
 20
482.738864
 30
0.0
 10
215.791872
 20
505.644384
 30
0.0
 10
198.158216
 20
527.601488
 30
0.0
  0
LWPOLYLINE
  5
163
100
AcDbEntity
  8
Medium_Features
 62
7
100
AcDbPolyline
 90
2
 70
1
 10
419.643056
 20
465.945136
 30
0.0
 10
419.643056
 20
465.945136
 30
0.0
  0
SPLINE
  5
164
100
AcDbEntity
  8
Medium_Features
 62
7
100
AcDbSpline
 70
8
 71
3
 72
8
 73
4
 74
0
 40
0
 40
0
 40
0
 40
0
 40
1
 40
1
 40
1
 40
1
 10
466.693056
 20
474.220136
 30
0.0
 10
462.440648
 20
470.626464
 30
0.0
 10
457.999112
 20
467.356336
 30
0.0
 10
453.468056
 20
464.120136
 30
0.0
  0
SPLINE
  5
165
100
AcDbEntity
  8
Medium_Features
 62
7
100
AcDbSpline
 70
8
 71
3
 72
8
 73
4
 74
0
 40
0
 40
0
 40
0
 40
0
 40
1
 40
1
 40
1
 40
1
 10
453.468056
 20
464.120136
 30
0.0
 10
463.246032
 20
453.995752
 30
0.0
 10
472.680536
 20
442.805544
 30
0.0
 10
481.018056
 20
431.870136
 30
0.0
  0
SPLINE
  5
166
100
AcDbEntity
  8
Medium_Features
 62
7
100
AcDbSpline
 70
8
 71
3
 72
8
 73
4
 74
0
 40
0
 40
0
 40
0
 40
0
 40
1
 40
1
 40
1
 40
1
 10
481.018056
 20
431.870136
 30
0.0
 10
488.335264
 20
435.797776
 30
0.0
 10
491.730328
 20
445.468136
 30
0.0
 10
487.368056
 20
452.720136
 30
0.0
  0
SPLINE
  5
167
100
AcDbEntity
  8
Medium_Features
 62
7
100
AcDbSpline
 70
8
 71
3
 72
8
 73
4
 74
0
 40
0
 40
0
 40
0
 40
0
 40
1
 40
1
 40
1
 40
1
 10
487.368056
 20
452.720136
 30
0.0
 10
483.535704
 20
462.095376
 30
0.0
 10
476.230760
 20
470.285696
 30
0.0
 10
467.118056
 20
474.595136
 30
0.0
  0
LWPOLYLINE
  5
168
100
AcDbEntity
  8
Medium_Features
 62
7
100
AcDbPolyline
 90
2
 70
1
 10
198.158216
 20
527.601488
 30
0.0
 10
198.158216
 20
527.601488
 30
0.0
  0
SPLINE
  5
169
100
AcDbEntity
  8
Medium_Features
 62
7
100
AcDbSpline
 70
8
 71
3
 72
8
 73
4
 74
0
 40
0
 40
0
 40
0
 40
0
 40
1
 40
1
 40
1
 40
1
 10
326.718056
 20
758.445136
 30
0.0
 10
295.881288
 20
758.274506
 30
0.0
 10
264.313608
 20
751.240263
 30
0.0
 10
239.318056
 20
732.445136
 30
0.0
  0
SPLINE
  5
16a
100
AcDbEntity
  8
Medium_Features
 62
7
100
AcDbSpline
 70
8
 71
3
 72
8
 73
4
 74
0
 40
0
 40
0
 40
0
 40
0
 40
1
 40
1
 40
1
 40
1
 10
239.318056
 20
732.445136
 30
0.0
 10
206.183152
 20
709.307301
 30
0.0
 10
183.352280
 20
671.643976
 30
0.0
 10
179.893056
 20
631.220136
 30
0.0
  0
SPLINE
  5
16b
100
AcDbEntity
  8
Medium_Features
 62
7
100
AcDbSpline
 70
8
 71
3
 72
8
 73
4
 74
0
 40
0
 40
0
 40
0
 40
0
 40
1
 40
1
 40
1
 40
1
 10
179.893056
 20
631.220136
 30
0.0
 10
176.519312
 20
600.394728
 30
0.0
 10
189.190336
 20
570.302512
 30
0.0
 10
204.286352
 20
544.252616
 30
0.0
  0
SPLINE
  5
16c
100
AcDbEntity
  8
Medium_Features
 62
7
100
AcDbSpline
 70
8
 71
3
 72
8
 73
4
 74
0
 40
0
 40
0
 40
0
 40
0
 40
1
 40
1
 40
1
 40
1
 10
204.286352
 20
544.252616
 30
0.0
 10
217.910496
 20
520.742600
 30
0.0
 10
238.141440
 20
500.110752
 30
0.0
 10
261.439472
 20
486.127200
 30
0.0
  0
SPLINE
  5
16d
100
AcDbEntity
  8
Medium_Features
 62
7
100
AcDbSpline
 70
8
 71
3
 72
8
 73
4
 74
0
 40
0
 40
0
 40
0
 40
0
 40
1
 40
1
 40
1
 40
1
 10
261.439472
 20
486.127200
 30
0.0
 10
299.855448
 20
463.069832
 30
0.0
 10
328.465584
 20
447.574272
 30
0.0
 10
390.343056
 20
448.038784
 30
0.0
  0
SPLINE
  5
16e
100
AcDbEntity
  8
Medium_Features
 62
7
100
AcDbSpline
 70
8
 71
3
 72
8
 73
4
 74
0
 40
0
 40
0
 40
0
 40
0
 40
1
 40
1
 40
1
 40
1
 10
390.343056
 20
448.038784
 30
0.0
 10
390.839872
 20
450.360880
 30
0.0
 10
391.371120
 20
455.021936
 30
0.0
 10
392.168056
 20
457.270136
 30
0.0
  0
SPLINE
  5
16f
100
AcDbEntity
  8
Medium_Features
 62
7
100
AcDbSpline
 70
8
 71
3
 72
8
 73
4
 74
0
 40
0
 40
0
 40
0
 40
0
 40
1
 40
1
 40
1
 40
1
 10
392.168056
 20
457.270136
 30
0.0
 10
354.342192
 20
454.806456
 30
0.0
 10
315.504696
 20
464.366080
 30
0.0
 10
284.043056
 20
485.445136
 30
0.0
  0
SPLINE
  5
170
100
AcDbEntity
  8
Medium_Features
 62
7
100
AcDbSpline
 70
8
 71
3
 72
8
 73
4
 74
0
 40
0
 40
0
 40
0
 40
0
 40
1
 40
1
 40
1
 40
1
 10
284.043056
 20
485.445136
 30
0.0
 10
263.304480
 20
500.011272
 30
0.0
 10
246.997760
 20
523.993872
 30
0.0
 10
248.668056
 20
550.245136
 30
0.0
  0
SPLINE
  5
171
100
AcDbEntity
  8
Medium_Features
 62
7
100
AcDbSpline
 70
8
 71
3
 72
8
 73
4
 74
0
 40
0
 40
0
 40
0
 40
0
 40
1
 40
1
 40
1
 40
1
 10
248.668056
 20
550.245136
 30
0.0
 10
250.601048
 20
571.027352
 30
0.0
 10
265.555536
 20
587.482032
 30
0.0
 10
280.768056
 20
600.345136
 30
0.0
  0
SPLINE
  5
172
100
AcDbEntity
  8
Medium_Features
 62
7
100
AcDbSpline
 70
8
 71
3
 72
8
 73
4
 74
0
 40
0
 40
0
 40
0
 40
0
 40
1
 40
1
 40
1
 40
1
 10
280.768056
 20
600.345136
 30
0.0
 10
311.453944
 20
625.320240
 30
0.0
 10
352.306512
 20
633.618456
 30
0.0
 10
391.168008
 20
633.432832
 30
0.0
  0
SPLINE
  5
173
100
AcDbEntity
  8
Medium_Features
 62
7
100
AcDbSpline
 70
8
 71
3
 72
8
 73
4
 74
0
 40
0
 40
0
 40
0
 40
0
 40
1
 40
1
 40
1
 40
1
 10
391.168008
 20
633.432832
 30
0.0
 10
424.149976
 20
633.824016
 30
0.0
 10
459.561496
 20
629.861552
 30
0.0
 10
486.543056
 20
609.520136
 30
0.0
  0
SPLINE
  5
174
100
AcDbEntity
  8
Medium_Features
 62
7
100
AcDbSpline
 70
8
 71
3
 72
8
 73
4
 74
0
 40
0
 40
0
 40
0
 40
0
 40
1
 40
1
 40
1
 40
1
 10
486.543056
 20
609.520136
 30
0.0
 10
495.889920
 20
602.154008
 30
0.0
 10
503.601608
 20
592.217768
 30
0.0
 10
507.018056
 20
580.670136
 30
0.0
  0
SPLINE
  5
175
100
AcDbEntity
  8
Medium_Features
 62
7
100
AcDbSpline
 70
8
 71
3
 72
8
 73
4
 74
0
 40
0
 40
0
 40
0
 40
0
 40
1
 40
1
 40
1
 40
1
 10
507.018056
 20
580.670136
 30
0.0
 10
509.172232
 20
612.082664
 30
0.0
 10
502.693528
 20
643.690016
 30
0.0
 10
491.030096
 20
672.712448
 30
0.0
  0
SPLINE
  5
176
100
AcDbEntity
  8
Medium_Features
 62
7
100
AcDbSpline
 70
8
 71
3
 72
8
 73
4
 74
0
 40
0
 40
0
 40
0
 40
0
 40
1
 40
1
 40
1
 40
1
 10
491.030096
 20
672.712448
 30
0.0
 10
481.575048
 20
695.416366
 30
0.0
 10
465.507488
 20
715.027547
 30
0.0
 10
444.483768
 20
727.753123
 30
0.0
  0
SPLINE
  5
177
100
AcDbEntity
  8
Medium_Features
 62
7
100
AcDbSpline
 70
8
 71
3
 72
8
 73
4
 74
0
 40
0
 40
0
 40
0
 40
0
 40
1
 40
1
 40
1
 40
1
 10
444.483768
 20
727.753123
 30
0.0
 10
409.837296
 20
750.322284
 30
0.0
 10
367.762944
 20
758.883980
 30
0.0
 10
326.718056
 20
758.445136
 30
0.0
  0
LWPOLYLINE
  5
178
100
AcDbEntity
  8
Medium_Features
 62
7
100
AcDbPolyline
 90
3
 70
1
 10
467.118056
 20
474.595136
 30
0.0
 10
466.693056
 20
474.220136
 30
0.0
 10
466.693056
 20
474.220136
 30
0.0
  0
SPLINE
  5
179
100
AcDbEntity
  8
Medium_Features
 62
7
100
AcDbSpline
 70
8
 71
3
 72
8
 73
4
 74
0
 40
0
 40
0
 40
0
 40
0
 40
1
 40
1
 40
1
 40
1
 10
385.575000
 20
622.064760
 30
0.0
 10
346.398672
 20
621.228872
 30
0.0
 10
305.124456
 20
610.236392
 30
0.0
 10
277.025000
 20
581.789760
 30
0.0
  0
SPLINE
  5
17a
100
AcDbEntity
  8
Medium_Features
 62
7
100
AcDbSpline
 70
8
 71
3
 72
8
 73
4
 74
0
 40
0
 40
0
 40
0
 40
0
 40
1
 40
1
 40
1
 40
1
 10
277.025000
 20
581.789760
 30
0.0
 10
264.715648
 20
569.035520
 30
0.0
 10
255.607680
 20
550.255016
 30
0.0
 10
261.025000
 20
532.314760
 30
0.0
  0
SPLINE
  5
17b
100
AcDbEntity
  8
Medium_Features
 62
7
100
AcDbSpline
 70
8
 71
3
 72
8
 73
4
 74
0
 40
0
 40
0
 40
0
 40
0
 40
1
 40
1
 40
1
 40
1
 10
261.025000
 20
532.314760
 30
0.0
 10
268.647552
 20
507.135896
 30
0.0
 10
291.914136
 20
490.774504
 30
0.0
 10
315.025000
 20
480.814760
 30
0.0
  0
SPLINE
  5
17c
100
AcDbEntity
  8
Medium_Features
 62
7
100
AcDbSpline
 70
8
 71
3
 72
8
 73
4
 74
0
 40
0
 40
0
 40
0
 40
0
 40
1
 40
1
 40
1
 40
1
 10
315.025000
 20
480.814760
 30
0.0
 10
342.173880
 20
469.126208
 30
0.0
 10
373.091680
 20
463.759648
 30
0.0
 10
402.200000
 20
470.864760
 30
0.0
  0
SPLINE
  5
17d
100
AcDbEntity
  8
Medium_Features
 62
7
100
AcDbSpline
 70
8
 71
3
 72
8
 73
4
 74
0
 40
0
 40
0
 40
0
 40
0
 40
1
 40
1
 40
1
 40
1
 10
402.200000
 20
470.864760
 30
0.0
 10
408.023616
 20
475.556408
 30
0.0
 10
415.386976
 20
483.587544
 30
0.0
 10
423.500000
 20
479.639760
 30
0.0
  0
SPLINE
  5
17e
100
AcDbEntity
  8
Medium_Features
 62
7
100
AcDbSpline
 70
8
 71
3
 72
8
 73
4
 74
0
 40
0
 40
0
 40
0
 40
0
 40
1
 40
1
 40
1
 40
1
 10
423.500000
 20
479.639760
 30
0.0
 10
432.181824
 20
476.009448
 30
0.0
 10
442.414904
 20
476.909304
 30
0.0
 10
450.200000
 20
482.214760
 30
0.0
  0
SPLINE
  5
17f
100
AcDbEntity
  8
Medium_Features
 62
7
100
AcDbSpline
 70
8
 71
3
 72
8
 73
4
 74
0
 40
0
 40
0
 40
0
 40
0
 40
1
 40
1
 40
1
 40
1
 10
450.200000
 20
482.214760
 30
0.0
 10
483.051080
 20
498.278136
 30
0.0
 10
503.524424
 20
537.862528
 30
0.0
 10
495.025000
 20
574.014760
 30
0.0
  0
SPLINE
  5
180
100
AcDbEntity
  8
Medium_Features
 62
7
100
AcDbSpline
 70
8
 71
3
 72
8
 73
4
 74
0
 40
0
 40
0
 40
0
 40
0
 40
1
 40
1
 40
1
 40
1
 10
495.025000
 20
574.014760
 30
0.0
 10
490.333480
 20
591.832344
 30
0.0
 10
475.608504
 20
605.590968
 30
0.0
 10
458.350000
 20
611.314760
 30
0.0
  0
SPLINE
  5
181
100
AcDbEntity
  8
Medium_Features
 62
7
100
AcDbSpline
 70
8
 71
3
 72
8
 73
4
 74
0
 40
0
 40
0
 40
0
 40
0
 40
1
 40
1
 40
1
 40
1
 10
458.350000
 20
611.314760
 30
0.0
 10
435.344288
 20
620.494016
 30
0.0
 10
410.115832
 20
621.750864
 30
0.0
 10
385.575000
 20
622.064760
 30
0.0
  0
LWPOLYLINE
  5
182
100
AcDbEntity
  8
Medium_Features
 62
7
100
AcDbPolyline
 90
2
 70
1
 10
326.718056
 20
758.445136
 30
0.0
 10
326.718056
 20
758.445136
 30
0.0
  0
SPLINE
  5
183
100
AcDbEntity
  8
Medium_Features
 62
7
100
AcDbSpline
 70
8
 71
3
 72
8
 73
4
 74
0
 40
0
 40
0
 40
0
 40
0
 40
1
 40
1
 40
1
 40
1
 10
332.025000
 20
567.389760
 30
0.0
 10
334.677008
 20
567.448560
 30
0.0
 10
337.333920
 20
567.227896
 30
0.0
 10
339.950000
 20
566.714760
 30
0.0
  0
SPLINE
  5
184
100
AcDbEntity
  8
Medium_Features
 62
7
100
AcDbSpline
 70
8
 71
3
 72
8
 73
4
 74
0
 40
0
 40
0
 40
0
 40
0
 40
1
 40
1
 40
1
 40
1
 10
339.950000
 20
566.714760
 30
0.0
 10
357.305608
 20
563.310504
 30
0.0
 10
370.495240
 20
549.183448
 30
0.0
 10
376.150000
 20
527.939760
 30
0.0
  0
SPLINE
  5
185
100
AcDbEntity
  8
Medium_Features
 62
7
100
AcDbSpline
 70
8
 71
3
 72
8
 73
4
 74
0
 40
0
 40
0
 40
0
 40
0
 40
1
 40
1
 40
1
 40
1
 10
376.150000
 20
527.939760
 30
0.0
 10
373.260384
 20
530.254208
 30
0.0
 10
370.501456
 20
532.707120
 30
0.0
 10
367.350000
 20
534.764760
 30
0.0
  0
SPLINE
  5
186
100
AcDbEntity
  8
Medium_Features
 62
7
100
AcDbSpline
 70
8
 71
3
 72
8
 73
4
 74
0
 40
0
 40
0
 40
0
 40
0
 40
1
 40
1
 40
1
 40
1
 10
367.350000
 20
534.764760
 30
0.0
 10
346.453520
 20
548.740080
 30
0.0
 10
318.190008
 20
549.389616
 30
0.0
 10
293.475000
 20
545.264760
 30
0.0
  0
SPLINE
  5
187
100
AcDbEntity
  8
Medium_Features
 62
7
100
AcDbSpline
 70
8
 71
3
 72
8
 73
4
 74
0
 40
0
 40
0
 40
0
 40
0
 40
1
 40
1
 40
1
 40
1
 10
293.475000
 20
545.264760
 30
0.0
 10
303.303880
 20
558.684608
 30
0.0
 10
317.704168
 20
567.072416
 30
0.0
 10
332.025000
 20
567.389760
 30
0.0
  0
LWPOLYLINE
  5
188
100
AcDbEntity
  8
Medium_Features
 62
7
100
AcDbPolyline
 90
2
 70
1
 10
385.575000
 20
622.064760
 30
0.0
 10
385.575000
 20
622.064760
 30
0.0
  0
SPLINE
  5
189
100
AcDbEntity
  8
Medium_Features
 62
7
100
AcDbSpline
 70
8
 71
3
 72
8
 73
4
 74
0
 40
0
 40
0
 40
0
 40
0
 40
1
 40
1
 40
1
 40
1
 10
433.725000
 20
553.514760
 30
0.0
 10
437.728368
 20
553.594600
 30
0.0
 10
441.811576
 20
553.086424
 30
0.0
 10
446.000000
 20
552.089760
 30
0.0
  0
SPLINE
  5
18a
100
AcDbEntity
  8
Medium_Features
 62
7
100
AcDbSpline
 70
8
 71
3
 72
8
 73
4
 74
0
 40
0
 40
0
 40
0
 40
0
 40
1
 40
1
 40
1
 40
1
 10
446.000000
 20
552.089760
 30
0.0
 10
454.207256
 20
550.136784
 30
0.0
 10
463.176416
 20
538.055944
 30
0.0
 10
461.400000
 20
532.014760
 30
0.0
  0
SPLINE
  5
18b
100
AcDbEntity
  8
Medium_Features
 62
7
100
AcDbSpline
 70
8
 71
3
 72
8
 73
4
 74
0
 40
0
 40
0
 40
0
 40
0
 40
1
 40
1
 40
1
 40
1
 10
461.400000
 20
532.014760
 30
0.0
 10
449.128080
 20
539.955792
 30
0.0
 10
412.009464
 20
539.513784
 30
0.0
 10
392.800000
 20
526.439760
 30
0.0
  0
SPLINE
  5
18c
100
AcDbEntity
  8
Medium_Features
 62
7
100
AcDbSpline
 70
8
 71
3
 72
8
 73
4
 74
0
 40
0
 40
0
 40
0
 40
0
 40
1
 40
1
 40
1
 40
1
 10
392.800000
 20
526.439760
 30
0.0
 10
406.139848
 20
545.516000
 30
0.0
 10
419.427256
 20
553.229600
 30
0.0
 10
433.725000
 20
553.514760
 30
0.0
  0
LWPOLYLINE
  5
18d
100
AcDbEntity
  8
Medium_Features
 62
7
100
AcDbPolyline
 90
2
 70
1
 10
332.025000
 20
567.389760
 30
0.0
 10
332.025000
 20
567.389760
 30
0.0
  0
LWPOLYLINE
  5
18e
100
AcDbEntity
  8
Medium_Features
 62
7
100
AcDbPolyline
 90
2
 70
1
 10
433.725000
 20
553.514760
 30
0.0
 10
433.725000
 20
553.514760
 30
0.0
  0
ENDSEC
  0
SECTION
  2
OBJECTS
  0
DICTIONARY
  5
C
330
0
100
AcDbDictionary
  3
ACAD_GROUP
350
D
  3
ACAD_MLINESTYLE
350
17
  0
DICTIONARY
  5
D
330
C
100
AcDbDictionary
  0
DICTIONARY
  5
1A
330
C
100
AcDbDictionary
  0
DICTIONARY
  5
17
330
C
100
AcDbDictionary
  3
STANDARD
350
18
  0
DICTIONARY
  5
19
330
C
100
AcDbDictionary
  0
ENDSEC
  0
EOF
