  0
SECTION
  2
HEADER
  9
$ACADVER
  1
AC1014
  9
$HANDSEED
  5
FFFF
  9
$MEASUREMENT
 70
     1
  0
ENDSEC
  0
SECTION
  2
TABLES
  0
TABLE
  2
VPORT
  5
8
330
0
100
AcDbSymbolTable
 70
     4
  0
VPORT
  5
2E
330
8
100
AcDbSymbolTableRecord
100
AcDbViewportTableRecord
  2
*ACTIVE
 70
     0
 10
0.0
 20
0.0
 11
1.0
 21
1.0
 12
210.0
 22
148.5
 13
0.0
 23
0.0
 14
10.0
 24
10.0
 15
10.0
 25
10.0
 16
0.0
 26
0.0
 36
1.0
 17
0.0
 27
0.0
 37
0.0
 40
341.0
 41
1.24
 42
50.0
 43
0.0
 44
0.0
 50
0.0
 51
0.0
 71
     0
 72
   100
 73
     1
 74
     3
 75
     0
 76
     0
 77
     0
 78
     0
  0
ENDTAB
  0
TABLE
  2
LTYPE
  5
5
330
0
100
AcDbSymbolTable
 70
     1
  0
LTYPE
  5
14
330
5
100
AcDbSymbolTableRecord
100
AcDbLinetypeTableRecord
  2
BYBLOCK
 70
     0
  3

 72
    65
 73
     0
 40
0.0
  0
LTYPE
  5
15
330
5
100
AcDbSymbolTableRecord
100
AcDbLinetypeTableRecord
  2
BYLAYER
 70
     0
  3

 72
    65
 73
     0
 40
0.0
  0
LTYPE
  5
16
330
5
100
AcDbSymbolTableRecord
100
AcDbLinetypeTableRecord
  2
CONTINUOUS
 70
     0
  3
Solid line
 72
    65
 73
     0
 40
0.0
  0
ENDTAB
  0
TABLE
  2
LAYER
  5
2
100
AcDbSymbolTable
 70
4
  0
LAYER
  5
50
100
AcDbSymbolTableRecord
100
AcDbLayerTableRecord
  2
0
 70
0
  6
CONTINUOUS
  0
LAYER
  5
51
100
AcDbSymbolTableRecord
100
AcDbLayerTableRecord
  2
Base
 70
0
  6
CONTINUOUS
  0
LAYER
  5
52
100
AcDbSymbolTableRecord
100
AcDbLayerTableRecord
  2
Tall_Outline
 70
0
  6
CONTINUOUS
  0
LAYER
  5
53
100
AcDbSymbolTableRecord
100
AcDbLayerTableRecord
  2
Medium_Features
 70
0
  6
CONTINUOUS
  0
ENDTAB
  0
TABLE
  2
STYLE
  5
3
330
0
100
AcDbSymbolTable
 70
     1
  0
STYLE
  5
11
330
3
100
AcDbSymbolTableRecord
100
AcDbTextStyleTableRecord
  2
STANDARD
 70
     0
 40
0.0
 41
1.0
 50
0.0
 71
     0
 42
2.5
  3
txt
  4

  0
ENDTAB
  0
TABLE
  2
VIEW
  5
6
330
0
100
AcDbSymbolTable
 70
     0
  0
ENDTAB
  0
TABLE
  2
UCS
  5
7
330
0
100
AcDbSymbolTable
 70
     0
  0
ENDTAB
  0
TABLE
  2
APPID
  5
9
330
0
100
AcDbSymbolTable
 70
     2
  0
APPID
  5
12
330
9
100
AcDbSymbolTableRecord
100
AcDbRegAppTableRecord
  2
ACAD
 70
     0
  0
ENDTAB
  0
TABLE
  2
DIMSTYLE
  5
A
330
0
100
AcDbSymbolTable
 70
     1
  0
DIMSTYLE
105
27
330
A
100
AcDbSymbolTableRecord
100
AcDbDimStyleTableRecord
  2
ISO-25
 70
     0
  3

  4

  5

  6

  7

 40
1.0
 41
2.5
 42
0.625
 43
3.75
 44
1.25
 45
0.0
 46
0.0
 47
0.0
 48
0.0
140
2.5
141
2.5
142
0.0
143
0.03937007874016
144
1.0
145
0.0
146
1.0
147
0.625
 71
     0
 72
     0
 73
     0
 74
     0
 75
     0
 76
     0
 77
     1
 78
     8
170
     0
171
     3
172
     1
173
     0
174
     0
175
     0
176
     0
177
     0
178
     0
270
     2
271
     2
272
     2
273
     2
274
     3
340
11
275
     0
280
     0
281
     0
282
     0
283
     0
284
     8
285
     0
286
     0
287
     3
288
     0
  0
ENDTAB
  0
TABLE
  2
BLOCK_RECORD
  5
1
330
0
100
AcDbSymbolTable
 70
     1
  0
BLOCK_RECORD
  5
1F
330
1
100
AcDbSymbolTableRecord
100
AcDbBlockTableRecord
  2
*MODEL_SPACE
  0
BLOCK_RECORD
  5
1B
330
1
100
AcDbSymbolTableRecord
100
AcDbBlockTableRecord
  2
*PAPER_SPACE
  0
ENDTAB
  0
ENDSEC
  0
SECTION
  2
BLOCKS
  0
BLOCK
  5
20
330
1F
100
AcDbEntity
  8
0
100
AcDbBlockBegin
  2
*MODEL_SPACE
 70
     0
 10
0.0
 20
0.0
 30
0.0
  3
*MODEL_SPACE
  1

  0
ENDBLK
  5
21
330
1F
100
AcDbEntity
  8
0
100
AcDbBlockEnd
  0
BLOCK
  5
1C
330
1B
100
AcDbEntity
 67
     1
  8
0
100
AcDbBlockBegin
  2
*PAPER_SPACE
  1

  0
ENDBLK
  5
1D
330
1B
100
AcDbEntity
 67
     1
  8
0
100
AcDbBlockEnd
  0
ENDSEC
  0
SECTION
  2
ENTITIES
  0
SPLINE
  5
100
100
AcDbEntity
  8
Tall_Outline
 62
7
100
AcDbSpline
 70
8
 71
3
 72
8
 73
4
 74
0
 40
0
 40
0
 40
0
 40
0
 40
1
 40
1
 40
1
 40
1
 10
327.275000
 20
786.239760
 30
0.0
 10
272.589120
 20
786.674309
 30
0.0
 10
217.331568
 20
760.990088
 30
0.0
 10
185.900880
 20
715.776672
 30
0.0
  0
SPLINE
  5
101
100
AcDbEntity
  8
Tall_Outline
 62
7
100
AcDbSpline
 70
8
 71
3
 72
8
 73
4
 74
0
 40
0
 40
0
 40
0
 40
0
 40
1
 40
1
 40
1
 40
1
 10
185.900880
 20
715.776672
 30
0.0
 10
155.980040
 20
675.421440
 30
0.0
 10
143.580112
 20
620.343392
 30
0.0
 10
160.075000
 20
571.989760
 30
0.0
  0
SPLINE
  5
102
100
AcDbEntity
  8
Tall_Outline
 62
7
100
AcDbSpline
 70
8
 71
3
 72
8
 73
4
 74
0
 40
0
 40
0
 40
0
 40
0
 40
1
 40
1
 40
1
 40
1
 10
160.075000
 20
571.989760
 30
0.0
 10
162.914800
 20
562.848416
 30
0.0
 10
167.568904
 20
553.778944
 30
0.0
 10
171.300000
 20
545.464760
 30
0.0
  0
SPLINE
  5
103
100
AcDbEntity
  8
Tall_Outline
 62
7
100
AcDbSpline
 70
8
 71
3
 72
8
 73
4
 74
0
 40
0
 40
0
 40
0
 40
0
 40
1
 40
1
 40
1
 40
1
 10
171.300000
 20
545.464760
 30
0.0
 10
147.154488
 20
540.229752
 30
0.0
 10
122.510272
 20
528.910192
 30
0.0
 10
109.248256
 20
507.104512
 30
0.0
  0
SPLINE
  5
104
100
AcDbEntity
  8
Tall_Outline
 62
7
100
AcDbSpline
 70
8
 71
3
 72
8
 73
4
 74
0
 40
0
 40
0
 40
0
 40
0
 40
1
 40
1
 40
1
 40
1
 10
109.248256
 20
507.104512
 30
0.0
 10
87.547432
 20
475.921568
 30
0.0
 10
78.879118
 20
438.178808
 30
0.0
 10
66.732142
 20
402.669992
 30
0.0
  0
SPLINE
  5
105
100
AcDbEntity
  8
Tall_Outline
 62
7
100
AcDbSpline
 70
8
 71
3
 72
8
 73
4
 74
0
 40
0
 40
0
 40
0
 40
0
 40
1
 40
1
 40
1
 40
1
 10
66.732142
 20
402.669992
 30
0.0
 10
50.645870
 20
346.921184
 30
0.0
 10
43.140726
 20
286.805056
 30
0.0
 10
57.374000
 20
229.871760
 30
0.0
  0
SPLINE
  5
106
100
AcDbEntity
  8
Tall_Outline
 62
7
100
AcDbSpline
 70
8
 71
3
 72
8
 73
4
 74
0
 40
0
 40
0
 40
0
 40
0
 40
1
 40
1
 40
1
 40
1
 10
57.374000
 20
229.871760
 30
0.0
 10
61.164741
 20
216.597112
 30
0.0
 10
70.532705
 20
202.186416
 30
0.0
 10
85.525000
 20
200.764760
 30
0.0
  0
SPLINE
  5
107
100
AcDbEntity
  8
Tall_Outline
 62
7
100
AcDbSpline
 70
8
 71
3
 72
8
 73
4
 74
0
 40
0
 40
0
 40
0
 40
0
 40
1
 40
1
 40
1
 40
1
 10
85.525000
 20
200.764760
 30
0.0
 10
100.793368
 20
199.685352
 30
0.0
 10
112.919112
 20
211.839080
 30
0.0
 10
120.025000
 20
224.014760
 30
0.0
  0
SPLINE
  5
108
100
AcDbEntity
  8
Tall_Outline
 62
7
100
AcDbSpline
 70
8
 71
3
 72
8
 73
4
 74
0
 40
0
 40
0
 40
0
 40
0
 40
1
 40
1
 40
1
 40
1
 10
120.025000
 20
224.014760
 30
0.0
 10
126.814856
 20
234.229904
 30
0.0
 10
131.894736
 20
245.390680
 30
0.0
 10
136.675000
 20
256.664760
 30
0.0
  0
SPLINE
  5
109
100
AcDbEntity
  8
Tall_Outline
 62
7
100
AcDbSpline
 70
8
 71
3
 72
8
 73
4
 74
0
 40
0
 40
0
 40
0
 40
0
 40
1
 40
1
 40
1
 40
1
 10
136.675000
 20
256.664760
 30
0.0
 10
145.210040
 20
207.287928
 30
0.0
 10
156.333792
 20
156.622248
 30
0.0
 10
184.550000
 20
114.414760
 30
0.0
  0
SPLINE
  5
10a
100
AcDbEntity
  8
Tall_Outline
 62
7
100
AcDbSpline
 70
8
 71
3
 72
8
 73
4
 74
0
 40
0
 40
0
 40
0
 40
0
 40
1
 40
1
 40
1
 40
1
 10
184.550000
 20
114.414760
 30
0.0
 10
203.716424
 20
87.045632
 30
0.0
 10
231.474984
 20
63.569016
 30
0.0
 10
265.116728
 20
57.175016
 30
0.0
  0
SPLINE
  5
10b
100
AcDbEntity
  8
Tall_Outline
 62
7
100
AcDbSpline
 70
8
 71
3
 72
8
 73
4
 74
0
 40
0
 40
0
 40
0
 40
0
 40
1
 40
1
 40
1
 40
1
 10
265.116728
 20
57.175016
 30
0.0
 10
302.501376
 20
51.494040
 30
0.0
 10
340.418328
 20
68.553048
 30
0.0
 10
366.009824
 20
95.186248
 30
0.0
  0
SPLINE
  5
10c
100
AcDbEntity
  8
Tall_Outline
 62
7
100
AcDbSpline
 70
8
 71
3
 72
8
 73
4
 74
0
 40
0
 40
0
 40
0
 40
0
 40
1
 40
1
 40
1
 40
1
 10
366.009824
 20
95.186248
 30
0.0
 10
391.699136
 20
121.621208
 30
0.0
 10
409.704984
 20
154.279704
 30
0.0
 10
430.175000
 20
184.664760
 30
0.0
  0
SPLINE
  5
10d
100
AcDbEntity
  8
Tall_Outline
 62
7
100
AcDbSpline
 70
8
 71
3
 72
8
 73
4
 74
0
 40
0
 40
0
 40
0
 40
0
 40
1
 40
1
 40
1
 40
1
 10
430.175000
 20
184.664760
 30
0.0
 10
438.500696
 20
198.646408
 30
0.0
 10
446.184536
 20
212.995408
 30
0.0
 10
453.350000
 20
227.589760
 30
0.0
  0
SPLINE
  5
10e
100
AcDbEntity
  8
Tall_Outline
 62
7
100
AcDbSpline
 70
8
 71
3
 72
8
 73
4
 74
0
 40
0
 40
0
 40
0
 40
0
 40
1
 40
1
 40
1
 40
1
 10
453.350000
 20
227.589760
 30
0.0
 10
478.851256
 20
216.012736
 30
0.0
 10
511.914168
 20
226.293072
 30
0.0
 10
526.275000
 20
250.239760
 30
0.0
  0
SPLINE
  5
10f
100
AcDbEntity
  8
Tall_Outline
 62
7
100
AcDbSpline
 70
8
 71
3
 72
8
 73
4
 74
0
 40
0
 40
0
 40
0
 40
0
 40
1
 40
1
 40
1
 40
1
 10
526.275000
 20
250.239760
 30
0.0
 10
548.938824
 20
280.645920
 30
0.0
 10
551.269720
 20
322.701576
 30
0.0
 10
539.100000
 20
357.864760
 30
0.0
  0
SPLINE
  5
110
100
AcDbEntity
  8
Tall_Outline
 62
7
100
AcDbSpline
 70
8
 71
3
 72
8
 73
4
 74
0
 40
0
 40
0
 40
0
 40
0
 40
1
 40
1
 40
1
 40
1
 10
539.100000
 20
357.864760
 30
0.0
 10
532.253792
 20
380.091384
 30
0.0
 10
520.731384
 20
400.544296
 30
0.0
 10
507.375000
 20
419.489760
 30
0.0
  0
SPLINE
  5
111
100
AcDbEntity
  8
Tall_Outline
 62
7
100
AcDbSpline
 70
8
 71
3
 72
8
 73
4
 74
0
 40
0
 40
0
 40
0
 40
0
 40
1
 40
1
 40
1
 40
1
 10
507.375000
 20
419.489760
 30
0.0
 10
520.148624
 20
437.128992
 30
0.0
 10
515.389208
 20
462.774648
 30
0.0
 10
501.124288
 20
477.992776
 30
0.0
  0
SPLINE
  5
112
100
AcDbEntity
  8
Tall_Outline
 62
7
100
AcDbSpline
 70
8
 71
3
 72
8
 73
4
 74
0
 40
0
 40
0
 40
0
 40
0
 40
1
 40
1
 40
1
 40
1
 10
501.124288
 20
477.992776
 30
0.0
 10
499.768176
 20
480.437896
 30
0.0
 10
494.387712
 20
482.465568
 30
0.0
 10
498.033952
 20
485.056544
 30
0.0
  0
SPLINE
  5
113
100
AcDbEntity
  8
Tall_Outline
 62
7
100
AcDbSpline
 70
8
 71
3
 72
8
 73
4
 74
0
 40
0
 40
0
 40
0
 40
0
 40
1
 40
1
 40
1
 40
1
 10
498.033952
 20
485.056544
 30
0.0
 10
532.856000
 20
528.418440
 30
0.0
 10
541.580344
 20
588.612744
 30
0.0
 10
528.679640
 20
641.971408
 30
0.0
  0
SPLINE
  5
114
100
AcDbEntity
  8
Tall_Outline
 62
7
100
AcDbSpline
 70
8
 71
3
 72
8
 73
4
 74
0
 40
0
 40
0
 40
0
 40
0
 40
1
 40
1
 40
1
 40
1
 10
528.679640
 20
641.971408
 30
0.0
 10
519.459368
 20
684.000696
 30
0.0
 10
496.820680
 20
724.774976
 30
0.0
 10
460.625000
 20
749.089760
 30
0.0
  0
SPLINE
  5
115
100
AcDbEntity
  8
Tall_Outline
 62
7
100
AcDbSpline
 70
8
 71
3
 72
8
 73
4
 74
0
 40
0
 40
0
 40
0
 40
0
 40
1
 40
1
 40
1
 40
1
 10
460.625000
 20
749.089760
 30
0.0
 10
424.186904
 20
773.926165
 30
0.0
 10
379.649872
 20
785.097237
 30
0.0
 10
335.800072
 20
786.225570
 30
0.0
  0
SPLINE
  5
116
100
AcDbEntity
  8
Tall_Outline
 62
7
100
AcDbSpline
 70
8
 71
3
 72
8
 73
4
 74
0
 40
0
 40
0
 40
0
 40
0
 40
1
 40
1
 40
1
 40
1
 10
335.800072
 20
786.225570
 30
0.0
 10
332.958712
 20
786.272810
 30
0.0
 10
330.116464
 20
786.286194
 30
0.0
 10
327.275000
 20
786.239762
 30
0.0
  0
LWPOLYLINE
  5
117
100
AcDbEntity
  8
Base
 62
7
100
AcDbPolyline
 90
161
 70
0
 10
324.150000
 20
826.264760
 30
0.0
 10
306.922682
 20
825.694681
 30
0.0
 10
289.874703
 20
823.603587
 30
0.0
 10
273.095423
 20
820.057494
 30
0.0
 10
256.674202
 20
815.122416
 30
0.0
 10
240.700399
 20
808.864366
 30
0.0
 10
225.263374
 20
801.349358
 30
0.0
 10
210.452486
 20
792.643408
 30
0.0
 10
196.357095
 20
782.812529
 30
0.0
 10
183.066560
 20
771.922735
 30
0.0
 10
170.670242
 20
760.040041
 30
0.0
 10
159.257498
 20
747.230460
 30
0.0
 10
148.917690
 20
733.560008
 30
0.0
 10
139.740177
 20
719.094697
 30
0.0
 10
131.814318
 20
703.900543
 30
0.0
 10
125.229472
 20
688.043559
 30
0.0
 10
120.075000
 20
671.589760
 30
0.0
 10
117.065835
 20
658.983786
 30
0.0
 10
114.862629
 20
646.200400
 30
0.0
 10
113.472640
 20
633.296124
 30
0.0
 10
112.903127
 20
620.327484
 30
0.0
 10
113.161348
 20
607.351003
 30
0.0
 10
114.254562
 20
594.423206
 30
0.0
 10
116.190026
 20
581.600617
 30
0.0
 10
118.975000
 20
568.939760
 30
0.0
 10
106.298102
 20
560.740899
 30
0.0
 10
94.777082
 20
551.155763
 30
0.0
 10
84.392592
 20
540.363058
 30
0.0
 10
75.125284
 20
528.541486
 30
0.0
 10
66.955809
 20
515.869753
 30
0.0
 10
59.864819
 20
502.526562
 30
0.0
 10
53.832964
 20
488.690617
 30
0.0
 10
48.840897
 20
474.540624
 30
0.0
 10
39.819970
 20
449.543740
 30
0.0
 10
31.624057
 20
424.176830
 30
0.0
 10
24.450497
 20
398.482928
 30
0.0
 10
18.496635
 20
372.505069
 30
0.0
 10
13.959812
 20
346.286288
 30
0.0
 10
11.037370
 20
319.869620
 30
0.0
 10
9.926652
 20
293.298099
 30
0.0
 10
10.825000
 20
266.614760
 30
0.0
 10
13.418265
 20
245.816837
 30
0.0
 10
17.797365
 20
225.244288
 30
0.0
 10
20.858016
 20
215.220886
 30
0.0
 10
24.606821
 20
205.467856
 30
0.0
 10
29.124345
 20
196.056539
 30
0.0
 10
34.491153
 20
187.058280
 30
0.0
 10
42.200364
 20
178.854707
 30
0.0
 10
51.227228
 20
172.026367
 30
0.0
 10
61.269349
 20
166.705466
 30
0.0
 10
72.024333
 20
163.024209
 30
0.0
 10
83.189785
 20
161.114804
 30
0.0
 10
94.463310
 20
161.109456
 30
0.0
 10
105.542513
 20
163.140373
 30
0.0
 10
116.125000
 20
167.339760
 30
0.0
 10
120.385401
 20
154.408048
 30
0.0
 10
125.238049
 20
141.656034
 30
0.0
 10
130.694048
 20
129.135973
 30
0.0
 10
136.764503
 20
116.900121
 30
0.0
 10
143.460519
 20
105.000732
 30
0.0
 10
150.793201
 20
93.490063
 30
0.0
 10
158.773655
 20
82.420369
 30
0.0
 10
167.412984
 20
71.843904
 30
0.0
 10
175.960501
 20
62.633742
 30
0.0
 10
185.135821
 20
53.991797
 30
0.0
 10
194.905204
 20
46.016274
 30
0.0
 10
205.234913
 20
38.805377
 30
0.0
 10
216.091209
 20
32.457312
 30
0.0
 10
227.440355
 20
27.070284
 30
0.0
 10
239.248611
 20
22.742499
 30
0.0
 10
251.482240
 20
19.572160
 30
0.0
 10
263.303034
 20
17.449059
 30
0.0
 10
275.254019
 20
16.370015
 30
0.0
 10
287.246879
 20
16.326293
 30
0.0
 10
299.193296
 20
17.309160
 30
0.0
 10
311.004953
 20
19.309882
 30
0.0
 10
322.593533
 20
22.319725
 30
0.0
 10
333.870718
 20
26.329956
 30
0.0
 10
344.748192
 20
31.331840
 30
0.0
 10
358.666930
 20
38.833718
 30
0.0
 10
371.766516
 20
47.536441
 30
0.0
 10
384.066082
 20
57.309412
 30
0.0
 10
395.584759
 20
68.022032
 30
0.0
 10
406.341677
 20
79.543702
 30
0.0
 10
416.355966
 20
91.743825
 30
0.0
 10
425.646759
 20
104.491801
 30
0.0
 10
434.233184
 20
117.657032
 30
0.0
 10
455.256922
 20
149.889045
 30
0.0
 10
475.125000
 20
182.739760
 30
0.0
 10
483.775269
 20
183.078309
 30
0.0
 10
492.302608
 20
184.191625
 30
0.0
 10
500.667777
 20
186.043615
 30
0.0
 10
508.831540
 20
188.598183
 30
0.0
 10
516.754660
 20
191.819234
 30
0.0
 10
524.397900
 20
195.670673
 30
0.0
 10
531.722021
 20
200.116406
 30
0.0
 10
538.687787
 20
205.120338
 30
0.0
 10
545.255960
 20
210.646373
 30
0.0
 10
551.387303
 20
216.658417
 30
0.0
 10
557.042579
 20
223.120375
 30
0.0
 10
562.182550
 20
229.996152
 30
0.0
 10
566.767979
 20
237.249653
 30
0.0
 10
570.759629
 20
244.844784
 30
0.0
 10
574.118261
 20
252.745448
 30
0.0
 10
576.804640
 20
260.915552
 30
0.0
 10
579.974634
 20
270.657981
 30
0.0
 10
582.484725
 20
280.556207
 30
0.0
 10
584.347615
 20
290.577282
 30
0.0
 10
585.576009
 20
300.688261
 30
0.0
 10
586.182610
 20
310.856195
 30
0.0
 10
586.180121
 20
321.048138
 30
0.0
 10
584.398685
 20
341.372265
 30
0.0
 10
580.333329
 20
361.397066
 30
0.0
 10
574.085678
 20
380.858965
 30
0.0
 10
565.757360
 20
399.494388
 30
0.0
 10
555.450000
 20
417.039760
 30
0.0
 10
553.646998
 20
421.407788
 30
0.0
 10
553.091409
 20
426.001503
 30
0.0
 10
553.433499
 20
430.676001
 30
0.0
 10
554.323536
 20
435.286376
 30
0.0
 10
554.676268
 20
447.775486
 30
0.0
 10
553.254138
 20
460.177124
 30
0.0
 10
550.117073
 20
472.246735
 30
0.0
 10
545.325000
 20
483.739760
 30
0.0
 10
551.501606
 20
495.223703
 30
0.0
 10
556.922405
 20
507.043950
 30
0.0
 10
561.595430
 20
519.159557
 30
0.0
 10
565.528717
 20
531.529579
 30
0.0
 10
568.730301
 20
544.113071
 30
0.0
 10
571.208216
 20
556.869090
 30
0.0
 10
572.970498
 20
569.756690
 30
0.0
 10
574.025181
 20
582.734928
 30
0.0
 10
574.380300
 20
595.762858
 30
0.0
 10
574.043890
 20
608.799537
 30
0.0
 10
573.023986
 20
621.804019
 30
0.0
 10
571.328622
 20
634.735361
 30
0.0
 10
568.965834
 20
647.552618
 30
0.0
 10
565.943657
 20
660.214845
 30
0.0
 10
562.270124
 20
672.681098
 30
0.0
 10
557.953272
 20
684.910432
 30
0.0
 10
553.137949
 20
696.785065
 30
0.0
 10
547.573443
 20
708.306428
 30
0.0
 10
541.294886
 20
719.443890
 30
0.0
 10
534.337412
 20
730.166818
 30
0.0
 10
526.736152
 20
740.444583
 30
0.0
 10
518.526241
 20
750.246552
 30
0.0
 10
509.742810
 20
759.542094
 30
0.0
 10
500.420994
 20
768.300578
 30
0.0
 10
490.595924
 20
776.491373
 30
0.0
 10
480.302735
 20
784.083847
 30
0.0
 10
469.576557
 20
791.047369
 30
0.0
 10
458.452525
 20
797.351308
 30
0.0
 10
446.965772
 20
802.965032
 30
0.0
 10
435.151430
 20
807.857910
 30
0.0
 10
423.044633
 20
811.999311
 30
0.0
 10
410.680512
 20
815.358604
 30
0.0
 10
389.411064
 20
820.436710
 30
0.0
 10
367.824423
 20
823.906505
 30
0.0
 10
346.033198
 20
825.828888
 30
0.0
 10
324.150000
 20
826.264760
 30
0.0
 10
324.150000
 20
826.264760
 30
0.0
  0
SPLINE
  5
118
100
AcDbEntity
  8
Medium_Features
 62
7
100
AcDbSpline
 70
8
 71
3
 72
8
 73
4
 74
0
 40
0
 40
0
 40
0
 40
0
 40
1
 40
1
 40
1
 40
1
 10
329.218056
 20
769.470136
 30
0.0
 10
377.386760
 20
769.614174
 30
0.0
 10
426.786040
 20
756.400742
 30
0.0
 10
464.168056
 20
725.145136
 30
0.0
  0
SPLINE
  5
119
100
AcDbEntity
  8
Medium_Features
 62
7
100
AcDbSpline
 70
8
 71
3
 72
8
 73
4
 74
0
 40
0
 40
0
 40
0
 40
0
 40
1
 40
1
 40
1
 40
1
 10
464.168056
 20
725.145136
 30
0.0
 10
496.878696
 20
696.028901
 30
0.0
 10
513.009256
 20
652.126640
 30
0.0
 10
516.768056
 20
609.245136
 30
0.0
  0
SPLINE
  5
11a
100
AcDbEntity
  8
Medium_Features
 62
7
100
AcDbSpline
 70
8
 71
3
 72
8
 73
4
 74
0
 40
0
 40
0
 40
0
 40
0
 40
1
 40
1
 40
1
 40
1
 10
516.768056
 20
609.245136
 30
0.0
 10
519.830000
 20
578.193448
 30
0.0
 10
514.365512
 20
546.450144
 30
0.0
 10
499.943056
 20
518.895136
 30
0.0
  0
SPLINE
  5
11b
100
AcDbEntity
  8
Medium_Features
 62
7
100
AcDbSpline
 70
8
 71
3
 72
8
 73
4
 74
0
 40
0
 40
0
 40
0
 40
0
 40
1
 40
1
 40
1
 40
1
 10
499.943056
 20
518.895136
 30
0.0
 10
492.878032
 20
504.619888
 30
0.0
 10
483.358280
 20
491.270144
 30
0.0
 10
470.968056
 20
481.145136
 30
0.0
  0
SPLINE
  5
11c
100
AcDbEntity
  8
Medium_Features
 62
7
100
AcDbSpline
 70
8
 71
3
 72
8
 73
4
 74
0
 40
0
 40
0
 40
0
 40
0
 40
1
 40
1
 40
1
 40
1
 10
470.968056
 20
481.145136
 30
0.0
 10
484.126448
 20
472.510464
 30
0.0
 10
498.082400
 20
460.021152
 30
0.0
 10
498.268056
 20
443.045136
 30
0.0
  0
SPLINE
  5
11d
100
AcDbEntity
  8
Medium_Features
 62
7
100
AcDbSpline
 70
8
 71
3
 72
8
 73
4
 74
0
 40
0
 40
0
 40
0
 40
0
 40
1
 40
1
 40
1
 40
1
 10
498.268056
 20
443.045136
 30
0.0
 10
498.440760
 20
433.903096
 30
0.0
 10
492.256752
 20
425.886288
 30
0.0
 10
484.618056
 20
421.395136
 30
0.0
  0
SPLINE
  5
11e
100
AcDbEntity
  8
Medium_Features
 62
7
100
AcDbSpline
 70
8
 71
3
 72
8
 73
4
 74
0
 40
0
 40
0
 40
0
 40
0
 40
1
 40
1
 40
1
 40
1
 10
484.618056
 20
421.395136
 30
0.0
 10
506.110640
 20
394.611512
 30
0.0
 10
523.948080
 20
363.433160
 30
0.0
 10
528.410296
 20
328.853776
 30
0.0
  0
SPLINE
  5
11f
100
AcDbEntity
  8
Medium_Features
 62
7
100
AcDbSpline
 70
8
 71
3
 72
8
 73
4
 74
0
 40
0
 40
0
 40
0
 40
0
 40
1
 40
1
 40
1
 40
1
 10
528.410296
 20
328.853776
 30
0.0
 10
531.729344
 20
307.717216
 30
0.0
 10
528.281992
 20
285.221056
 30
0.0
 10
517.118056
 20
266.970136
 30
0.0
  0
SPLINE
  5
120
100
AcDbEntity
  8
Medium_Features
 62
7
100
AcDbSpline
 70
8
 71
3
 72
8
 73
4
 74
0
 40
0
 40
0
 40
0
 40
0
 40
1
 40
1
 40
1
 40
1
 10
517.118056
 20
266.970136
 30
0.0
 10
509.000664
 20
252.092096
 30
0.0
 10
494.357336
 20
238.782264
 30
0.0
 10
476.493056
 20
239.595136
 30
0.0
  0
SPLINE
  5
121
100
AcDbEntity
  8
Medium_Features
 62
7
100
AcDbSpline
 70
8
 71
3
 72
8
 73
4
 74
0
 40
0
 40
0
 40
0
 40
0
 40
1
 40
1
 40
1
 40
1
 10
476.493056
 20
239.595136
 30
0.0
 10
465.179832
 20
239.718416
 30
0.0
 10
454.261984
 20
244.454240
 30
0.0
 10
446.418056
 20
252.570136
 30
0.0
  0
SPLINE
  5
122
100
AcDbEntity
  8
Medium_Features
 62
7
100
AcDbSpline
 70
8
 71
3
 72
8
 73
4
 74
0
 40
0
 40
0
 40
0
 40
0
 40
1
 40
1
 40
1
 40
1
 10
446.418056
 20
252.570136
 30
0.0
 10
431.284088
 20
218.144056
 30
0.0
 10
412.279392
 20
185.528032
 30
0.0
 10
390.547616
 20
154.780624
 30
0.0
  0
SPLINE
  5
123
100
AcDbEntity
  8
Medium_Features
 62
7
100
AcDbSpline
 70
8
 71
3
 72
8
 73
4
 74
0
 40
0
 40
0
 40
0
 40
0
 40
1
 40
1
 40
1
 40
1
 10
390.547616
 20
154.780624
 30
0.0
 10
372.360064
 20
127.327128
 30
0.0
 10
352.992496
 20
98.437664
 30
0.0
 10
322.511976
 20
83.754592
 30
0.0
  0
SPLINE
  5
124
100
AcDbEntity
  8
Medium_Features
 62
7
100
AcDbSpline
 70
8
 71
3
 72
8
 73
4
 74
0
 40
0
 40
0
 40
0
 40
0
 40
1
 40
1
 40
1
 40
1
 10
322.511976
 20
83.754592
 30
0.0
 10
300.520328
 20
72.481584
 30
0.0
 10
273.014128
 20
68.233248
 30
0.0
 10
249.943056
 20
79.170136
 30
0.0
  0
SPLINE
  5
125
100
AcDbEntity
  8
Medium_Features
 62
7
100
AcDbSpline
 70
8
 71
3
 72
8
 73
4
 74
0
 40
0
 40
0
 40
0
 40
0
 40
1
 40
1
 40
1
 40
1
 10
249.943056
 20
79.170136
 30
0.0
 10
226.658608
 20
89.920032
 30
0.0
 10
207.882048
 20
108.814104
 30
0.0
 10
194.068056
 20
130.245136
 30
0.0
  0
SPLINE
  5
126
100
AcDbEntity
  8
Medium_Features
 62
7
100
AcDbSpline
 70
8
 71
3
 72
8
 73
4
 74
0
 40
0
 40
0
 40
0
 40
0
 40
1
 40
1
 40
1
 40
1
 10
194.068056
 20
130.245136
 30
0.0
 10
175.088296
 20
161.066928
 30
0.0
 10
166.063064
 20
196.697264
 30
0.0
 10
158.405008
 20
231.769992
 30
0.0
  0
SPLINE
  5
127
100
AcDbEntity
  8
Medium_Features
 62
7
100
AcDbSpline
 70
8
 71
3
 72
8
 73
4
 74
0
 40
0
 40
0
 40
0
 40
0
 40
1
 40
1
 40
1
 40
1
 10
158.405008
 20
231.769992
 30
0.0
 10
152.563168
 20
259.812608
 30
0.0
 10
148.473152
 20
288.177336
 30
0.0
 10
143.743056
 20
316.420136
 30
0.0
  0
SPLINE
  5
128
100
AcDbEntity
  8
Medium_Features
 62
7
100
AcDbSpline
 70
8
 71
3
 72
8
 73
4
 74
0
 40
0
 40
0
 40
0
 40
0
 40
1
 40
1
 40
1
 40
1
 10
143.743056
 20
316.420136
 30
0.0
 10
129.348120
 20
286.671912
 30
0.0
 10
120.857352
 20
253.716032
 30
0.0
 10
101.383552
 20
226.728368
 30
0.0
  0
SPLINE
  5
129
100
AcDbEntity
  8
Medium_Features
 62
7
100
AcDbSpline
 70
8
 71
3
 72
8
 73
4
 74
0
 40
0
 40
0
 40
0
 40
0
 40
1
 40
1
 40
1
 40
1
 10
101.383552
 20
226.728368
 30
0.0
 10
97.347856
 20
221.617432
 30
0.0
 10
90.408040
 20
214.763072
 30
0.0
 10
83.493056
 20
218.620136
 30
0.0
  0
SPLINE
  5
12a
100
AcDbEntity
  8
Medium_Features
 62
7
100
AcDbSpline
 70
8
 71
3
 72
8
 73
4
 74
0
 40
0
 40
0
 40
0
 40
0
 40
1
 40
1
 40
1
 40
1
 10
83.493056
 20
218.620136
 30
0.0
 10
76.040488
 20
223.599072
 30
0.0
 10
73.987832
 20
233.409296
 30
0.0
 10
71.798504
 20
241.601960
 30
0.0
  0
SPLINE
  5
12b
100
AcDbEntity
  8
Medium_Features
 62
7
100
AcDbSpline
 70
8
 71
3
 72
8
 73
4
 74
0
 40
0
 40
0
 40
0
 40
0
 40
1
 40
1
 40
1
 40
1
 10
71.798504
 20
241.601960
 30
0.0
 10
60.465744
 20
296.218864
 30
0.0
 10
69.148896
 20
352.948688
 30
0.0
 10
85.155592
 20
405.651824
 30
0.0
  0
SPLINE
  5
12c
100
AcDbEntity
  8
Medium_Features
 62
7
100
AcDbSpline
 70
8
 71
3
 72
8
 73
4
 74
0
 40
0
 40
0
 40
0
 40
0
 40
1
 40
1
 40
1
 40
1
 10
85.155592
 20
405.651824
 30
0.0
 10
93.024280
 20
430.511456
 30
0.0
 10
101.241576
 20
455.462296
 30
0.0
 10
112.093056
 20
479.145136
 30
0.0
  0
SPLINE
  5
12d
100
AcDbEntity
  8
Medium_Features
 62
7
100
AcDbSpline
 70
8
 71
3
 72
8
 73
4
 74
0
 40
0
 40
0
 40
0
 40
0
 40
1
 40
1
 40
1
 40
1
 10
112.093056
 20
479.145136
 30
0.0
 10
121.145928
 20
497.850976
 30
0.0
 10
134.228040
 20
515.945896
 30
0.0
 10
154.668056
 20
522.795136
 30
0.0
  0
SPLINE
  5
12e
100
AcDbEntity
  8
Medium_Features
 62
7
100
AcDbSpline
 70
8
 71
3
 72
8
 73
4
 74
0
 40
0
 40
0
 40
0
 40
0
 40
1
 40
1
 40
1
 40
1
 10
154.668056
 20
522.795136
 30
0.0
 10
168.780272
 20
528.361976
 30
0.0
 10
183.788888
 20
530.770904
 30
0.0
 10
198.618056
 20
533.920136
 30
0.0
  0
SPLINE
  5
12f
100
AcDbEntity
  8
Medium_Features
 62
7
100
AcDbSpline
 70
8
 71
3
 72
8
 73
4
 74
0
 40
0
 40
0
 40
0
 40
0
 40
1
 40
1
 40
1
 40
1
 10
198.618056
 20
533.920136
 30
0.0
 10
176.877712
 20
563.343416
 30
0.0
 10
164.872120
 20
600.771008
 30
0.0
 10
170.932200
 20
637.452160
 30
0.0
  0
SPLINE
  5
130
100
AcDbEntity
  8
Medium_Features
 62
7
100
AcDbSpline
 70
8
 71
3
 72
8
 73
4
 74
0
 40
0
 40
0
 40
0
 40
0
 40
1
 40
1
 40
1
 40
1
 10
170.932200
 20
637.452160
 30
0.0
 10
178.159656
 20
684.956930
 30
0.0
 10
208.807696
 20
728.184448
 30
0.0
 10
250.943056
 20
751.145136
 30
0.0
  0
SPLINE
  5
131
100
AcDbEntity
  8
Medium_Features
 62
7
100
AcDbSpline
 70
8
 71
3
 72
8
 73
4
 74
0
 40
0
 40
0
 40
0
 40
0
 40
1
 40
1
 40
1
 40
1
 10
250.943056
 20
751.145136
 30
0.0
 10
274.951632
 20
763.716884
 30
0.0
 10
302.095856
 20
769.211478
 30
0.0
 10
329.218056
 20
769.470136
 30
0.0
  0
LWPOLYLINE
  5
132
100
AcDbEntity
  8
Tall_Outline
 62
7
100
AcDbPolyline
 90
2
 70
1
 10
327.275000
 20
786.239762
 30
0.0
 10
327.275000
 20
786.239760
 30
0.0
  0
SPLINE
  5
133
100
AcDbEntity
  8
Medium_Features
 62
7
100
AcDbSpline
 70
8
 71
3
 72
8
 73
4
 74
0
 40
0
 40
0
 40
0
 40
0
 40
1
 40
1
 40
1
 40
1
 10
205.193056
 20
455.420136
 30
0.0
 10
195.193376
 20
407.143552
 30
0.0
 10
173.320864
 20
362.461608
 30
0.0
 10
152.593056
 20
318.020136
 30
0.0
  0
SPLINE
  5
134
100
AcDbEntity
  8
Medium_Features
 62
7
100
AcDbSpline
 70
8
 71
3
 72
8
 73
4
 74
0
 40
0
 40
0
 40
0
 40
0
 40
1
 40
1
 40
1
 40
1
 10
152.593056
 20
318.020136
 30
0.0
 10
151.682800
 20
310.251720
 30
0.0
 10
155.112600
 20
303.024736
 30
0.0
 10
155.538312
 20
295.286472
 30
0.0
  0
SPLINE
  5
135
100
AcDbEntity
  8
Medium_Features
 62
7
100
AcDbSpline
 70
8
 71
3
 72
8
 73
4
 74
0
 40
0
 40
0
 40
0
 40
0
 40
1
 40
1
 40
1
 40
1
 10
155.538312
 20
295.286472
 30
0.0
 10
164.246856
 20
244.086592
 30
0.0
 10
173.077872
 20
191.969672
 30
0.0
 10
195.843056
 20
144.920136
 30
0.0
  0
SPLINE
  5
136
100
AcDbEntity
  8
Medium_Features
 62
7
100
AcDbSpline
 70
8
 71
3
 72
8
 73
4
 74
0
 40
0
 40
0
 40
0
 40
0
 40
1
 40
1
 40
1
 40
1
 10
195.843056
 20
144.920136
 30
0.0
 10
209.442544
 20
118.699680
 30
0.0
 10
231.210800
 20
95.847008
 30
0.0
 10
259.068056
 20
84.870136
 30
0.0
  0
SPLINE
  5
137
100
AcDbEntity
  8
Medium_Features
 62
7
100
AcDbSpline
 70
8
 71
3
 72
8
 73
4
 74
0
 40
0
 40
0
 40
0
 40
0
 40
1
 40
1
 40
1
 40
1
 10
259.068056
 20
84.870136
 30
0.0
 10
276.170304
 20
78.440680
 30
0.0
 10
295.325400
 20
80.480128
 30
0.0
 10
311.769328
 20
87.612088
 30
0.0
  0
SPLINE
  5
138
100
AcDbEntity
  8
Medium_Features
 62
7
100
AcDbSpline
 70
8
 71
3
 72
8
 73
4
 74
0
 40
0
 40
0
 40
0
 40
0
 40
1
 40
1
 40
1
 40
1
 10
311.769328
 20
87.612088
 30
0.0
 10
330.408832
 20
95.051296
 30
0.0
 10
344.851184
 20
109.447368
 30
0.0
 10
357.154824
 20
124.788792
 30
0.0
  0
SPLINE
  5
139
100
AcDbEntity
  8
Medium_Features
 62
7
100
AcDbSpline
 70
8
 71
3
 72
8
 73
4
 74
0
 40
0
 40
0
 40
0
 40
0
 40
1
 40
1
 40
1
 40
1
 10
357.154824
 20
124.788792
 30
0.0
 10
389.442488
 20
163.648616
 30
0.0
 10
413.796168
 20
208.373832
 30
0.0
 10
436.968056
 20
253.045136
 30
0.0
  0
SPLINE
  5
13a
100
AcDbEntity
  8
Medium_Features
 62
7
100
AcDbSpline
 70
8
 71
3
 72
8
 73
4
 74
0
 40
0
 40
0
 40
0
 40
0
 40
1
 40
1
 40
1
 40
1
 10
436.968056
 20
253.045136
 30
0.0
 10
439.243120
 20
256.175056
 30
0.0
 10
433.659008
 20
258.147048
 30
0.0
 10
432.668056
 20
260.945136
 30
0.0
  0
SPLINE
  5
13b
100
AcDbEntity
  8
Medium_Features
 62
7
100
AcDbSpline
 70
8
 71
3
 72
8
 73
4
 74
0
 40
0
 40
0
 40
0
 40
0
 40
1
 40
1
 40
1
 40
1
 10
432.668056
 20
260.945136
 30
0.0
 10
413.767928
 20
285.169832
 30
0.0
 10
403.573592
 20
315.227432
 30
0.0
 10
395.368056
 20
344.695136
 30
0.0
  0
SPLINE
  5
13c
100
AcDbEntity
  8
Medium_Features
 62
7
100
AcDbSpline
 70
8
 71
3
 72
8
 73
4
 74
0
 40
0
 40
0
 40
0
 40
0
 40
1
 40
1
 40
1
 40
1
 10
395.368056
 20
344.695136
 30
0.0
 10
390.845752
 20
363.554544
 30
0.0
 10
388.438432
 20
382.720112
 30
0.0
 10
387.368056
 20
402.070136
 30
0.0
  0
SPLINE
  5
13d
100
AcDbEntity
  8
Medium_Features
 62
7
100
AcDbSpline
 70
8
 71
3
 72
8
 73
4
 74
0
 40
0
 40
0
 40
0
 40
0
 40
1
 40
1
 40
1
 40
1
 10
387.368056
 20
402.070136
 30
0.0
 10
342.601624
 20
403.770056
 30
0.0
 10
299.294488
 20
417.070848
 30
0.0
 10
257.168424
 20
431.374504
 30
0.0
  0
SPLINE
  5
13e
100
AcDbEntity
  8
Medium_Features
 62
7
100
AcDbSpline
 70
8
 71
3
 72
8
 73
4
 74
0
 40
0
 40
0
 40
0
 40
0
 40
1
 40
1
 40
1
 40
1
 10
257.168424
 20
431.374504
 30
0.0
 10
239.168464
 20
437.988560
 30
0.0
 10
221.673240
 20
445.945264
 30
0.0
 10
205.268056
 20
455.820136
 30
0.0
  0
LWPOLYLINE
  5
13f
100
AcDbEntity
  8
Medium_Features
 62
7
100
AcDbPolyline
 90
2
 70
1
 10
329.218056
 20
769.470136
 30
0.0
 10
329.218056
 20
769.470136
 30
0.0
  0
SPLINE
  5
140
100
AcDbEntity
  8
Medium_Features
 62
7
100
AcDbSpline
 70
8
 71
3
 72
8
 73
4
 74
0
 40
0
 40
0
 40
0
 40
0
 40
1
 40
1
 40
1
 40
1
 10
156.643016
 20
513.145136
 30
0.0
 10
156.651416
 20
513.145440
 30
0.0
 10
156.659576
 20
513.144840
 30
0.0
 10
156.667976
 20
513.145136
 30
0.0
  0
SPLINE
  5
141
100
AcDbEntity
  8
Medium_Features
 62
7
100
AcDbSpline
 70
8
 71
3
 72
8
 73
4
 74
0
 40
0
 40
0
 40
0
 40
0
 40
1
 40
1
 40
1
 40
1
 10
156.667976
 20
513.145136
 30
0.0
 10
163.823456
 20
513.393760
 30
0.0
 10
170.743864
 20
510.482776
 30
0.0
 10
176.642976
 20
506.495136
 30
0.0
  0
LWPOLYLINE
  5
142
100
AcDbEntity
  8
Medium_Features
 62
7
100
AcDbPolyline
 90
3
 70
1
 10
205.268056
 20
455.820136
 30
0.0
 10
205.193096
 20
455.420136
 30
0.0
 10
205.193056
 20
455.420136
 30
0.0
  0
SPLINE
  5
143
100
AcDbEntity
  8
Medium_Features
 62
7
100
AcDbSpline
 70
8
 71
3
 72
8
 73
4
 74
0
 40
0
 40
0
 40
0
 40
0
 40
1
 40
1
 40
1
 40
1
 10
176.667936
 20
506.470176
 30
0.0
 10
188.765800
 20
499.721088
 30
0.0
 10
194.366472
 20
485.460528
 30
0.0
 10
194.142936
 20
472.045176
 30
0.0
  0
SPLINE
  5
144
100
AcDbEntity
  8
Medium_Features
 62
7
100
AcDbSpline
 70
8
 71
3
 72
8
 73
4
 74
0
 40
0
 40
0
 40
0
 40
0
 40
1
 40
1
 40
1
 40
1
 10
194.142936
 20
472.045176
 30
0.0
 10
194.142800
 20
472.036936
 30
0.0
 10
194.143080
 20
472.028456
 30
0.0
 10
194.142936
 20
472.020216
 30
0.0
  0
SPLINE
  5
145
100
AcDbEntity
  8
Medium_Features
 62
7
100
AcDbSpline
 70
8
 71
3
 72
8
 73
4
 74
0
 40
0
 40
0
 40
0
 40
0
 40
1
 40
1
 40
1
 40
1
 10
194.142936
 20
472.020216
 30
0.0
 10
192.998168
 20
446.184768
 30
0.0
 10
183.528800
 20
421.574968
 30
0.0
 10
173.667936
 20
397.820216
 30
0.0
  0
SPLINE
  5
146
100
AcDbEntity
  8
Medium_Features
 62
7
100
AcDbSpline
 70
8
 71
3
 72
8
 73
4
 74
0
 40
0
 40
0
 40
0
 40
0
 40
1
 40
1
 40
1
 40
1
 10
173.667936
 20
397.820216
 30
0.0
 10
173.664736
 20
397.813016
 30
0.0
 10
173.671136
 20
397.802296
 30
0.0
 10
173.667936
 20
397.795256
 30
0.0
  0
SPLINE
  5
147
100
AcDbEntity
  8
Medium_Features
 62
7
100
AcDbSpline
 70
8
 71
3
 72
8
 73
4
 74
0
 40
0
 40
0
 40
0
 40
0
 40
1
 40
1
 40
1
 40
1
 10
173.667936
 20
397.795256
 30
0.0
 10
156.518928
 20
358.929008
 30
0.0
 10
138.145368
 20
320.461840
 30
0.0
 10
121.517936
 20
281.295256
 30
0.0
  0
SPLINE
  5
148
100
AcDbEntity
  8
Medium_Features
 62
7
100
AcDbSpline
 70
8
 71
3
 72
8
 73
4
 74
0
 40
0
 40
0
 40
0
 40
0
 40
1
 40
1
 40
1
 40
1
 10
121.517936
 20
281.295256
 30
0.0
 10
121.514736
 20
281.288056
 30
0.0
 10
121.521136
 20
281.277256
 30
0.0
 10
121.517936
 20
281.270296
 30
0.0
  0
SPLINE
  5
149
100
AcDbEntity
  8
Medium_Features
 62
7
100
AcDbSpline
 70
8
 71
3
 72
8
 73
4
 74
0
 40
0
 40
0
 40
0
 40
0
 40
1
 40
1
 40
1
 40
1
 10
121.517936
 20
281.270296
 30
0.0
 10
113.650096
 20
264.326040
 30
0.0
 10
107.601496
 20
246.290888
 30
0.0
 10
96.092936
 20
231.570296
 30
0.0
  0
LWPOLYLINE
  5
14a
100
AcDbEntity
  8
Medium_Features
 62
7
100
AcDbPolyline
 90
2
 70
1
 10
176.642976
 20
506.495136
 30
0.0
 10
176.667936
 20
506.470176
 30
0.0
  0
SPLINE
  5
14b
100
AcDbEntity
  8
Medium_Features
 62
7
100
AcDbSpline
 70
8
 71
3
 72
8
 73
4
 74
0
 40
0
 40
0
 40
0
 40
0
 40
1
 40
1
 40
1
 40
1
 10
96.117896
 20
231.545336
 30
0.0
 10
94.804160
 20
230.395568
 30
0.0
 10
93.596280
 20
228.454760
 30
0.0
 10
92.242896
 20
227.120336
 30
0.0
  0
SPLINE
  5
14c
100
AcDbEntity
  8
Medium_Features
 62
7
100
AcDbSpline
 70
8
 71
3
 72
8
 73
4
 74
0
 40
0
 40
0
 40
0
 40
0
 40
1
 40
1
 40
1
 40
1
 10
92.242896
 20
227.120336
 30
0.0
 10
91.555920
 20
226.442984
 30
0.0
 10
90.829096
 20
225.957576
 30
0.0
 10
90.092896
 20
225.770336
 30
0.0
  0
SPLINE
  5
14d
100
AcDbEntity
  8
Medium_Features
 62
7
100
AcDbSpline
 70
8
 71
3
 72
8
 73
4
 74
0
 40
0
 40
0
 40
0
 40
0
 40
1
 40
1
 40
1
 40
1
 10
90.092896
 20
225.770336
 30
0.0
 10
89.365240
 20
225.585272
 30
0.0
 10
88.602360
 20
225.650896
 30
0.0
 10
87.667896
 20
226.245336
 30
0.0
  0
SPLINE
  5
14e
100
AcDbEntity
  8
Medium_Features
 62
7
100
AcDbSpline
 70
8
 71
3
 72
8
 73
4
 74
0
 40
0
 40
0
 40
0
 40
0
 40
1
 40
1
 40
1
 40
1
 10
87.667896
 20
226.245336
 30
0.0
 10
82.570728
 20
232.190304
 30
0.0
 10
80.570464
 20
240.498200
 30
0.0
 10
78.667896
 20
248.070336
 30
0.0
  0
SPLINE
  5
14f
100
AcDbEntity
  8
Medium_Features
 62
7
100
AcDbSpline
 70
8
 71
3
 72
8
 73
4
 74
0
 40
0
 40
0
 40
0
 40
0
 40
1
 40
1
 40
1
 40
1
 10
78.667896
 20
248.070336
 30
0.0
 10
78.666296
 20
248.078416
 30
0.0
 10
78.669496
 20
248.087216
 30
0.0
 10
78.667896
 20
248.095296
 30
0.0
  0
SPLINE
  5
150
100
AcDbEntity
  8
Medium_Features
 62
7
100
AcDbSpline
 70
8
 71
3
 72
8
 73
4
 74
0
 40
0
 40
0
 40
0
 40
0
 40
1
 40
1
 40
1
 40
1
 10
78.667896
 20
248.095296
 30
0.0
 10
73.423032
 20
278.294552
 30
0.0
 10
73.963496
 20
309.561816
 30
0.0
 10
79.067896
 20
339.770296
 30
0.0
  0
SPLINE
  5
151
100
AcDbEntity
  8
Medium_Features
 62
7
100
AcDbSpline
 70
8
 71
3
 72
8
 73
4
 74
0
 40
0
 40
0
 40
0
 40
0
 40
1
 40
1
 40
1
 40
1
 10
79.067896
 20
339.770296
 30
0.0
 10
89.051080
 20
390.594080
 30
0.0
 10
103.249304
 20
441.237592
 30
0.0
 10
128.142896
 20
486.870296
 30
0.0
  0
LWPOLYLINE
  5
152
100
AcDbEntity
  8
Medium_Features
 62
7
100
AcDbPolyline
 90
2
 70
1
 10
96.092936
 20
231.570296
 30
0.0
 10
96.117896
 20
231.545336
 30
0.0
  0
SPLINE
  5
153
100
AcDbEntity
  8
Medium_Features
 62
7
100
AcDbSpline
 70
8
 71
3
 72
8
 73
4
 74
0
 40
0
 40
0
 40
0
 40
0
 40
1
 40
1
 40
1
 40
1
 10
128.117936
 20
486.870296
 30
0.0
 10
131.423760
 20
492.470080
 30
0.0
 10
135.094464
 20
498.613008
 30
0.0
 10
139.667936
 20
503.570296
 30
0.0
  0
SPLINE
  5
154
100
AcDbEntity
  8
Medium_Features
 62
7
100
AcDbSpline
 70
8
 71
3
 72
8
 73
4
 74
0
 40
0
 40
0
 40
0
 40
0
 40
1
 40
1
 40
1
 40
1
 10
139.667936
 20
503.570296
 30
0.0
 10
144.235928
 20
508.521648
 30
0.0
 10
149.695384
 20
512.278440
 30
0.0
 10
156.642936
 20
513.145296
 30
0.0
  0
LWPOLYLINE
  5
155
100
AcDbEntity
  8
Medium_Features
 62
7
100
AcDbPolyline
 90
2
 70
1
 10
128.142896
 20
486.870296
 30
0.0
 10
128.117936
 20
486.870296
 30
0.0
  0
SPLINE
  5
156
100
AcDbEntity
  8
Medium_Features
 62
7
100
AcDbSpline
 70
8
 71
3
 72
8
 73
4
 74
0
 40
0
 40
0
 40
0
 40
0
 40
1
 40
1
 40
1
 40
1
 10
419.643056
 20
465.945136
 30
0.0
 10
408.939240
 20
464.186528
 30
0.0
 10
404.228928
 20
452.270824
 30
0.0
 10
403.330456
 20
442.632056
 30
0.0
  0
SPLINE
  5
157
100
AcDbEntity
  8
Medium_Features
 62
7
100
AcDbSpline
 70
8
 71
3
 72
8
 73
4
 74
0
 40
0
 40
0
 40
0
 40
0
 40
1
 40
1
 40
1
 40
1
 10
403.330456
 20
442.632056
 30
0.0
 10
396.545928
 20
402.464512
 30
0.0
 10
401.905688
 20
360.864184
 30
0.0
 10
415.853848
 20
322.813840
 30
0.0
  0
SPLINE
  5
158
100
AcDbEntity
  8
Medium_Features
 62
7
100
AcDbSpline
 70
8
 71
3
 72
8
 73
4
 74
0
 40
0
 40
0
 40
0
 40
0
 40
1
 40
1
 40
1
 40
1
 10
415.853848
 20
322.813840
 30
0.0
 10
423.529720
 20
301.550344
 30
0.0
 10
431.969648
 20
279.788808
 30
0.0
 10
446.843056
 20
262.495136
 30
0.0
  0
SPLINE
  5
159
100
AcDbEntity
  8
Medium_Features
 62
7
100
AcDbSpline
 70
8
 71
3
 72
8
 73
4
 74
0
 40
0
 40
0
 40
0
 40
0
 40
1
 40
1
 40
1
 40
1
 10
446.843056
 20
262.495136
 30
0.0
 10
456.251352
 20
251.796184
 30
0.0
 10
471.564736
 20
242.934088
 30
0.0
 10
485.868056
 20
248.795136
 30
0.0
  0
SPLINE
  5
15a
100
AcDbEntity
  8
Medium_Features
 62
7
100
AcDbSpline
 70
8
 71
3
 72
8
 73
4
 74
0
 40
0
 40
0
 40
0
 40
0
 40
1
 40
1
 40
1
 40
1
 10
485.868056
 20
248.795136
 30
0.0
 10
503.866104
 20
255.122848
 30
0.0
 10
515.472504
 20
273.134776
 30
0.0
 10
519.443056
 20
291.220136
 30
0.0
  0
SPLINE
  5
15b
100
AcDbEntity
  8
Medium_Features
 62
7
100
AcDbSpline
 70
8
 71
3
 72
8
 73
4
 74
0
 40
0
 40
0
 40
0
 40
0
 40
1
 40
1
 40
1
 40
1
 10
519.443056
 20
291.220136
 30
0.0
 10
527.167240
 20
323.447152
 30
0.0
 10
516.962632
 20
357.007032
 30
0.0
 10
500.259544
 20
384.650824
 30
0.0
  0
SPLINE
  5
15c
100
AcDbEntity
  8
Medium_Features
 62
7
100
AcDbSpline
 70
8
 71
3
 72
8
 73
4
 74
0
 40
0
 40
0
 40
0
 40
0
 40
1
 40
1
 40
1
 40
1
 10
500.259544
 20
384.650824
 30
0.0
 10
484.729424
 20
410.655584
 30
0.0
 10
464.821576
 20
433.826376
 30
0.0
 10
442.859240
 20
454.414120
 30
0.0
  0
SPLINE
  5
15d
100
AcDbEntity
  8
Medium_Features
 62
7
100
AcDbSpline
 70
8
 71
3
 72
8
 73
4
 74
0
 40
0
 40
0
 40
0
 40
0
 40
1
 40
1
 40
1
 40
1
 10
442.859240
 20
454.414120
 30
0.0
 10
436.273072
 20
460.039712
 30
0.0
 10
428.819616
 20
466.278392
 30
0.0
 10
419.643056
 20
465.945136
 30
0.0
  0
LWPOLYLINE
  5
15e
100
AcDbEntity
  8
Medium_Features
 62
7
100
AcDbPolyline
 90
2
 70
1
 10
156.642936
 20
513.145296
 30
0.0
 10
156.643016
 20
513.145136
 30
0.0
  0
SPLINE
  5
15f
100
AcDbEntity
  8
Medium_Features
 62
7
100
AcDbSpline
 70
8
 71
3
 72
8
 73
4
 74
0
 40
0
 40
0
 40
0
 40
0
 40
1
 40
1
 40
1
 40
1
 10
198.158216
 20
527.601488
 30
0.0
 10
198.158216
 20
527.601488
 30
0.0
 10
182.636032
 20
523.808784
 30
0.0
 10
176.868056
 20
522.545136
 30
0.0
  0
SPLINE
  5
160
100
AcDbEntity
  8
Medium_Features
 62
7
100
AcDbSpline
 70
8
 71
3
 72
8
 73
4
 74
0
 40
0
 40
0
 40
0
 40
0
 40
1
 40
1
 40
1
 40
1
 10
176.868056
 20
522.545136
 30
0.0
 10
192.519184
 20
515.621504
 30
0.0
 10
204.717648
 20
500.141488
 30
0.0
 10
205.143056
 20
482.645136
 30
0.0
  0
SPLINE
  5
161
100
AcDbEntity
  8
Medium_Features
 62
7
100
AcDbSpline
 70
8
 71
3
 72
8
 73
4
 74
0
 40
0
 40
0
 40
0
 40
0
 40
1
 40
1
 40
1
 40
1
 10
205.143056
 20
482.645136
 30
0.0
 10
205.560904
 20
478.525952
 30
0.0
 10
205.654336
 20
474.382440
 30
0.0
 10
205.718056
 20
470.245136
 30
0.0
  0
SPLINE
  5
162
100
AcDbEntity
  8
Medium_Features
 62
7
100
AcDbSpline
 70
8
 71
3
 72
8
 73
4
 74
0
 40
0
 40
0
 40
0
 40
0
 40
1
 40
1
 40
1
 40
1
 10
205.718056
 20
470.245136
 30
0.0
 10
244.081592
 20
446.958520
 30
0.0
 10
286.687576
 20
431.408848
 30
0.0
 10
330.477080
 20
421.935360
 30
0.0
  0
SPLINE
  5
163
100
AcDbEntity
  8
Medium_Features
 62
7
100
AcDbSpline
 70
8
 71
3
 72
8
 73
4
 74
0
 40
0
 40
0
 40
0
 40
0
 40
1
 40
1
 40
1
 40
1
 10
330.477080
 20
421.935360
 30
0.0
 10
349.487336
 20
417.632176
 30
0.0
 10
368.759680
 20
414.565088
 30
0.0
 10
388.243056
 20
413.795136
 30
0.0
  0
SPLINE
  5
164
100
AcDbEntity
  8
Medium_Features
 62
7
100
AcDbSpline
 70
8
 71
3
 72
8
 73
4
 74
0
 40
0
 40
0
 40
0
 40
0
 40
1
 40
1
 40
1
 40
1
 10
388.243056
 20
413.795136
 30
0.0
 10
387.674416
 20
421.689584
 30
0.0
 10
388.886184
 20
429.680968
 30
0.0
 10
389.693056
 20
437.420136
 30
0.0
  0
SPLINE
  5
165
100
AcDbEntity
  8
Medium_Features
 62
7
100
AcDbSpline
 70
8
 71
3
 72
8
 73
4
 74
0
 40
0
 40
0
 40
0
 40
0
 40
1
 40
1
 40
1
 40
1
 10
389.693056
 20
437.420136
 30
0.0
 10
346.207568
 20
436.508704
 30
0.0
 10
302.902288
 20
448.986656
 30
0.0
 10
264.938904
 20
468.949824
 30
0.0
  0
SPLINE
  5
166
100
AcDbEntity
  8
Medium_Features
 62
7
100
AcDbSpline
 70
8
 71
3
 72
8
 73
4
 74
0
 40
0
 40
0
 40
0
 40
0
 40
1
 40
1
 40
1
 40
1
 10
264.938904
 20
468.949824
 30
0.0
 10
238.716688
 20
482.738864
 30
0.0
 10
215.791872
 20
505.644384
 30
0.0
 10
198.158216
 20
527.601488
 30
0.0
  0
LWPOLYLINE
  5
167
100
AcDbEntity
  8
Medium_Features
 62
7
100
AcDbPolyline
 90
2
 70
1
 10
419.643056
 20
465.945136
 30
0.0
 10
419.643056
 20
465.945136
 30
0.0
  0
SPLINE
  5
168
100
AcDbEntity
  8
Medium_Features
 62
7
100
AcDbSpline
 70
8
 71
3
 72
8
 73
4
 74
0
 40
0
 40
0
 40
0
 40
0
 40
1
 40
1
 40
1
 40
1
 10
466.693056
 20
474.220136
 30
0.0
 10
462.440648
 20
470.626464
 30
0.0
 10
457.999112
 20
467.356336
 30
0.0
 10
453.468056
 20
464.120136
 30
0.0
  0
SPLINE
  5
169
100
AcDbEntity
  8
Medium_Features
 62
7
100
AcDbSpline
 70
8
 71
3
 72
8
 73
4
 74
0
 40
0
 40
0
 40
0
 40
0
 40
1
 40
1
 40
1
 40
1
 10
453.468056
 20
464.120136
 30
0.0
 10
463.246032
 20
453.995752
 30
0.0
 10
472.680536
 20
442.805544
 30
0.0
 10
481.018056
 20
431.870136
 30
0.0
  0
SPLINE
  5
16a
100
AcDbEntity
  8
Medium_Features
 62
7
100
AcDbSpline
 70
8
 71
3
 72
8
 73
4
 74
0
 40
0
 40
0
 40
0
 40
0
 40
1
 40
1
 40
1
 40
1
 10
481.018056
 20
431.870136
 30
0.0
 10
488.335264
 20
435.797776
 30
0.0
 10
491.730328
 20
445.468136
 30
0.0
 10
487.368056
 20
452.720136
 30
0.0
  0
SPLINE
  5
16b
100
AcDbEntity
  8
Medium_Features
 62
7
100
AcDbSpline
 70
8
 71
3
 72
8
 73
4
 74
0
 40
0
 40
0
 40
0
 40
0
 40
1
 40
1
 40
1
 40
1
 10
487.368056
 20
452.720136
 30
0.0
 10
483.535704
 20
462.095376
 30
0.0
 10
476.230760
 20
470.285696
 30
0.0
 10
467.118056
 20
474.595136
 30
0.0
  0
LWPOLYLINE
  5
16c
100
AcDbEntity
  8
Medium_Features
 62
7
100
AcDbPolyline
 90
2
 70
1
 10
198.158216
 20
527.601488
 30
0.0
 10
198.158216
 20
527.601488
 30
0.0
  0
SPLINE
  5
16d
100
AcDbEntity
  8
Medium_Features
 62
7
100
AcDbSpline
 70
8
 71
3
 72
8
 73
4
 74
0
 40
0
 40
0
 40
0
 40
0
 40
1
 40
1
 40
1
 40
1
 10
326.718056
 20
758.445136
 30
0.0
 10
295.881288
 20
758.274506
 30
0.0
 10
264.313608
 20
751.240263
 30
0.0
 10
239.318056
 20
732.445136
 30
0.0
  0
SPLINE
  5
16e
100
AcDbEntity
  8
Medium_Features
 62
7
100
AcDbSpline
 70
8
 71
3
 72
8
 73
4
 74
0
 40
0
 40
0
 40
0
 40
0
 40
1
 40
1
 40
1
 40
1
 10
239.318056
 20
732.445136
 30
0.0
 10
206.183152
 20
709.307301
 30
0.0
 10
183.352280
 20
671.643976
 30
0.0
 10
179.893056
 20
631.220136
 30
0.0
  0
SPLINE
  5
16f
100
AcDbEntity
  8
Medium_Features
 62
7
100
AcDbSpline
 70
8
 71
3
 72
8
 73
4
 74
0
 40
0
 40
0
 40
0
 40
0
 40
1
 40
1
 40
1
 40
1
 10
179.893056
 20
631.220136
 30
0.0
 10
176.519312
 20
600.394728
 30
0.0
 10
189.190336
 20
570.302512
 30
0.0
 10
204.286352
 20
544.252616
 30
0.0
  0
SPLINE
  5
170
100
AcDbEntity
  8
Medium_Features
 62
7
100
AcDbSpline
 70
8
 71
3
 72
8
 73
4
 74
0
 40
0
 40
0
 40
0
 40
0
 40
1
 40
1
 40
1
 40
1
 10
204.286352
 20
544.252616
 30
0.0
 10
217.910496
 20
520.742600
 30
0.0
 10
238.141440
 20
500.110752
 30
0.0
 10
261.439472
 20
486.127200
 30
0.0
  0
SPLINE
  5
171
100
AcDbEntity
  8
Medium_Features
 62
7
100
AcDbSpline
 70
8
 71
3
 72
8
 73
4
 74
0
 40
0
 40
0
 40
0
 40
0
 40
1
 40
1
 40
1
 40
1
 10
261.439472
 20
486.127200
 30
0.0
 10
299.855448
 20
463.069832
 30
0.0
 10
328.465584
 20
447.574272
 30
0.0
 10
390.343056
 20
448.038784
 30
0.0
  0
SPLINE
  5
172
100
AcDbEntity
  8
Medium_Features
 62
7
100
AcDbSpline
 70
8
 71
3
 72
8
 73
4
 74
0
 40
0
 40
0
 40
0
 40
0
 40
1
 40
1
 40
1
 40
1
 10
390.343056
 20
448.038784
 30
0.0
 10
390.839872
 20
450.360880
 30
0.0
 10
391.371120
 20
455.021936
 30
0.0
 10
392.168056
 20
457.270136
 30
0.0
  0
SPLINE
  5
173
100
AcDbEntity
  8
Medium_Features
 62
7
100
AcDbSpline
 70
8
 71
3
 72
8
 73
4
 74
0
 40
0
 40
0
 40
0
 40
0
 40
1
 40
1
 40
1
 40
1
 10
392.168056
 20
457.270136
 30
0.0
 10
354.342192
 20
454.806456
 30
0.0
 10
315.504696
 20
464.366080
 30
0.0
 10
284.043056
 20
485.445136
 30
0.0
  0
SPLINE
  5
174
100
AcDbEntity
  8
Medium_Features
 62
7
100
AcDbSpline
 70
8
 71
3
 72
8
 73
4
 74
0
 40
0
 40
0
 40
0
 40
0
 40
1
 40
1
 40
1
 40
1
 10
284.043056
 20
485.445136
 30
0.0
 10
263.304480
 20
500.011272
 30
0.0
 10
246.997760
 20
523.993872
 30
0.0
 10
248.668056
 20
550.245136
 30
0.0
  0
SPLINE
  5
175
100
AcDbEntity
  8
Medium_Features
 62
7
100
AcDbSpline
 70
8
 71
3
 72
8
 73
4
 74
0
 40
0
 40
0
 40
0
 40
0
 40
1
 40
1
 40
1
 40
1
 10
248.668056
 20
550.245136
 30
0.0
 10
250.601048
 20
571.027352
 30
0.0
 10
265.555536
 20
587.482032
 30
0.0
 10
280.768056
 20
600.345136
 30
0.0
  0
SPLINE
  5
176
100
AcDbEntity
  8
Medium_Features
 62
7
100
AcDbSpline
 70
8
 71
3
 72
8
 73
4
 74
0
 40
0
 40
0
 40
0
 40
0
 40
1
 40
1
 40
1
 40
1
 10
280.768056
 20
600.345136
 30
0.0
 10
311.453944
 20
625.320240
 30
0.0
 10
352.306512
 20
633.618456
 30
0.0
 10
391.168008
 20
633.432832
 30
0.0
  0
SPLINE
  5
177
100
AcDbEntity
  8
Medium_Features
 62
7
100
AcDbSpline
 70
8
 71
3
 72
8
 73
4
 74
0
 40
0
 40
0
 40
0
 40
0
 40
1
 40
1
 40
1
 40
1
 10
391.168008
 20
633.432832
 30
0.0
 10
424.149976
 20
633.824016
 30
0.0
 10
459.561496
 20
629.861552
 30
0.0
 10
486.543056
 20
609.520136
 30
0.0
  0
SPLINE
  5
178
100
AcDbEntity
  8
Medium_Features
 62
7
100
AcDbSpline
 70
8
 71
3
 72
8
 73
4
 74
0
 40
0
 40
0
 40
0
 40
0
 40
1
 40
1
 40
1
 40
1
 10
486.543056
 20
609.520136
 30
0.0
 10
495.889920
 20
602.154008
 30
0.0
 10
503.601608
 20
592.217768
 30
0.0
 10
507.018056
 20
580.670136
 30
0.0
  0
SPLINE
  5
179
100
AcDbEntity
  8
Medium_Features
 62
7
100
AcDbSpline
 70
8
 71
3
 72
8
 73
4
 74
0
 40
0
 40
0
 40
0
 40
0
 40
1
 40
1
 40
1
 40
1
 10
507.018056
 20
580.670136
 30
0.0
 10
509.172232
 20
612.082664
 30
0.0
 10
502.693528
 20
643.690016
 30
0.0
 10
491.030096
 20
672.712448
 30
0.0
  0
SPLINE
  5
17a
100
AcDbEntity
  8
Medium_Features
 62
7
100
AcDbSpline
 70
8
 71
3
 72
8
 73
4
 74
0
 40
0
 40
0
 40
0
 40
0
 40
1
 40
1
 40
1
 40
1
 10
491.030096
 20
672.712448
 30
0.0
 10
481.575048
 20
695.416366
 30
0.0
 10
465.507488
 20
715.027547
 30
0.0
 10
444.483768
 20
727.753123
 30
0.0
  0
SPLINE
  5
17b
100
AcDbEntity
  8
Medium_Features
 62
7
100
AcDbSpline
 70
8
 71
3
 72
8
 73
4
 74
0
 40
0
 40
0
 40
0
 40
0
 40
1
 40
1
 40
1
 40
1
 10
444.483768
 20
727.753123
 30
0.0
 10
409.837296
 20
750.322284
 30
0.0
 10
367.762944
 20
758.883980
 30
0.0
 10
326.718056
 20
758.445136
 30
0.0
  0
LWPOLYLINE
  5
17c
100
AcDbEntity
  8
Medium_Features
 62
7
100
AcDbPolyline
 90
3
 70
1
 10
467.118056
 20
474.595136
 30
0.0
 10
466.693056
 20
474.220136
 30
0.0
 10
466.693056
 20
474.220136
 30
0.0
  0
SPLINE
  5
17d
100
AcDbEntity
  8
Medium_Features
 62
7
100
AcDbSpline
 70
8
 71
3
 72
8
 73
4
 74
0
 40
0
 40
0
 40
0
 40
0
 40
1
 40
1
 40
1
 40
1
 10
385.575000
 20
622.064760
 30
0.0
 10
346.398672
 20
621.228872
 30
0.0
 10
305.124456
 20
610.236392
 30
0.0
 10
277.025000
 20
581.789760
 30
0.0
  0
SPLINE
  5
17e
100
AcDbEntity
  8
Medium_Features
 62
7
100
AcDbSpline
 70
8
 71
3
 72
8
 73
4
 74
0
 40
0
 40
0
 40
0
 40
0
 40
1
 40
1
 40
1
 40
1
 10
277.025000
 20
581.789760
 30
0.0
 10
264.715648
 20
569.035520
 30
0.0
 10
255.607680
 20
550.255016
 30
0.0
 10
261.025000
 20
532.314760
 30
0.0
  0
SPLINE
  5
17f
100
AcDbEntity
  8
Medium_Features
 62
7
100
AcDbSpline
 70
8
 71
3
 72
8
 73
4
 74
0
 40
0
 40
0
 40
0
 40
0
 40
1
 40
1
 40
1
 40
1
 10
261.025000
 20
532.314760
 30
0.0
 10
268.647552
 20
507.135896
 30
0.0
 10
291.914136
 20
490.774504
 30
0.0
 10
315.025000
 20
480.814760
 30
0.0
  0
SPLINE
  5
180
100
AcDbEntity
  8
Medium_Features
 62
7
100
AcDbSpline
 70
8
 71
3
 72
8
 73
4
 74
0
 40
0
 40
0
 40
0
 40
0
 40
1
 40
1
 40
1
 40
1
 10
315.025000
 20
480.814760
 30
0.0
 10
342.173880
 20
469.126208
 30
0.0
 10
373.091680
 20
463.759648
 30
0.0
 10
402.200000
 20
470.864760
 30
0.0
  0
SPLINE
  5
181
100
AcDbEntity
  8
Medium_Features
 62
7
100
AcDbSpline
 70
8
 71
3
 72
8
 73
4
 74
0
 40
0
 40
0
 40
0
 40
0
 40
1
 40
1
 40
1
 40
1
 10
402.200000
 20
470.864760
 30
0.0
 10
408.023616
 20
475.556408
 30
0.0
 10
415.386976
 20
483.587544
 30
0.0
 10
423.500000
 20
479.639760
 30
0.0
  0
SPLINE
  5
182
100
AcDbEntity
  8
Medium_Features
 62
7
100
AcDbSpline
 70
8
 71
3
 72
8
 73
4
 74
0
 40
0
 40
0
 40
0
 40
0
 40
1
 40
1
 40
1
 40
1
 10
423.500000
 20
479.639760
 30
0.0
 10
432.181824
 20
476.009448
 30
0.0
 10
442.414904
 20
476.909304
 30
0.0
 10
450.200000
 20
482.214760
 30
0.0
  0
SPLINE
  5
183
100
AcDbEntity
  8
Medium_Features
 62
7
100
AcDbSpline
 70
8
 71
3
 72
8
 73
4
 74
0
 40
0
 40
0
 40
0
 40
0
 40
1
 40
1
 40
1
 40
1
 10
450.200000
 20
482.214760
 30
0.0
 10
483.051080
 20
498.278136
 30
0.0
 10
503.524424
 20
537.862528
 30
0.0
 10
495.025000
 20
574.014760
 30
0.0
  0
SPLINE
  5
184
100
AcDbEntity
  8
Medium_Features
 62
7
100
AcDbSpline
 70
8
 71
3
 72
8
 73
4
 74
0
 40
0
 40
0
 40
0
 40
0
 40
1
 40
1
 40
1
 40
1
 10
495.025000
 20
574.014760
 30
0.0
 10
490.333480
 20
591.832344
 30
0.0
 10
475.608504
 20
605.590968
 30
0.0
 10
458.350000
 20
611.314760
 30
0.0
  0
SPLINE
  5
185
100
AcDbEntity
  8
Medium_Features
 62
7
100
AcDbSpline
 70
8
 71
3
 72
8
 73
4
 74
0
 40
0
 40
0
 40
0
 40
0
 40
1
 40
1
 40
1
 40
1
 10
458.350000
 20
611.314760
 30
0.0
 10
435.344288
 20
620.494016
 30
0.0
 10
410.115832
 20
621.750864
 30
0.0
 10
385.575000
 20
622.064760
 30
0.0
  0
LWPOLYLINE
  5
186
100
AcDbEntity
  8
Medium_Features
 62
7
100
AcDbPolyline
 90
2
 70
1
 10
326.718056
 20
758.445136
 30
0.0
 10
326.718056
 20
758.445136
 30
0.0
  0
SPLINE
  5
187
100
AcDbEntity
  8
Medium_Features
 62
7
100
AcDbSpline
 70
8
 71
3
 72
8
 73
4
 74
0
 40
0
 40
0
 40
0
 40
0
 40
1
 40
1
 40
1
 40
1
 10
332.025000
 20
567.389760
 30
0.0
 10
334.677008
 20
567.448560
 30
0.0
 10
337.333920
 20
567.227896
 30
0.0
 10
339.950000
 20
566.714760
 30
0.0
  0
SPLINE
  5
188
100
AcDbEntity
  8
Medium_Features
 62
7
100
AcDbSpline
 70
8
 71
3
 72
8
 73
4
 74
0
 40
0
 40
0
 40
0
 40
0
 40
1
 40
1
 40
1
 40
1
 10
339.950000
 20
566.714760
 30
0.0
 10
357.305608
 20
563.310504
 30
0.0
 10
370.495240
 20
549.183448
 30
0.0
 10
376.150000
 20
527.939760
 30
0.0
  0
SPLINE
  5
189
100
AcDbEntity
  8
Medium_Features
 62
7
100
AcDbSpline
 70
8
 71
3
 72
8
 73
4
 74
0
 40
0
 40
0
 40
0
 40
0
 40
1
 40
1
 40
1
 40
1
 10
376.150000
 20
527.939760
 30
0.0
 10
373.260384
 20
530.254208
 30
0.0
 10
370.501456
 20
532.707120
 30
0.0
 10
367.350000
 20
534.764760
 30
0.0
  0
SPLINE
  5
18a
100
AcDbEntity
  8
Medium_Features
 62
7
100
AcDbSpline
 70
8
 71
3
 72
8
 73
4
 74
0
 40
0
 40
0
 40
0
 40
0
 40
1
 40
1
 40
1
 40
1
 10
367.350000
 20
534.764760
 30
0.0
 10
346.453520
 20
548.740080
 30
0.0
 10
318.190008
 20
549.389616
 30
0.0
 10
293.475000
 20
545.264760
 30
0.0
  0
SPLINE
  5
18b
100
AcDbEntity
  8
Medium_Features
 62
7
100
AcDbSpline
 70
8
 71
3
 72
8
 73
4
 74
0
 40
0
 40
0
 40
0
 40
0
 40
1
 40
1
 40
1
 40
1
 10
293.475000
 20
545.264760
 30
0.0
 10
303.303880
 20
558.684608
 30
0.0
 10
317.704168
 20
567.072416
 30
0.0
 10
332.025000
 20
567.389760
 30
0.0
  0
LWPOLYLINE
  5
18c
100
AcDbEntity
  8
Medium_Features
 62
7
100
AcDbPolyline
 90
2
 70
1
 10
385.575000
 20
622.064760
 30
0.0
 10
385.575000
 20
622.064760
 30
0.0
  0
SPLINE
  5
18d
100
AcDbEntity
  8
Medium_Features
 62
7
100
AcDbSpline
 70
8
 71
3
 72
8
 73
4
 74
0
 40
0
 40
0
 40
0
 40
0
 40
1
 40
1
 40
1
 40
1
 10
433.725000
 20
553.514760
 30
0.0
 10
437.728368
 20
553.594600
 30
0.0
 10
441.811576
 20
553.086424
 30
0.0
 10
446.000000
 20
552.089760
 30
0.0
  0
SPLINE
  5
18e
100
AcDbEntity
  8
Medium_Features
 62
7
100
AcDbSpline
 70
8
 71
3
 72
8
 73
4
 74
0
 40
0
 40
0
 40
0
 40
0
 40
1
 40
1
 40
1
 40
1
 10
446.000000
 20
552.089760
 30
0.0
 10
454.207256
 20
550.136784
 30
0.0
 10
463.176416
 20
538.055944
 30
0.0
 10
461.400000
 20
532.014760
 30
0.0
  0
SPLINE
  5
18f
100
AcDbEntity
  8
Medium_Features
 62
7
100
AcDbSpline
 70
8
 71
3
 72
8
 73
4
 74
0
 40
0
 40
0
 40
0
 40
0
 40
1
 40
1
 40
1
 40
1
 10
461.400000
 20
532.014760
 30
0.0
 10
449.128080
 20
539.955792
 30
0.0
 10
412.009464
 20
539.513784
 30
0.0
 10
392.800000
 20
526.439760
 30
0.0
  0
SPLINE
  5
190
100
AcDbEntity
  8
Medium_Features
 62
7
100
AcDbSpline
 70
8
 71
3
 72
8
 73
4
 74
0
 40
0
 40
0
 40
0
 40
0
 40
1
 40
1
 40
1
 40
1
 10
392.800000
 20
526.439760
 30
0.0
 10
406.139848
 20
545.516000
 30
0.0
 10
419.427256
 20
553.229600
 30
0.0
 10
433.725000
 20
553.514760
 30
0.0
  0
LWPOLYLINE
  5
191
100
AcDbEntity
  8
Medium_Features
 62
7
100
AcDbPolyline
 90
2
 70
1
 10
332.025000
 20
567.389760
 30
0.0
 10
332.025000
 20
567.389760
 30
0.0
  0
LWPOLYLINE
  5
192
100
AcDbEntity
  8
Medium_Features
 62
7
100
AcDbPolyline
 90
2
 70
1
 10
433.725000
 20
553.514760
 30
0.0
 10
433.725000
 20
553.514760
 30
0.0
  0
ENDSEC
  0
SECTION
  2
OBJECTS
  0
DICTIONARY
  5
C
330
0
100
AcDbDictionary
  3
ACAD_GROUP
350
D
  3
ACAD_MLINESTYLE
350
17
  0
DICTIONARY
  5
D
330
C
100
AcDbDictionary
  0
DICTIONARY
  5
1A
330
C
100
AcDbDictionary
  0
DICTIONARY
  5
17
330
C
100
AcDbDictionary
  3
STANDARD
350
18
  0
DICTIONARY
  5
19
330
C
100
AcDbDictionary
  0
ENDSEC
  0
EOF
