<?xml version="1.0" encoding="UTF-8" standalone="no"?>
<!-- Created with Inkscape (http://www.inkscape.org/) -->

<svg
   xmlns:dc="http://purl.org/dc/elements/1.1/"
   xmlns:cc="http://creativecommons.org/ns#"
   xmlns:rdf="http://www.w3.org/1999/02/22-rdf-syntax-ns#"
   xmlns:svg="http://www.w3.org/2000/svg"
   xmlns="http://www.w3.org/2000/svg"
   xmlns:sodipodi="http://sodipodi.sourceforge.net/DTD/sodipodi-0.dtd"
   xmlns:inkscape="http://www.inkscape.org/namespaces/inkscape"
   sodipodi:docname="EVE.svg"
   inkscape:version="0.48.5 r10040"
   version="1.1"
   id="svg3636"
   height="1052.3622"
   width="744.09448">
  <defs
     id="defs3638" />
  <sodipodi:namedview
     id="base"
     pagecolor="#ffffff"
     bordercolor="#666666"
     borderopacity="1.0"
     inkscape:pageopacity="0.0"
     inkscape:pageshadow="2"
     inkscape:zoom="0.43358511"
     inkscape:cx="403.34525"
     inkscape:cy="513.50476"
     inkscape:document-units="px"
     inkscape:current-layer="layer1"
     showgrid="false"
     inkscape:window-width="1280"
     inkscape:window-height="751"
     inkscape:window-x="0"
     inkscape:window-y="25"
     inkscape:window-maximized="1"
     showguides="true"
     inkscape:guide-bbox="true"
     fit-margin-top="0"
     fit-margin-left="0"
     fit-margin-right="0"
     fit-margin-bottom="0" />
  <metadata
     id="metadata3641">
    <rdf:RDF>
      <cc:Work
         rdf:about="">
        <dc:format>image/svg+xml</dc:format>
        <dc:type
           rdf:resource="http://purl.org/dc/dcmitype/StillImage" />
        <dc:title></dc:title>
      </cc:Work>
    </rdf:RDF>
  </metadata>
  <g
     inkscape:label="Layer 1"
     inkscape:groupmode="layer"
     id="layer1"
     transform="translate(-119.22743,100.68078)">
    <path
       style="fill:none;stroke:#000000;display:inline"
       d="m 530.6875,-14.65625 c -48.47681,0.396546 -98.31019,14.47970574 -134.6552,47.636569 -42.87146,37.591316 -71.17069,93.613401 -69.3779,151.488001 0.64515,34.8086 13.98407,68.30794 33.2206,96.78168 -23.89045,4.79798 -48.86953,9.62032 -69.4619,23.21739 -29.26787,23.32961 -42.22707,60.25669 -54.26803,94.58849 -25.32172,69.90335 -43.90142,144.36243 -36.45772,219.28348 2.39766,20.01348 3.89833,41.73274 15.62515,58.75439 4.95016,7.25634 15.39615,9.59482 22.75,4.5625 15.03387,-10.15239 22.70603,-27.89102 30.73539,-43.59368 10.29506,-21.70467 18.49249,-44.50436 28.13961,-66.43757 10.421,64.94333 19.9984,131.11513 46.19161,191.84942 16.00015,35.99004 42.19955,68.18924 76.33964,88.18183 20.4515,11.97635 45.24847,16.70047 68.625,11.6875 34.30238,-6.40663 65.11282,-26.3978 87.09375,-53.125 22.16689,-26.44837 40.08255,-56.43489 59.71875,-84.875 16.6119,-26.20578 30.83232,-53.80264 44,-81.875 19.42368,16.64372 50.72899,18.14062 70.375,1.25 18.28847,-15.28574 29.04717,-38.04984 34.40625,-60.84375 5.49252,-29.67424 -0.96398,-60.31228 -10.90625,-88.1875 -9.84102,-25.3167 -24.78133,-48.3338 -41.3125,-69.75 9.89305,-7.26739 16.74493,-19.31728 14.75,-31.90625 -1.22254,-19.16638 -16.93577,-34.20088 -30.96875,-44.15625 22.7649,-20.37395 36.75042,-48.99323 46.34375,-77.65625 13.09721,-40.11624 10.6196,-83.89905 1.1875,-124.5 C 751.19093,100.20609 725.35573,54.371166 683.45111,27.504944 638.60991,-1.760042 584.0471,-15.015153 530.6875,-14.65625 z"
       id="path3731"
       inkscape:connector-curvature="0" />
    <path
       style="fill:none;stroke:#000000;display:inline"
       d="m 375.71875,382.40625 c -12.4996,60.34573 -39.84024,116.19816 -65.75,171.75 -1.13782,9.71052 3.14943,18.74425 3.68157,28.41708 10.88568,63.99985 21.92445,129.146 50.38093,187.95792 16.99936,32.77557 44.20968,61.34141 79.03125,75.0625 21.37781,8.03682 45.32168,5.48751 65.87659,-3.42744 23.29938,-9.29901 41.35232,-27.2941 56.73187,-46.47088 40.35958,-48.57478 70.80168,-104.4813 99.76654,-160.32043 2.84383,-3.9124 -4.13631,-6.37739 -5.375,-9.875 -23.62516,-30.28087 -36.36808,-67.85287 -46.625,-104.6875 -5.65288,-23.57426 -8.66203,-47.53122 -10,-71.71875 -55.95804,-2.1249 -110.09196,-18.75089 -162.74954,-36.63046 -22.49995,-8.26757 -44.36898,-18.21345 -64.87546,-30.55704 l -0.0937,0.5 z"
       id="path3729"
       inkscape:connector-curvature="0" />
    <path
       style="fill:none;stroke:#000000;display:inline"
       d="m 315,309.75 c -17.68712,2.18813 -27.77664,19.09509 -36.04217,33.0962 -31.1532,57.10726 -48.91118,120.47275 -61.39533,184.0288 -6.39069,37.82091 -7.0727,76.99089 -0.5,114.8125 2.38646,9.4973 4.91006,19.99435 11.4375,27.5625 5.10707,3.29967 8.13099,-4.05555 11.25,-6.71875 14.46121,-18.49732 22.01912,-41.09671 31.84375,-62.25 20.78524,-48.9626 43.73746,-97.05286 65.18487,-145.66235 12.33741,-29.71939 24.21144,-60.53934 25.64134,-92.9625 0.29106,-16.92337 -6.77198,-34.94488 -22.10746,-43.50015 C 332.87324,313.12751 324.10234,309.42428 315,309.75 z"
       id="path3727"
       inkscape:connector-curvature="0" />
    <path
       style="fill:none;stroke:#000000;display:inline"
       d="m 643.78125,369.25 c -13.37977,2.19826 -19.26766,17.09289 -20.39075,29.14135 -8.48066,50.20943 -1.78096,102.20984 15.65424,149.77277 9.59484,26.57937 20.14475,53.78129 38.73651,75.39838 11.76037,13.37369 30.9021,24.45131 48.78125,17.125 22.49756,-7.90964 37.00556,-30.42455 41.96875,-53.03125 9.65523,-40.28377 -3.10053,-82.23362 -23.97939,-116.78836 -19.41265,-32.50595 -44.29746,-61.46944 -71.75038,-87.20412 -8.23271,-7.03199 -17.54953,-14.83034 -29.02023,-14.41377 z"
       id="path3725"
       inkscape:connector-curvature="0" />
    <path
       style="fill:none;stroke:#000000;display:inline"
       d="m 366.9252,292.17956 c 0,0 -19.40273,4.74088 -26.6127,6.32044 19.56391,8.65454 34.81199,28.00456 35.34375,49.875 0.52231,5.14898 0.6391,10.32837 0.71875,15.5 47.95442,29.10827 101.2119,48.54536 155.94878,60.38722 23.76282,5.37898 47.85325,9.21284 72.20747,10.17528 -0.7108,-9.86806 0.80391,-19.85729 1.8125,-29.53125 -54.35686,1.13929 -108.48846,-14.45815 -155.94269,-39.41211 -32.77777,-17.2363 -61.43379,-45.8682 -83.47586,-73.31458 z"
       id="path3723"
       inkscape:connector-curvature="0"
       sodipodi:nodetypes="cccccccac" />
    <path
       style="fill:none;stroke:#000000;display:inline"
       d="m 702.59375,358.90625 c -5.31551,4.49209 -10.86743,8.57975 -16.53125,12.625 12.22247,12.65548 24.0156,26.64324 34.4375,40.3125 9.14651,-4.90955 13.39034,-16.9975 7.9375,-26.0625 C 723.64706,374.0622 714.51588,363.8243 703.125,358.4375 l -0.53125,0.46875 z"
       id="path3719"
       inkscape:connector-curvature="0" />
    <path
       style="fill:none;stroke:#000000;display:inline"
       d="m 527.625,3.625 c -38.54596,0.2132879 -78.00556,9.006091 -109.25,32.5 -41.41863,28.922294 -69.95722,76.00145 -74.28125,126.53125 -4.21718,38.53176 11.6216,76.14703 30.49162,108.7094 17.03018,29.38752 42.31886,55.17733 71.4414,72.65677 48.01997,28.82171 83.78264,48.19116 161.12948,47.61052 0.62102,-2.90262 1.28508,-8.72894 2.28125,-11.53919 -47.28233,3.0796 -95.8292,-8.86993 -135.15625,-35.21875 -25.92322,-18.20767 -46.30662,-48.18592 -44.21875,-81 2.41624,-25.97777 21.10935,-46.54612 40.125,-62.625 38.35736,-31.21888 89.42307,-41.59165 137.99994,-41.35962 41.22746,-0.48898 85.49186,4.4641 119.21881,29.89087 11.68358,9.20766 21.32319,21.62796 25.59375,36.0625 2.69272,-39.26566 -5.40566,-78.77485 -19.98495,-115.05289 C 721.19624,82.410962 701.11179,57.896986 674.83214,41.990016 631.52405,13.778565 578.93111,3.0764453 527.625,3.625 z"
       id="path3717"
       inkscape:connector-curvature="0"
       sodipodi:nodetypes="cccaaccccccccccc" />
    <path
       style="fill:none;stroke:#000000;display:inline"
       d="m 601.1875,174.09375 c -48.97041,1.04486 -100.56059,14.79534 -135.68491,50.35363 -15.38669,15.9428 -26.77424,39.40855 -20.00259,61.83387 9.52819,31.47358 38.6105,51.93888 67.49908,64.38856 33.9361,14.61069 72.58427,21.30533 108.96967,12.42394 7.27952,-5.86456 16.48372,-15.90348 26.625,-10.96875 10.85228,4.53789 23.66306,3.43461 33.39443,-3.19721 41.06385,-20.07922 66.6361,-69.58125 56.01182,-114.77154 -5.8644,-22.27198 -24.27062,-39.47026 -45.84375,-46.625 -28.75714,-11.47407 -60.29271,-13.04513 -90.96875,-13.4375 z"
       id="path3715"
       inkscape:connector-curvature="0" />
    <path
       style="fill:none;stroke:#000000;stroke-width:1.00661731;display:inline"
       d="m 540.125,240.49949 c -23.36104,1.72788 -40.84633,22.4046 -47.375,43.71875 -1.63918,4.90636 -2.2927,10.05497 -3.125,15.15625 25.42212,-18.78516 57.7712,-33.09536 89.81848,-25.68287 4.8029,1.05117 9.39415,2.83589 14.05652,4.37037 -7.91059,-21.67982 -29.99534,-38.21244 -53.375,-37.5625 z"
       id="path3023"
       inkscape:connector-curvature="0" />
    <path
       style="fill:none;stroke:#000000;stroke-width:0.92539006;display:inline"
       d="m 665.36532,233.31958 c -22.47395,1.18897 -40.71153,19.09819 -47.625,39.75 24.78098,-10.55069 54.30439,-16.37217 79.65625,-4.4375 4.69462,2.14245 9.01619,4.98943 13.28125,7.875 -2.16623,-22.28906 -21.95871,-44.00952 -45.3125,-43.1875 z"
       id="path3023-6"
       inkscape:connector-curvature="0" />
  </g>
</svg>
