  0
SECTION
  2
HEADER
  9
$ACADVER
  1
AC1014
  9
$HANDSEED
  5
FFFF
  9
$MEASUREMENT
 70
     1
  0
ENDSEC
  0
SECTION
  2
TABLES
  0
TABLE
  2
VPORT
  5
8
330
0
100
AcDbSymbolTable
 70
     4
  0
VPORT
  5
2E
330
8
100
AcDbSymbolTableRecord
100
AcDbViewportTableRecord
  2
*ACTIVE
 70
     0
 10
0.0
 20
0.0
 11
1.0
 21
1.0
 12
210.0
 22
148.5
 13
0.0
 23
0.0
 14
10.0
 24
10.0
 15
10.0
 25
10.0
 16
0.0
 26
0.0
 36
1.0
 17
0.0
 27
0.0
 37
0.0
 40
341.0
 41
1.24
 42
50.0
 43
0.0
 44
0.0
 50
0.0
 51
0.0
 71
     0
 72
   100
 73
     1
 74
     3
 75
     0
 76
     0
 77
     0
 78
     0
  0
ENDTAB
  0
TABLE
  2
LTYPE
  5
5
330
0
100
AcDbSymbolTable
 70
     1
  0
LTYPE
  5
14
330
5
100
AcDbSymbolTableRecord
100
AcDbLinetypeTableRecord
  2
BYBLOCK
 70
     0
  3

 72
    65
 73
     0
 40
0.0
  0
LTYPE
  5
15
330
5
100
AcDbSymbolTableRecord
100
AcDbLinetypeTableRecord
  2
BYLAYER
 70
     0
  3

 72
    65
 73
     0
 40
0.0
  0
LTYPE
  5
16
330
5
100
AcDbSymbolTableRecord
100
AcDbLinetypeTableRecord
  2
CONTINUOUS
 70
     0
  3
Solid line
 72
    65
 73
     0
 40
0.0
  0
ENDTAB
  0
TABLE
  2
LAYER
  5
2
100
AcDbSymbolTable
 70
2
  0
LAYER
  5
50
100
AcDbSymbolTableRecord
100
AcDbLayerTableRecord
  2
0
 70
0
  6
CONTINUOUS
  0
LAYER
  5
51
100
AcDbSymbolTableRecord
100
AcDbLayerTableRecord
  2
Layer_1
 70
0
  6
CONTINUOUS
  0
ENDTAB
  0
TABLE
  2
STYLE
  5
3
330
0
100
AcDbSymbolTable
 70
     1
  0
STYLE
  5
11
330
3
100
AcDbSymbolTableRecord
100
AcDbTextStyleTableRecord
  2
STANDARD
 70
     0
 40
0.0
 41
1.0
 50
0.0
 71
     0
 42
2.5
  3
txt
  4

  0
ENDTAB
  0
TABLE
  2
VIEW
  5
6
330
0
100
AcDbSymbolTable
 70
     0
  0
ENDTAB
  0
TABLE
  2
UCS
  5
7
330
0
100
AcDbSymbolTable
 70
     0
  0
ENDTAB
  0
TABLE
  2
APPID
  5
9
330
0
100
AcDbSymbolTable
 70
     2
  0
APPID
  5
12
330
9
100
AcDbSymbolTableRecord
100
AcDbRegAppTableRecord
  2
ACAD
 70
     0
  0
ENDTAB
  0
TABLE
  2
DIMSTYLE
  5
A
330
0
100
AcDbSymbolTable
 70
     1
  0
DIMSTYLE
105
27
330
A
100
AcDbSymbolTableRecord
100
AcDbDimStyleTableRecord
  2
ISO-25
 70
     0
  3

  4

  5

  6

  7

 40
1.0
 41
2.5
 42
0.625
 43
3.75
 44
1.25
 45
0.0
 46
0.0
 47
0.0
 48
0.0
140
2.5
141
2.5
142
0.0
143
0.03937007874016
144
1.0
145
0.0
146
1.0
147
0.625
 71
     0
 72
     0
 73
     0
 74
     0
 75
     0
 76
     0
 77
     1
 78
     8
170
     0
171
     3
172
     1
173
     0
174
     0
175
     0
176
     0
177
     0
178
     0
270
     2
271
     2
272
     2
273
     2
274
     3
340
11
275
     0
280
     0
281
     0
282
     0
283
     0
284
     8
285
     0
286
     0
287
     3
288
     0
  0
ENDTAB
  0
TABLE
  2
BLOCK_RECORD
  5
1
330
0
100
AcDbSymbolTable
 70
     1
  0
BLOCK_RECORD
  5
1F
330
1
100
AcDbSymbolTableRecord
100
AcDbBlockTableRecord
  2
*MODEL_SPACE
  0
BLOCK_RECORD
  5
1B
330
1
100
AcDbSymbolTableRecord
100
AcDbBlockTableRecord
  2
*PAPER_SPACE
  0
ENDTAB
  0
ENDSEC
  0
SECTION
  2
BLOCKS
  0
BLOCK
  5
20
330
1F
100
AcDbEntity
  8
0
100
AcDbBlockBegin
  2
*MODEL_SPACE
 70
     0
 10
0.0
 20
0.0
 30
0.0
  3
*MODEL_SPACE
  1

  0
ENDBLK
  5
21
330
1F
100
AcDbEntity
  8
0
100
AcDbBlockEnd
  0
BLOCK
  5
1C
330
1B
100
AcDbEntity
 67
     1
  8
0
100
AcDbBlockBegin
  2
*PAPER_SPACE
  1

  0
ENDBLK
  5
1D
330
1B
100
AcDbEntity
 67
     1
  8
0
100
AcDbBlockEnd
  0
ENDSEC
  0
SECTION
  2
ENTITIES
  0
LWPOLYLINE
  5
100
100
AcDbEntity
  8
Layer_1
 62
7
100
AcDbPolyline
 90
159
 70
0
 10
263.219840
 20
72.535632
 30
0.0
 10
252.503675
 20
75.936547
 30
0.0
 10
242.245333
 20
80.734283
 30
0.0
 10
232.489059
 20
86.743916
 30
0.0
 10
223.279098
 20
93.780525
 30
0.0
 10
214.659693
 20
101.659186
 30
0.0
 10
206.675090
 20
110.194977
 30
0.0
 10
199.369532
 20
119.202974
 30
0.0
 10
192.787264
 20
128.498256
 30
0.0
 10
186.590117
 20
138.903464
 30
0.0
 10
180.915733
 20
150.432905
 30
0.0
 10
175.739900
 20
162.871042
 30
0.0
 10
171.038405
 20
176.002338
 30
0.0
 10
162.961582
 20
203.482263
 30
0.0
 10
156.491568
 20
231.148387
 30
0.0
 10
151.434665
 20
257.276416
 30
0.0
 10
147.597175
 20
280.142058
 30
0.0
 10
142.805648
 20
309.189008
 30
0.0
 10
131.984899
 20
283.775580
 30
0.0
 10
118.753711
 20
252.732553
 30
0.0
 10
111.435005
 20
238.356111
 30
0.0
 10
103.754651
 20
226.479675
 30
0.0
 10
99.803957
 20
221.885981
 30
0.0
 10
95.792972
 20
218.405714
 30
0.0
 10
91.731736
 20
216.201683
 30
0.0
 10
87.630288
 20
215.436696
 30
0.0
 10
84.562903
 20
215.905647
 30
0.0
 10
81.777132
 20
217.247498
 30
0.0
 10
79.259619
 20
219.385356
 30
0.0
 10
76.997003
 20
222.242328
 30
0.0
 10
73.183030
 20
229.806040
 30
0.0
 10
70.228344
 20
239.323491
 30
0.0
 10
68.026074
 20
250.179535
 30
0.0
 10
66.469351
 20
261.759029
 30
0.0
 10
64.865064
 20
284.627784
 30
0.0
 10
64.806427
 20
303.554539
 30
0.0
 10
65.982448
 20
322.478667
 30
0.0
 10
68.272775
 20
341.357038
 30
0.0
 10
71.557059
 20
360.146524
 30
0.0
 10
75.714948
 20
378.803995
 30
0.0
 10
80.626092
 20
397.286321
 30
0.0
 10
86.170141
 20
415.550374
 30
0.0
 10
92.226744
 20
433.553024
 30
0.0
 10
100.088244
 20
455.775061
 30
0.0
 10
109.176627
 20
477.764238
 30
0.0
 10
114.578725
 20
488.206188
 30
0.0
 10
120.764933
 20
498.031544
 30
0.0
 10
127.894381
 20
507.054179
 30
0.0
 10
136.126200
 20
515.087968
 30
0.0
 10
143.226236
 20
519.810542
 30
0.0
 10
152.062074
 20
523.898156
 30
0.0
 10
161.806923
 20
527.352438
 30
0.0
 10
171.633995
 20
530.175017
 30
0.0
 10
188.227647
 20
533.931580
 30
0.0
 10
195.228712
 20
535.180872
 30
0.0
 10
186.347177
 20
549.399295
 30
0.0
 10
179.280702
 20
563.369936
 30
0.0
 10
173.945348
 20
577.155150
 30
0.0
 10
170.257177
 20
590.817293
 30
0.0
 10
168.132251
 20
604.418721
 30
0.0
 10
167.486632
 20
618.021789
 30
0.0
 10
168.236381
 20
631.688854
 30
0.0
 10
170.297560
 20
645.482272
 30
0.0
 10
174.166511
 20
660.641621
 30
0.0
 10
179.759884
 20
675.486240
 30
0.0
 10
186.925518
 20
689.833692
 30
0.0
 10
195.511252
 20
703.501542
 30
0.0
 10
205.364926
 20
716.307353
 30
0.0
 10
216.334378
 20
728.068689
 30
0.0
 10
228.267448
 20
738.603113
 30
0.0
 10
241.011976
 20
747.728189
 30
0.0
 10
254.812355
 20
755.384708
 30
0.0
 10
269.515586
 20
761.457033
 30
0.0
 10
284.916853
 20
766.024884
 30
0.0
 10
300.811343
 20
769.167983
 30
0.0
 10
316.994240
 20
770.966053
 30
0.0
 10
333.260731
 20
771.498816
 30
0.0
 10
349.405999
 20
770.845993
 30
0.0
 10
365.225232
 20
769.087306
 30
0.0
 10
381.110536
 20
766.216120
 30
0.0
 10
397.026572
 20
762.207523
 30
0.0
 10
412.729912
 20
757.025490
 30
0.0
 10
427.977130
 20
750.633998
 30
0.0
 10
442.524798
 20
742.997023
 30
0.0
 10
456.129489
 20
734.078540
 30
0.0
 10
468.547776
 20
723.842526
 30
0.0
 10
479.536232
 20
712.252957
 30
0.0
 10
490.160595
 20
697.706522
 30
0.0
 10
499.124447
 20
681.851948
 30
0.0
 10
506.439330
 20
664.955729
 30
0.0
 10
512.116788
 20
647.284360
 30
0.0
 10
516.168365
 20
629.104336
 30
0.0
 10
518.605603
 20
610.682153
 30
0.0
 10
519.440047
 20
592.284305
 30
0.0
 10
518.683240
 20
574.177288
 30
0.0
 10
516.774915
 20
560.989093
 30
0.0
 10
513.412600
 20
547.436407
 30
0.0
 10
508.794560
 20
533.922883
 30
0.0
 10
503.119063
 20
520.852175
 30
0.0
 10
496.584374
 20
508.627936
 30
0.0
 10
489.388761
 20
497.653819
 30
0.0
 10
481.730489
 20
488.333479
 30
0.0
 10
473.807824
 20
481.070568
 30
0.0
 10
482.426256
 20
475.083327
 30
0.0
 10
490.440174
 20
467.233660
 30
0.0
 10
493.841803
 20
462.756653
 30
0.0
 10
496.637937
 20
457.989521
 30
0.0
 10
498.677123
 20
452.990760
 30
0.0
 10
499.807904
 20
447.818864
 30
0.0
 10
500.105233
 20
440.813104
 30
0.0
 10
498.702963
 20
434.240794
 30
0.0
 10
497.112707
 20
430.996097
 30
0.0
 10
494.795427
 20
427.714459
 30
0.0
 10
487.576960
 20
420.846624
 30
0.0
 10
498.781071
 20
405.630451
 30
0.0
 10
509.389145
 20
388.915150
 30
0.0
 10
518.506341
 20
371.088340
 30
0.0
 10
522.226221
 20
361.879250
 30
0.0
 10
525.237816
 20
352.537640
 30
0.0
 10
529.108302
 20
336.220298
 30
0.0
 10
531.342675
 20
319.431947
 30
0.0
 10
531.611517
 20
311.024235
 30
0.0
 10
531.189569
 20
302.694480
 30
0.0
 10
529.982909
 20
294.507920
 30
0.0
 10
527.897616
 20
286.529792
 30
0.0
 10
522.166232
 20
272.248064
 30
0.0
 10
518.442449
 20
265.282464
 30
0.0
 10
514.138690
 20
258.691129
 30
0.0
 10
509.249016
 20
252.667126
 30
0.0
 10
503.767491
 20
247.403522
 30
0.0
 10
497.688177
 20
243.093383
 30
0.0
 10
491.005136
 20
239.929776
 30
0.0
 10
485.610464
 20
238.403375
 30
0.0
 10
480.015964
 20
237.634184
 30
0.0
 10
474.309484
 20
237.626300
 30
0.0
 10
468.578876
 20
238.383820
 30
0.0
 10
462.911989
 20
239.910840
 30
0.0
 10
457.396675
 20
242.211456
 30
0.0
 10
452.120781
 20
245.289765
 30
0.0
 10
447.172160
 20
249.149864
 30
0.0
 10
437.726253
 20
229.502600
 30
0.0
 10
427.239607
 20
209.319081
 30
0.0
 10
415.751530
 20
189.285845
 30
0.0
 10
403.301328
 20
170.089432
 30
0.0
 10
387.602179
 20
146.806625
 30
0.0
 10
371.243871
 20
123.723651
 30
0.0
 10
362.392310
 20
112.878021
 30
0.0
 10
352.865691
 20
102.827454
 30
0.0
 10
342.493927
 20
93.820316
 30
0.0
 10
331.106928
 20
86.104976
 30
0.0
 10
323.390087
 20
81.955849
 30
0.0
 10
315.249287
 20
78.309325
 30
0.0
 10
306.786642
 20
75.264526
 30
0.0
 10
298.104271
 20
72.920572
 30
0.0
 10
289.304289
 20
71.376584
 30
0.0
 10
280.488812
 20
70.731685
 30
0.0
 10
271.759957
 20
71.084993
 30
0.0
 10
263.219840
 20
72.535632
 30
0.0
 10
263.219840
 20
72.535632
 30
0.0
  0
LWPOLYLINE
  5
101
100
AcDbEntity
  8
Layer_1
 62
7
100
AcDbPolyline
 90
60
 70
0
 10
293.134128
 20
75.618920
 30
0.0
 10
302.795403
 20
77.893470
 30
0.0
 10
312.641977
 20
81.278257
 30
0.0
 10
321.987402
 20
85.501173
 30
0.0
 10
330.145232
 20
90.290112
 30
0.0
 10
341.228209
 20
99.136460
 30
0.0
 10
353.202303
 20
111.165311
 30
0.0
 10
365.938308
 20
126.194844
 30
0.0
 10
379.307016
 20
144.043239
 30
0.0
 10
393.179222
 20
164.528674
 30
0.0
 10
407.425719
 20
187.469328
 30
0.0
 10
421.917300
 20
212.683379
 30
0.0
 10
436.524760
 20
239.989008
 30
0.0
 10
443.760776
 20
253.989008
 30
0.0
 10
437.787905
 20
260.475615
 30
0.0
 10
432.291325
 20
267.700934
 30
0.0
 10
427.240877
 20
275.530623
 30
0.0
 10
422.606402
 20
283.830343
 30
0.0
 10
414.464737
 20
301.302509
 30
0.0
 10
407.625056
 20
319.042704
 30
0.0
 10
401.256287
 20
339.476984
 30
0.0
 10
396.711599
 20
360.097172
 30
0.0
 10
393.695134
 20
381.733862
 30
0.0
 10
391.911032
 20
405.217648
 30
0.0
 10
381.738488
 20
405.414772
 30
0.0
 10
370.884203
 20
406.281026
 30
0.0
 10
347.737630
 20
409.704665
 30
0.0
 10
323.685756
 20
414.856042
 30
0.0
 10
299.943024
 20
421.102632
 30
0.0
 10
273.780063
 20
429.070759
 30
0.0
 10
248.620766
 20
438.202792
 30
0.0
 10
224.623714
 20
449.011105
 30
0.0
 10
213.110586
 20
455.203984
 30
0.0
 10
201.947488
 20
462.008072
 30
0.0
 10
196.997406
 20
440.312256
 30
0.0
 10
191.237757
 20
420.228395
 30
0.0
 10
184.799309
 20
401.442350
 30
0.0
 10
177.812836
 20
383.639984
 30
0.0
 10
162.718896
 20
349.729733
 30
0.0
 10
147.002104
 20
315.984536
 30
0.0
 10
149.704072
 20
299.195744
 30
0.0
 10
155.682645
 20
264.331185
 30
0.0
 10
161.968762
 20
232.753143
 30
0.0
 10
168.728278
 20
204.376922
 30
0.0
 10
176.127044
 20
179.117825
 30
0.0
 10
184.330912
 20
156.891157
 30
0.0
 10
193.505736
 20
137.612222
 30
0.0
 10
198.509084
 20
129.051687
 30
0.0
 10
203.817366
 20
121.196325
 30
0.0
 10
209.451313
 20
114.035547
 30
0.0
 10
215.431656
 20
107.558768
 30
0.0
 10
225.274946
 20
98.436201
 30
0.0
 10
235.006760
 20
90.809871
 30
0.0
 10
244.664195
 20
84.664530
 30
0.0
 10
254.284350
 20
79.984928
 30
0.0
 10
263.904323
 20
76.755815
 30
0.0
 10
273.561212
 20
74.961942
 30
0.0
 10
283.292114
 20
74.588061
 30
0.0
 10
293.134128
 20
75.618920
 30
0.0
 10
293.134128
 20
75.618920
 30
0.0
  0
LWPOLYLINE
  5
102
100
AcDbEntity
  8
Layer_1
 62
7
100
AcDbPolyline
 90
52
 70
0
 10
90.930584
 20
221.124840
 30
0.0
 10
94.104859
 20
223.342777
 30
0.0
 10
97.473848
 20
226.784407
 30
0.0
 10
104.917016
 20
237.542835
 30
0.0
 10
113.502188
 20
253.808307
 30
0.0
 10
123.471464
 20
275.989008
 30
0.0
 10
135.142368
 20
303.304225
 30
0.0
 10
147.357131
 20
330.535757
 30
0.0
 10
170.860928
 20
381.989008
 30
0.0
 10
182.509328
 20
409.730677
 30
0.0
 10
190.860440
 20
433.693057
 30
0.0
 10
193.800185
 20
444.347367
 30
0.0
 10
195.916413
 20
454.165279
 30
0.0
 10
197.209393
 20
463.182935
 30
0.0
 10
197.679395
 20
471.436476
 30
0.0
 10
197.326686
 20
478.962043
 30
0.0
 10
196.151536
 20
485.795778
 30
0.0
 10
194.154212
 20
491.973823
 30
0.0
 10
191.334984
 20
497.532318
 30
0.0
 10
187.694120
 20
502.507404
 30
0.0
 10
183.231889
 20
506.935225
 30
0.0
 10
177.948560
 20
510.851920
 30
0.0
 10
171.844400
 20
514.293632
 30
0.0
 10
163.763792
 20
517.401983
 30
0.0
 10
156.183878
 20
518.415581
 30
0.0
 10
148.994463
 20
517.260885
 30
0.0
 10
142.085350
 20
513.864352
 30
0.0
 10
135.346344
 20
508.152440
 30
0.0
 10
128.667249
 20
500.051607
 30
0.0
 10
121.937869
 20
489.488310
 30
0.0
 10
115.048008
 20
476.389008
 30
0.0
 10
107.786379
 20
460.504817
 30
0.0
 10
100.887619
 20
443.491423
 30
0.0
 10
94.415660
 20
425.575455
 30
0.0
 10
88.434430
 20
406.983542
 30
0.0
 10
83.007861
 20
387.942312
 30
0.0
 10
78.199882
 20
368.678394
 30
0.0
 10
74.074423
 20
349.418416
 30
0.0
 10
70.695416
 20
330.389008
 30
0.0
 10
68.874716
 20
312.901460
 30
0.0
 10
68.301262
 20
294.489894
 30
0.0
 10
68.608168
 20
277.627885
 30
0.0
 10
69.428544
 20
264.789008
 30
0.0
 10
70.796983
 20
253.885121
 30
0.0
 10
72.663082
 20
244.292066
 30
0.0
 10
74.966483
 20
236.132409
 30
0.0
 10
77.646832
 20
229.528714
 30
0.0
 10
80.643772
 20
224.603545
 30
0.0
 10
83.896949
 20
221.479467
 30
0.0
 10
87.346004
 20
220.279044
 30
0.0
 10
90.930584
 20
221.124840
 30
0.0
 10
90.930584
 20
221.124840
 30
0.0
  0
LWPOLYLINE
  5
103
100
AcDbEntity
  8
Layer_1
 62
7
100
AcDbPolyline
 90
55
 70
0
 10
471.401464
 20
244.320720
 30
0.0
 10
476.577069
 20
243.623438
 30
0.0
 10
481.867306
 20
243.978472
 30
0.0
 10
487.162921
 20
245.254662
 30
0.0
 10
492.354660
 20
247.320848
 30
0.0
 10
497.333268
 20
250.045868
 30
0.0
 10
501.989492
 20
253.298562
 30
0.0
 10
509.897768
 20
260.862328
 30
0.0
 10
514.956370
 20
267.839751
 30
0.0
 10
519.064175
 20
275.516782
 30
0.0
 10
522.261827
 20
283.741831
 30
0.0
 10
524.589970
 20
292.363308
 30
0.0
 10
526.089248
 20
301.229622
 30
0.0
 10
526.800306
 20
310.189184
 30
0.0
 10
526.763787
 20
319.090402
 30
0.0
 10
526.020336
 20
327.781688
 30
0.0
 10
523.277093
 20
342.310017
 30
0.0
 10
518.914718
 20
356.493239
 30
0.0
 10
513.141200
 20
370.295886
 30
0.0
 10
506.164529
 20
383.682496
 30
0.0
 10
498.192694
 20
396.617603
 30
0.0
 10
489.433683
 20
409.065742
 30
0.0
 10
480.095488
 20
420.991448
 30
0.0
 10
470.386096
 20
432.359256
 30
0.0
 10
458.520649
 20
445.407199
 30
0.0
 10
451.846796
 20
452.118730
 30
0.0
 10
444.923402
 20
458.322758
 30
0.0
 10
437.933875
 20
463.544878
 30
0.0
 10
431.061624
 20
467.310684
 30
0.0
 10
424.490058
 20
469.145769
 30
0.0
 10
421.374346
 20
469.191040
 30
0.0
 10
418.402584
 20
468.575728
 30
0.0
 10
413.273695
 20
466.112094
 30
0.0
 10
409.334281
 20
462.708357
 30
0.0
 10
406.402344
 20
458.553045
 30
0.0
 10
404.295885
 20
453.834687
 30
0.0
 10
401.831400
 20
443.462941
 30
0.0
 10
400.484832
 20
433.101344
 30
0.0
 10
399.030886
 20
416.860156
 30
0.0
 10
398.834840
 20
400.861795
 30
0.0
 10
399.803660
 20
385.103073
 30
0.0
 10
401.844312
 20
369.580801
 30
0.0
 10
404.863762
 20
354.291790
 30
0.0
 10
408.768977
 20
339.232850
 30
0.0
 10
413.466920
 20
324.400794
 30
0.0
 10
418.864560
 20
309.792432
 30
0.0
 10
427.845984
 20
288.872434
 30
0.0
 10
433.110625
 20
278.734657
 30
0.0
 10
439.032164
 20
269.246784
 30
0.0
 10
445.716309
 20
260.735135
 30
0.0
 10
453.268768
 20
253.526029
 30
0.0
 10
461.795250
 20
247.945785
 30
0.0
 10
466.456784
 20
245.868460
 30
0.0
 10
471.401464
 20
244.320720
 30
0.0
 10
471.401464
 20
244.320720
 30
0.0
  0
LWPOLYLINE
  5
104
100
AcDbEntity
  8
Layer_1
 62
7
100
AcDbPolyline
 90
39
 70
0
 10
198.766128
 20
528.659048
 30
0.0
 10
189.970819
 20
528.082987
 30
0.0
 10
179.575233
 20
526.385516
 30
0.0
 10
165.713072
 20
522.879624
 30
0.0
 10
168.498541
 20
522.106611
 30
0.0
 10
175.409314
 20
519.458792
 30
0.0
 10
184.276942
 20
514.442995
 30
0.0
 10
188.766937
 20
510.892988
 30
0.0
 10
192.932976
 20
506.566048
 30
0.0
 10
195.747339
 20
502.621381
 30
0.0
 10
197.966605
 20
498.389380
 30
0.0
 10
200.885715
 20
489.165205
 30
0.0
 10
202.222041
 20
479.097192
 30
0.0
 10
202.507320
 20
468.389008
 30
0.0
 10
233.859005
 20
451.385105
 30
0.0
 10
258.828068
 20
440.098002
 30
0.0
 10
281.575103
 20
432.034372
 30
0.0
 10
306.260704
 20
424.700888
 30
0.0
 10
328.988243
 20
418.991850
 30
0.0
 10
353.217774
 20
414.293955
 30
0.0
 10
375.282532
 20
411.292847
 30
0.0
 10
384.357257
 20
410.642851
 30
0.0
 10
391.515752
 20
410.674168
 30
0.0
 10
391.518366
 20
423.549030
 30
0.0
 10
393.374152
 20
440.822024
 30
0.0
 10
381.937854
 20
440.472063
 30
0.0
 10
370.345884
 20
440.948581
 30
0.0
 10
358.661042
 20
442.166831
 30
0.0
 10
346.946129
 20
444.042062
 30
0.0
 10
323.677296
 20
449.424474
 30
0.0
 10
301.041792
 20
456.417824
 30
0.0
 10
284.248320
 20
463.004747
 30
0.0
 10
268.009641
 20
470.989812
 30
0.0
 10
252.406862
 20
480.189643
 30
0.0
 10
237.521088
 20
490.420864
 30
0.0
 10
225.302303
 20
500.937574
 30
0.0
 10
212.665111
 20
513.577284
 30
0.0
 10
198.766160
 20
528.659048
 30
0.0
 10
198.766128
 20
528.659048
 30
0.0
  0
LWPOLYLINE
  5
105
100
AcDbEntity
  8
Layer_1
 62
7
100
AcDbPolyline
 90
21
 70
0
 10
486.713496
 20
428.116864
 30
0.0
 10
490.955403
 20
431.762364
 30
0.0
 10
493.891665
 20
435.915031
 30
0.0
 10
495.471586
 20
440.426161
 30
0.0
 10
495.644472
 20
445.147048
 30
0.0
 10
494.347071
 20
450.270141
 30
0.0
 10
491.735836
 20
456.136619
 30
0.0
 10
488.189345
 20
461.951021
 30
0.0
 10
484.086176
 20
466.917888
 30
0.0
 10
478.707732
 20
471.601593
 30
0.0
 10
474.115130
 20
474.627266
 30
0.0
 10
469.713296
 20
476.737816
 30
0.0
 10
460.958121
 20
469.620953
 30
0.0
 10
451.838752
 20
462.957432
 30
0.0
 10
467.147911
 20
446.319547
 30
0.0
 10
474.410285
 20
437.666232
 30
0.0
 10
481.037968
 20
428.589008
 30
0.0
 10
482.196543
 20
427.081886
 30
0.0
 10
483.301331
 20
426.519732
 30
0.0
 10
486.713496
 20
428.116864
 30
0.0
 10
486.713496
 20
428.116864
 30
0.0
  0
LWPOLYLINE
  5
106
100
AcDbEntity
  8
Layer_1
 62
7
100
AcDbPolyline
 90
118
 70
0
 10
394.404328
 20
445.830248
 30
0.0
 10
396.609056
 20
455.512662
 30
0.0
 10
399.830256
 20
462.597568
 30
0.0
 10
389.739441
 20
462.103496
 30
0.0
 10
377.435257
 20
461.634720
 30
0.0
 10
361.425180
 20
462.625000
 30
0.0
 10
351.564019
 20
464.115336
 30
0.0
 10
340.216688
 20
466.508096
 30
0.0
 10
323.311097
 20
471.350400
 30
0.0
 10
307.730639
 20
477.497065
 30
0.0
 10
293.682392
 20
484.921317
 30
0.0
 10
281.373436
 20
493.596384
 30
0.0
 10
271.010848
 20
503.495491
 30
0.0
 10
266.624155
 20
508.895693
 30
0.0
 10
262.801708
 20
514.591865
 30
0.0
 10
259.569392
 20
520.580660
 30
0.0
 10
256.953092
 20
526.858732
 30
0.0
 10
254.978693
 20
533.422735
 30
0.0
 10
253.672080
 20
540.269320
 30
0.0
 10
253.352936
 20
548.721130
 30
0.0
 10
254.629440
 20
556.742318
 30
0.0
 10
257.265324
 20
564.327716
 30
0.0
 10
261.024318
 20
571.472156
 30
0.0
 10
265.670153
 20
578.170471
 30
0.0
 10
270.966561
 20
584.417492
 30
0.0
 10
282.566016
 20
595.536984
 30
0.0
 10
292.403845
 20
603.069868
 30
0.0
 10
303.078269
 20
609.515203
 30
0.0
 10
314.435294
 20
614.923750
 30
0.0
 10
326.320925
 20
619.346272
 30
0.0
 10
338.581166
 20
622.833530
 30
0.0
 10
351.062022
 20
625.436287
 30
0.0
 10
363.609499
 20
627.205304
 30
0.0
 10
376.069600
 20
628.191344
 30
0.0
 10
390.901114
 20
628.659797
 30
0.0
 10
406.132254
 20
628.475321
 30
0.0
 10
421.464814
 20
627.409096
 30
0.0
 10
436.600588
 20
625.232304
 30
0.0
 10
451.241371
 20
621.716124
 30
0.0
 10
465.088958
 20
616.631737
 30
0.0
 10
477.845143
 20
609.750324
 30
0.0
 10
483.720770
 20
605.564226
 30
0.0
 10
489.211720
 20
600.843064
 30
0.0
 10
493.716694
 20
595.869832
 30
0.0
 10
497.529480
 20
590.205834
 30
0.0
 10
500.627785
 20
583.995257
 30
0.0
 10
502.989319
 20
577.382292
 30
0.0
 10
504.591789
 20
570.511127
 30
0.0
 10
505.412905
 20
563.525952
 30
0.0
 10
505.430373
 20
556.570956
 30
0.0
 10
504.621904
 20
549.790328
 30
0.0
 10
507.447480
 20
556.289983
 30
0.0
 10
509.624411
 20
563.989664
 30
0.0
 10
511.155269
 20
572.732402
 30
0.0
 10
512.042623
 20
582.361227
 30
0.0
 10
512.289043
 20
592.719171
 30
0.0
 10
511.897099
 20
603.649265
 30
0.0
 10
510.869363
 20
614.994540
 30
0.0
 10
509.208403
 20
626.598026
 30
0.0
 10
506.916790
 20
638.302754
 30
0.0
 10
503.997095
 20
649.951757
 30
0.0
 10
500.451887
 20
661.388064
 30
0.0
 10
496.283736
 20
672.454706
 30
0.0
 10
491.495213
 20
682.994715
 30
0.0
 10
486.088888
 20
692.851122
 30
0.0
 10
480.067331
 20
701.866958
 30
0.0
 10
473.433112
 20
709.885253
 30
0.0
 10
464.963027
 20
718.204665
 30
0.0
 10
455.752446
 20
725.790331
 30
0.0
 10
445.875015
 20
732.650746
 30
0.0
 10
435.404379
 20
738.794408
 30
0.0
 10
424.414183
 20
744.229814
 30
0.0
 10
412.978072
 20
748.965460
 30
0.0
 10
401.169692
 20
753.009844
 30
0.0
 10
389.062688
 20
756.371462
 30
0.0
 10
376.730705
 20
759.058812
 30
0.0
 10
364.247388
 20
761.080390
 30
0.0
 10
351.686382
 20
762.444694
 30
0.0
 10
339.121333
 20
763.160220
 30
0.0
 10
326.625886
 20
763.235466
 30
0.0
 10
314.273686
 20
762.678927
 30
0.0
 10
302.138378
 20
761.499102
 30
0.0
 10
290.293608
 20
759.704487
 30
0.0
 10
275.877142
 20
756.141118
 30
0.0
 10
261.788374
 20
750.789733
 30
0.0
 10
248.209429
 20
743.826459
 30
0.0
 10
235.322432
 20
735.427424
 30
0.0
 10
223.309507
 20
725.768755
 30
0.0
 10
212.352780
 20
715.026578
 30
0.0
 10
202.634375
 20
703.377022
 30
0.0
 10
194.336416
 20
690.996213
 30
0.0
 10
187.669347
 20
678.201036
 30
0.0
 10
182.284683
 20
664.538989
 30
0.0
 10
178.246386
 20
650.246155
 30
0.0
 10
175.618421
 20
635.558620
 30
0.0
 10
174.464753
 20
620.712468
 30
0.0
 10
174.849345
 20
605.943786
 30
0.0
 10
176.836162
 20
591.488657
 30
0.0
 10
180.489168
 20
577.583168
 30
0.0
 10
183.989449
 20
568.543521
 30
0.0
 10
188.294248
 20
559.823692
 30
0.0
 10
193.292785
 20
551.411968
 30
0.0
 10
198.874279
 20
543.296637
 30
0.0
 10
211.343019
 20
527.908306
 30
0.0
 10
224.814224
 20
513.565000
 30
0.0
 10
246.969348
 20
493.783282
 30
0.0
 10
256.373543
 20
486.334700
 30
0.0
 10
265.179053
 20
480.142674
 30
0.0
 10
273.773546
 20
474.928481
 30
0.0
 10
282.544691
 20
470.413398
 30
0.0
 10
302.167616
 20
462.365672
 30
0.0
 10
328.321645
 20
454.014831
 30
0.0
 10
353.970057
 20
448.071341
 30
0.0
 10
365.874524
 20
446.191715
 30
0.0
 10
376.776427
 20
445.141160
 30
0.0
 10
386.383713
 20
444.995423
 30
0.0
 10
394.404328
 20
445.830248
 30
0.0
 10
394.404328
 20
445.830248
 30
0.0
  0
LWPOLYLINE
  5
107
100
AcDbEntity
  8
Layer_1
 62
7
100
AcDbPolyline
 90
67
 70
0
 10
416.514680
 20
478.866328
 30
0.0
 10
421.543731
 20
478.759614
 30
0.0
 10
426.595489
 20
477.280637
 30
0.0
 10
431.654706
 20
475.761941
 30
0.0
 10
436.706136
 20
475.536072
 30
0.0
 10
447.431545
 20
479.181303
 30
0.0
 10
456.958287
 20
483.937076
 30
0.0
 10
465.365894
 20
489.682099
 30
0.0
 10
472.733898
 20
496.295083
 30
0.0
 10
479.141831
 20
503.654736
 30
0.0
 10
484.669224
 20
511.639769
 30
0.0
 10
489.395610
 20
520.128890
 30
0.0
 10
493.400520
 20
529.000808
 30
0.0
 10
495.830960
 20
536.076328
 30
0.0
 10
497.537042
 20
543.525977
 30
0.0
 10
498.489478
 20
551.205962
 30
0.0
 10
498.658982
 20
558.972490
 30
0.0
 10
498.016267
 20
566.681768
 30
0.0
 10
496.532045
 20
574.190004
 30
0.0
 10
494.177031
 20
581.353404
 30
0.0
 10
490.921936
 20
588.028176
 30
0.0
 10
486.923352
 20
593.775780
 30
0.0
 10
482.080430
 20
598.906236
 30
0.0
 10
476.536783
 20
603.438078
 30
0.0
 10
470.436026
 20
607.389838
 30
0.0
 10
463.921772
 20
610.780050
 30
0.0
 10
457.137635
 20
613.627247
 30
0.0
 10
443.334168
 20
617.766728
 30
0.0
 10
425.597094
 20
621.126594
 30
0.0
 10
407.378188
 20
623.150143
 30
0.0
 10
388.913898
 20
623.752704
 30
0.0
 10
370.440671
 20
622.849606
 30
0.0
 10
352.194955
 20
620.356179
 30
0.0
 10
334.413197
 20
616.187752
 30
0.0
 10
317.331844
 20
610.259655
 30
0.0
 10
301.187344
 20
602.487216
 30
0.0
 10
293.469999
 20
597.724244
 30
0.0
 10
285.959202
 20
592.153452
 30
0.0
 10
278.878776
 20
585.856044
 30
0.0
 10
272.452543
 20
578.913224
 30
0.0
 10
266.904326
 20
571.406195
 30
0.0
 10
262.457947
 20
563.416162
 30
0.0
 10
259.337228
 20
555.024327
 30
0.0
 10
257.765992
 20
546.311896
 30
0.0
 10
257.869956
 20
539.307650
 30
0.0
 10
259.216620
 20
532.345836
 30
0.0
 10
261.646071
 20
525.523922
 30
0.0
 10
264.998397
 20
518.939374
 30
0.0
 10
269.113685
 20
512.689660
 30
0.0
 10
273.832021
 20
506.872247
 30
0.0
 10
278.993495
 20
501.584602
 30
0.0
 10
284.438192
 20
496.924192
 30
0.0
 10
296.695032
 20
488.455237
 30
0.0
 10
309.994441
 20
481.265883
 30
0.0
 10
324.111396
 20
475.405811
 30
0.0
 10
338.820871
 20
470.924699
 30
0.0
 10
353.897843
 20
467.872227
 30
0.0
 10
369.117287
 20
466.298075
 30
0.0
 10
384.254180
 20
466.251922
 30
0.0
 10
399.083496
 20
467.783448
 30
0.0
 10
401.507807
 20
468.515597
 30
0.0
 10
403.726704
 20
469.780511
 30
0.0
 10
407.818846
 20
473.216366
 30
0.0
 10
411.901109
 20
476.706482
 30
0.0
 10
414.107657
 20
478.039222
 30
0.0
 10
416.514680
 20
478.866328
 30
0.0
 10
416.514680
 20
478.866328
 30
0.0
  0
LWPOLYLINE
  5
108
100
AcDbEntity
  8
Layer_1
 62
7
100
AcDbPolyline
 90
22
 70
0
 10
412.814848
 20
522.225400
 30
0.0
 10
428.279666
 20
526.566423
 30
0.0
 10
442.302731
 20
529.633426
 30
0.0
 10
454.302469
 20
531.320175
 30
0.0
 10
463.697304
 20
531.520432
 30
0.0
 10
468.407016
 20
531.350377
 30
0.0
 10
470.515049
 20
531.997300
 30
0.0
 10
470.322102
 20
533.854357
 30
0.0
 10
468.128872
 20
537.314704
 30
0.0
 10
464.056656
 20
541.670274
 30
0.0
 10
459.118877
 20
544.422224
 30
0.0
 10
453.337225
 20
545.574396
 30
0.0
 10
446.733390
 20
545.130628
 30
0.0
 10
439.329061
 20
543.094760
 30
0.0
 10
431.145928
 20
539.470631
 30
0.0
 10
422.205680
 20
534.262082
 30
0.0
 10
412.530008
 20
527.472952
 30
0.0
 10
406.857881
 20
522.985218
 30
0.0
 10
405.005148
 20
520.789702
 30
0.0
 10
406.986055
 20
520.623923
 30
0.0
 10
412.814848
 20
522.225400
 30
0.0
 10
412.814848
 20
522.225400
 30
0.0
  0
LWPOLYLINE
  5
109
100
AcDbEntity
  8
Layer_1
 62
7
100
AcDbPolyline
 90
26
 70
0
 10
333.977700
 20
555.587776
 30
0.0
 10
327.851872
 20
555.269805
 30
0.0
 10
321.599831
 20
554.183198
 30
0.0
 10
315.273600
 20
552.327631
 30
0.0
 10
308.925200
 20
549.702776
 30
0.0
 10
302.322142
 20
546.189644
 30
0.0
 10
300.848372
 20
544.934953
 30
0.0
 10
300.620627
 20
543.956180
 30
0.0
 10
303.985773
 20
542.650390
 30
0.0
 10
312.582700
 20
541.920276
 30
0.0
 10
330.202424
 20
540.071672
 30
0.0
 10
346.700639
 20
536.465273
 30
0.0
 10
361.209884
 20
531.344500
 30
0.0
 10
372.862700
 20
524.952776
 30
0.0
 10
378.652740
 20
521.344437
 30
0.0
 10
379.386913
 20
521.590701
 30
0.0
 10
379.160200
 20
523.055276
 30
0.0
 10
376.005122
 20
529.120209
 30
0.0
 10
370.250052
 20
536.499431
 30
0.0
 10
363.216306
 20
543.687825
 30
0.0
 10
356.225200
 20
549.180276
 30
0.0
 10
351.104808
 20
551.931460
 30
0.0
 10
345.655048
 20
553.917513
 30
0.0
 10
339.928489
 20
555.136823
 30
0.0
 10
333.977700
 20
555.587776
 30
0.0
 10
333.977700
 20
555.587776
 30
0.0
  0
ENDSEC
  0
SECTION
  2
OBJECTS
  0
DICTIONARY
  5
C
330
0
100
AcDbDictionary
  3
ACAD_GROUP
350
D
  3
ACAD_MLINESTYLE
350
17
  0
DICTIONARY
  5
D
330
C
100
AcDbDictionary
  0
DICTIONARY
  5
1A
330
C
100
AcDbDictionary
  0
DICTIONARY
  5
17
330
C
100
AcDbDictionary
  3
STANDARD
350
18
  0
DICTIONARY
  5
19
330
C
100
AcDbDictionary
  0
ENDSEC
  0
EOF
